<svg width="25" height="24" viewBox="0 0 25 24" fill="none" xmlns="http://www.w3.org/2000/svg">
<path d="M18.6036 16.7741L22.7028 20.8757L21.3428 22.2366L17.2436 18.1349C16.4902 18.7355 15.6665 19.1955 14.7726 19.5149C13.8276 19.8471 12.8571 20.0132 11.861 20.0132C10.3031 20.0132 8.85366 19.6235 7.5128 18.8441C6.21025 18.0774 5.18226 17.0424 4.42883 15.7391C3.63708 14.3974 3.24121 12.9471 3.24121 11.3882C3.24121 9.82935 3.63708 8.37907 4.42883 7.03741C5.18226 5.73407 6.21025 4.70546 7.5128 3.95157C8.85366 3.15935 10.3031 2.76324 11.861 2.76324C13.419 2.76324 14.8684 3.15935 16.2092 3.95157C17.5118 4.70546 18.5461 5.73407 19.3123 7.03741C20.0913 8.37907 20.4808 9.82935 20.4808 11.3882C20.4808 12.3849 20.3148 13.356 19.9828 14.3016C19.6635 15.196 19.2038 16.0202 18.6036 16.7741Z" fill="#2A444A"/>
</svg>
