<svg width="25" height="24" viewBox="0 0 25 24" fill="none" xmlns="http://www.w3.org/2000/svg">
<path d="M16.1 2.20999C15.69 1.79999 14.98 2.07999 14.98 2.64999V6.13999C14.98 7.59999 16.22 8.80999 17.73 8.80999C18.68 8.81999 20 8.81999 21.13 8.81999C21.7 8.81999 22 8.14999 21.6 7.74999C20.16 6.29999 17.58 3.68999 16.1 2.20999Z" fill="#2A444A"/>
<path d="M20.7998 10.19H17.9098C15.5398 10.19 13.6098 8.26 13.6098 5.89V3C13.6098 2.45 13.1598 2 12.6098 2H8.3698C5.2898 2 2.7998 4 2.7998 7.57V16.43C2.7998 20 5.2898 22 8.3698 22H16.2298C19.3098 22 21.7998 20 21.7998 16.43V11.19C21.7998 10.64 21.3498 10.19 20.7998 10.19ZM11.7998 17.75H7.7998C7.3898 17.75 7.0498 17.41 7.0498 17C7.0498 16.59 7.3898 16.25 7.7998 16.25H11.7998C12.2098 16.25 12.5498 16.59 12.5498 17C12.5498 17.41 12.2098 17.75 11.7998 17.75ZM13.7998 13.75H7.7998C7.3898 13.75 7.0498 13.41 7.0498 13C7.0498 12.59 7.3898 12.25 7.7998 12.25H13.7998C14.2098 12.25 14.5498 12.59 14.5498 13C14.5498 13.41 14.2098 13.75 13.7998 13.75Z" fill="#2A444A"/>
</svg>
