<svg width="25" height="24" viewBox="0 0 25 24" fill="none" xmlns="http://www.w3.org/2000/svg">
<path d="M20.9401 6.81994L15.1801 2.78994C13.6101 1.68994 11.2001 1.74994 9.69014 2.91994L4.68014 6.82994C3.68014 7.60994 2.89014 9.20994 2.89014 10.4699V17.3699C2.89014 19.9199 4.96014 21.9999 7.51014 21.9999H18.2901C20.8401 21.9999 22.9101 19.9299 22.9101 17.3799V10.5999C22.9101 9.24994 22.0401 7.58994 20.9401 6.81994ZM13.6501 17.9999C13.6501 18.4099 13.3101 18.7499 12.9001 18.7499C12.4901 18.7499 12.1501 18.4099 12.1501 17.9999V14.9999C12.1501 14.5899 12.4901 14.2499 12.9001 14.2499C13.3101 14.2499 13.6501 14.5899 13.6501 14.9999V17.9999Z" fill="#2A444A"/>
</svg>
