<svg width="20" height="20" viewBox="0 0 20 20" fill="none" xmlns="http://www.w3.org/2000/svg">
<path d="M9.44207 9.22266V6.11328H10.9958V9.22266H14.1033V10.7773H10.9958V13.8867H9.44207V10.7773H6.33457V9.22266H9.44207ZM10.2189 17.7734C9.1624 17.7734 8.15246 17.5713 7.18913 17.1671C6.26724 16.7733 5.44634 16.2162 4.72644 15.4958C4.00653 14.7755 3.44977 13.9541 3.05616 13.0316C2.65218 12.0677 2.4502 11.0572 2.4502 10C2.4502 8.94281 2.65218 7.93227 3.05616 6.96836C3.44977 6.04591 4.00653 5.22452 4.72644 4.50418C5.44634 3.78384 6.26724 3.22674 7.18913 2.83289C8.15246 2.42867 9.1624 2.22656 10.2189 2.22656C11.2755 2.22656 12.2854 2.42867 13.2488 2.83289C14.1706 3.22674 14.9915 3.78384 15.7115 4.50418C16.4314 5.22452 16.9881 6.04591 17.3817 6.96836C17.7857 7.93227 17.9877 8.94281 17.9877 10C17.9877 11.0572 17.7857 12.0677 17.3817 13.0316C16.9881 13.9541 16.4314 14.7755 15.7115 15.4958C14.9915 16.2162 14.1706 16.7733 13.2488 17.1671C12.2854 17.5713 11.2755 17.7734 10.2189 17.7734ZM10.2189 16.2188C11.348 16.2188 12.3942 15.9337 13.3575 15.3637C14.2898 14.8143 15.0304 14.0733 15.5794 13.1405C16.1491 12.1766 16.4339 11.1297 16.4339 10C16.4339 8.87026 16.1491 7.82344 15.5794 6.85953C15.0304 5.92672 14.2898 5.18565 13.3575 4.63633C12.3942 4.06628 11.348 3.78125 10.2189 3.78125C9.08989 3.78125 8.0437 4.06628 7.08037 4.63633C6.14812 5.18565 5.4075 5.92672 4.85851 6.85953C4.2888 7.82344 4.00395 8.87026 4.00395 10C4.00395 11.1297 4.2888 12.1766 4.85851 13.1405C5.4075 14.0733 6.14812 14.8143 7.08037 15.3637C8.0437 15.9337 9.08989 16.2188 10.2189 16.2188Z" fill="#3CB5B5"/>
</svg>
