<svg width="143" height="134" viewBox="0 0 143 134" fill="none" xmlns="http://www.w3.org/2000/svg">
<path d="M74.8428 134C112.236 134 142.549 104.003 142.549 67C142.549 29.9969 112.236 0 74.8428 0C37.4498 0 7.13672 29.9969 7.13672 67C7.13672 104.003 37.4498 134 74.8428 134Z" fill="#2A444A"/>
<path d="M67.7061 134C105.099 134 135.412 104.003 135.412 67C135.412 29.9969 105.099 0 67.7061 0C30.3131 0 0 29.9969 0 67C0 104.003 30.3131 134 67.7061 134Z" fill="url(#paint0_linear_52_7818)"/>
<path d="M93.1819 32.5915V30.3154H37.6377V54.1662H40.6199V56.8947H53.4742V100.73H56.4564V103.677H82.165V57.5734H97.7683V32.5298L93.1819 32.5915Z" fill="#2A444A"/>
<path d="M89.2813 34.6348H73.0951H58.1773H41.998V49.3949H58.1773V96.1846H73.0951V49.3949H89.2813V34.6348Z" fill="white"/>
<defs>
<linearGradient id="paint0_linear_52_7818" x1="38.188" y1="125.195" x2="86.4426" y2="30.0511" gradientUnits="userSpaceOnUse">
<stop stop-color="#3CB5B5"/>
<stop offset="1" stop-color="#42E398"/>
</linearGradient>
</defs>
</svg>
