<svg width="1020" height="1020" viewBox="0 0 1020 1020" fill="none" xmlns="http://www.w3.org/2000/svg">
<rect width="1020" height="1020" fill="#084C3F"/>
<path d="M443.34 215.246C532.55 183.835 605.425 168.757 662.597 171.27C719.766 173.783 749.293 192.63 752.433 228.439C754.946 264.249 729.817 279.955 676.417 276.186C623.015 272.416 566.476 283.097 506.164 307.598C445.853 332.727 425.121 365.396 445.224 406.231C465.328 447.067 506.164 499.212 569.616 562.036C632.44 625.488 655.056 685.172 636.839 741.085C618.619 796.997 562.077 830.923 465.956 843.488C369.835 855.425 310.781 849.143 288.792 823.385C266.804 797.627 263.034 779.407 277.484 767.47C291.933 755.535 319.576 751.765 359.155 756.791C399.363 761.188 431.403 756.791 455.904 742.968C480.406 729.147 489.201 713.441 483.547 696.48C477.265 678.887 435.801 639.308 357.271 577.114C279.369 513.66 251.726 445.81 274.971 372.307C298.216 299.431 354.758 246.659 443.34 215.246Z" fill="white"/>
</svg>
