<svg width="16" height="15" viewBox="0 0 16 15" fill="none" xmlns="http://www.w3.org/2000/svg">
<path d="M1.96582 12.1668H13.6283V13.3335H1.96582V12.1668ZM3.13207 7.50016H4.29832V11.5835H3.13207V7.50016ZM6.0477 7.50016H7.21395V11.5835H6.0477V7.50016ZM8.3802 7.50016H9.54645V11.5835H8.3802V7.50016ZM11.2958 7.50016H12.4621V11.5835H11.2958V7.50016ZM1.96582 4.5835L7.79707 1.66683L13.6283 4.5835V6.91683H1.96582V4.5835ZM3.13207 5.30683V5.75016H12.4621V5.30683L7.79707 2.9735L3.13207 5.30683ZM7.79707 5.16683C7.6338 5.16683 7.49579 5.11044 7.38305 4.99766C7.27031 4.88488 7.21395 4.74683 7.21395 4.5835C7.21395 4.42016 7.27031 4.28211 7.38305 4.16933C7.49579 4.05655 7.6338 4.00016 7.79707 4.00016C7.96035 4.00016 8.09835 4.05655 8.21109 4.16933C8.32383 4.28211 8.3802 4.42016 8.3802 4.5835C8.3802 4.74683 8.32383 4.88488 8.21109 4.99766C8.09835 5.11044 7.96035 5.16683 7.79707 5.16683Z" fill="#3CB5B5"/>
</svg>
