<svg width="20" height="20" viewBox="0 0 20 20" fill="none" xmlns="http://www.w3.org/2000/svg">
<g clip-path="url(#clip0_19387_36614)">
<path d="M18.3327 9.63828C18.3327 14.0409 14.6012 17.6105 9.99935 17.6105C9.45825 17.6112 8.91872 17.5612 8.38719 17.4614C8.00462 17.3895 7.81333 17.3536 7.67979 17.374C7.54624 17.3944 7.357 17.4951 6.9785 17.6963C5.9078 18.2657 4.65931 18.4668 3.45861 18.2435C3.91497 17.6822 4.22664 17.0087 4.36416 16.2867C4.4475 15.845 4.24102 15.416 3.93176 15.1019C2.52713 13.6756 1.66602 11.7536 1.66602 9.63828C1.66602 5.23566 5.3975 1.66602 9.99935 1.66602C14.6012 1.66602 18.3327 5.23566 18.3327 9.63828Z" stroke="#141B34" stroke-width="1.5" stroke-linejoin="round"/>
<path d="M9.99561 10H10.0031M13.3252 10H13.3327M6.66602 10H6.67349" stroke="#141B34" stroke-width="2" stroke-linecap="round" stroke-linejoin="round"/>
</g>
<defs>
<clipPath id="clip0_19387_36614">
<rect width="20" height="20" fill="white"/>
</clipPath>
</defs>
</svg>
