<svg width="16" height="16" viewBox="0 0 16 16" fill="none" xmlns="http://www.w3.org/2000/svg">
<mask id="mask0_322_31727" style="mask-type:alpha" maskUnits="userSpaceOnUse" x="0" y="0" width="16" height="16">
<rect width="16" height="16" fill="#D9D9D9"/>
</mask>
<g mask="url(#mask0_322_31727)">
<path d="M13.3666 14.2168L11.6 12.4501V13.8001H10.4V10.4001H13.8V11.6001H12.45L14.2166 13.3668L13.3666 14.2168ZM7.99998 14.4001C7.1222 14.4001 6.29442 14.2334 5.51664 13.9001C4.73886 13.5668 4.05831 13.1084 3.47498 12.5251C2.89164 11.9418 2.43331 11.2612 2.09998 10.4834C1.76664 9.70565 1.59998 8.87788 1.59998 8.0001C1.59998 7.11121 1.76664 6.28065 2.09998 5.50843C2.43331 4.73621 2.89164 4.05843 3.47498 3.4751C4.05831 2.89176 4.73886 2.43343 5.51664 2.1001C6.29442 1.76676 7.1222 1.6001 7.99998 1.6001C8.88886 1.6001 9.71942 1.76676 10.4916 2.1001C11.2639 2.43343 11.9416 2.89176 12.525 3.4751C13.1083 4.05843 13.5666 4.73621 13.9 5.50843C14.2333 6.28065 14.4 7.11121 14.4 8.0001C14.4 8.2001 14.3889 8.4001 14.3666 8.6001C14.3444 8.8001 14.3166 9.0001 14.2833 9.2001H13.05C13.0944 9.0001 13.1305 8.8001 13.1583 8.6001C13.1861 8.4001 13.2 8.2001 13.2 8.0001C13.2 7.8001 13.1861 7.6001 13.1583 7.4001C13.1305 7.2001 13.0944 7.0001 13.05 6.8001H10.3666C10.3889 6.98899 10.4028 7.18343 10.4083 7.38343C10.4139 7.58343 10.4166 7.77788 10.4166 7.96676C10.4166 8.17788 10.4111 8.38343 10.4 8.58343C10.3889 8.78343 10.3778 8.98899 10.3666 9.2001H9.14998C9.16109 8.98899 9.1722 8.78065 9.18331 8.5751C9.19442 8.36954 9.19998 8.16121 9.19998 7.9501C9.19998 7.76121 9.1972 7.56954 9.19164 7.3751C9.18609 7.18065 9.1722 6.98899 9.14998 6.8001H6.84998C6.82775 7.0001 6.81386 7.2001 6.80831 7.4001C6.80275 7.6001 6.79998 7.8001 6.79998 8.0001C6.79998 8.2001 6.80275 8.4001 6.80831 8.6001C6.81386 8.8001 6.82775 9.0001 6.84998 9.2001H8.39998V10.4001H6.99998C7.08886 10.9001 7.21109 11.3862 7.36664 11.8584C7.5222 12.3307 7.73331 12.7779 7.99998 13.2001C8.19998 13.2001 8.40275 13.189 8.60831 13.1668C8.81386 13.1445 9.01109 13.1057 9.19998 13.0501V14.2834C9.01109 14.339 8.81386 14.3723 8.60831 14.3834C8.40275 14.3945 8.19998 14.4001 7.99998 14.4001ZM2.94998 9.2001H5.63331C5.61109 9.01121 5.5972 8.81676 5.59164 8.61677C5.58609 8.41676 5.58331 8.22232 5.58331 8.03343C5.58331 7.82232 5.58609 7.61676 5.59164 7.41676C5.5972 7.21676 5.61109 7.01121 5.63331 6.8001H2.94998C2.90553 7.0001 2.86942 7.2001 2.84164 7.4001C2.81386 7.6001 2.79998 7.8001 2.79998 8.0001C2.79998 8.2001 2.81386 8.4001 2.84164 8.6001C2.86942 8.8001 2.90553 9.0001 2.94998 9.2001ZM3.39998 5.6001H5.78331C5.84998 5.15565 5.93886 4.71676 6.04998 4.28343C6.16109 3.8501 6.30553 3.42788 6.48331 3.01676C5.81664 3.21676 5.21664 3.53899 4.68331 3.98343C4.14998 4.42788 3.7222 4.96676 3.39998 5.6001ZM6.49998 12.9834C6.29998 12.5723 6.1472 12.1501 6.04164 11.7168C5.93609 11.2834 5.84998 10.8445 5.78331 10.4001H3.39998C3.7222 11.0334 4.14998 11.5723 4.68331 12.0168C5.21664 12.4612 5.8222 12.7834 6.49998 12.9834ZM6.99998 5.6001H8.99998C8.91109 5.11121 8.79164 4.63343 8.64164 4.16676C8.49164 3.7001 8.27775 3.26121 7.99998 2.8501C7.7222 3.26121 7.51109 3.7001 7.36664 4.16676C7.2222 4.63343 7.09998 5.11121 6.99998 5.6001ZM10.2166 5.6001H12.6C12.2778 4.96676 11.85 4.42788 11.3166 3.98343C10.7833 3.53899 10.1833 3.21676 9.51664 3.01676C9.69442 3.42788 9.83886 3.8501 9.94998 4.28343C10.0611 4.71676 10.15 5.15565 10.2166 5.6001Z" fill="white"/>
</g>
</svg>
