<svg width="30" height="29" viewBox="0 0 30 29" fill="none" xmlns="http://www.w3.org/2000/svg">
<path d="M7.00436 9.41686L3.76172 6.17422L5.17593 4.76001L8.41857 8.00265H23.6603C24.2126 8.00265 24.6603 8.45037 24.6603 9.00265C24.6603 9.09997 24.6461 9.19678 24.6182 9.29L22.2182 17.29C22.0913 17.713 21.7019 18.0027 21.2603 18.0027H9.00436V20.0027H20.0044V22.0027H8.00436C7.45207 22.0027 7.00436 21.5549 7.00436 21.0027V9.41686ZM9.00436 10.0026V16.0027H20.5163L22.3163 10.0026H9.00436ZM8.50436 26.0027C7.67593 26.0027 7.00436 25.3311 7.00436 24.5027C7.00436 23.6742 7.67593 23.0027 8.50436 23.0027C9.33279 23.0027 10.0044 23.6742 10.0044 24.5027C10.0044 25.3311 9.33279 26.0027 8.50436 26.0027ZM20.5044 26.0027C19.6759 26.0027 19.0044 25.3311 19.0044 24.5027C19.0044 23.6742 19.6759 23.0027 20.5044 23.0027C21.3328 23.0027 22.0044 23.6742 22.0044 24.5027C22.0044 25.3311 21.3328 26.0027 20.5044 26.0027Z" fill="#D0D4DD"/>
</svg>
