<svg width="20" height="20" viewBox="0 0 20 20" fill="none" xmlns="http://www.w3.org/2000/svg">
<path d="M6.10774 7.2793V5.72461C6.10774 5.01982 6.28125 4.36944 6.62825 3.77348C6.97525 3.17751 7.44656 2.70592 8.04216 2.35871C8.63777 2.0115 9.28775 1.83789 9.99212 1.83789C10.6965 1.83789 11.3465 2.0115 11.9421 2.35871C12.5377 2.70592 13.009 3.17751 13.356 3.77348C13.703 4.36944 13.8765 5.01982 13.8765 5.72461V7.2793H16.2071C16.4246 7.2793 16.6085 7.35444 16.7587 7.50473C16.9089 7.65501 16.984 7.83898 16.984 8.05664V17.3848C16.984 17.6024 16.9089 17.7864 16.7587 17.9367C16.6085 18.087 16.4246 18.1621 16.2071 18.1621H3.77712C3.55959 18.1621 3.37573 18.087 3.22554 17.9367C3.07534 17.7864 3.00024 17.6024 3.00024 17.3848V8.05664C3.00024 7.83898 3.07534 7.65501 3.22554 7.50473C3.37573 7.35444 3.55959 7.2793 3.77712 7.2793H6.10774ZM6.10774 8.83398H4.55399V16.6074H15.4302V8.83398H13.8765V10.3887H12.3227V8.83398H7.66149V10.3887H6.10774V8.83398ZM7.66149 7.2793H12.3227V5.72461C12.3227 5.29966 12.2192 4.9084 12.012 4.55082C11.8048 4.19324 11.5226 3.91081 11.1652 3.70352C10.8078 3.49622 10.4168 3.39258 9.99212 3.39258C9.56743 3.39258 9.1764 3.49622 8.81904 3.70352C8.46168 3.91081 8.17941 4.19324 7.97224 4.55082C7.76508 4.9084 7.66149 5.29966 7.66149 5.72461V7.2793Z" fill="black"/>
</svg>
