<svg width="13" height="11" viewBox="0 0 13 11" fill="none" xmlns="http://www.w3.org/2000/svg">
<path d="M6.28901 7.83317C6.70886 7.83317 7.09761 7.72817 7.45526 7.51817C7.81291 7.30817 8.0967 7.02428 8.30663 6.6665C8.51655 6.30873 8.62151 5.91984 8.62151 5.49984C8.62151 5.07984 8.51655 4.69095 8.30663 4.33317C8.0967 3.97539 7.81291 3.6915 7.45526 3.4815C7.09761 3.2715 6.70692 3.1665 6.28318 3.1665C5.85945 3.1665 5.4707 3.2715 5.11693 3.4815C4.76317 3.6915 4.48133 3.97539 4.2714 4.33317C4.06148 4.69095 3.95651 5.07984 3.95651 5.49984C3.95651 5.91984 4.06148 6.30873 4.2714 6.6665C4.48133 7.02428 4.76317 7.30817 5.11693 7.51817C5.4707 7.72817 5.86139 7.83317 6.28901 7.83317ZM11.5371 0.833171H1.04089C0.877614 0.833171 0.739607 0.88956 0.62687 1.00234C0.514132 1.11512 0.457764 1.25317 0.457764 1.4165V9.58317C0.457764 9.7465 0.514132 9.88456 0.62687 9.99734C0.739607 10.1101 0.877614 10.1665 1.04089 10.1665H11.5371C11.7004 10.1665 11.8384 10.1101 11.9512 9.99734C12.0639 9.88456 12.1203 9.7465 12.1203 9.58317V1.4165C12.1203 1.25317 12.0639 1.11512 11.9512 1.00234C11.8384 0.88956 11.7004 0.833171 11.5371 0.833171ZM1.62401 7.62317V3.3765C1.95056 3.27539 2.23629 3.10234 2.48121 2.85734C2.72612 2.61234 2.89523 2.3265 2.98853 1.99984H9.57784C9.67891 2.3265 9.85191 2.61234 10.0968 2.85734C10.3417 3.10234 10.6275 3.27539 10.954 3.3765V7.62317C10.6275 7.72428 10.3417 7.89734 10.0968 8.14234C9.85191 8.38734 9.67891 8.67317 9.57784 8.99984H3.00019C2.89911 8.67317 2.72612 8.38734 2.48121 8.14234C2.23629 7.89734 1.95056 7.72428 1.62401 7.62317Z" fill="#374151"/>
</svg>
