<svg width="16" height="15" viewBox="0 0 16 15" fill="none" xmlns="http://www.w3.org/2000/svg">
<path d="M2.85352 2.83333C2.85352 2.67 2.90988 2.53194 3.02262 2.41917C3.13536 2.30639 3.27337 2.25 3.43664 2.25H6.93539C7.09867 2.25 7.23667 2.30639 7.34941 2.41917C7.46215 2.53194 7.51852 2.67 7.51852 2.83333V6.33333C7.51852 6.49667 7.46215 6.63472 7.34941 6.7475C7.23667 6.86028 7.09867 6.91667 6.93539 6.91667H3.43664C3.27337 6.91667 3.13536 6.86028 3.02262 6.7475C2.90988 6.63472 2.85352 6.49667 2.85352 6.33333V2.83333ZM2.85352 8.66667C2.85352 8.50333 2.90988 8.36528 3.02262 8.2525C3.13536 8.13972 3.27337 8.08333 3.43664 8.08333H6.93539C7.09867 8.08333 7.23667 8.13972 7.34941 8.2525C7.46215 8.36528 7.51852 8.50333 7.51852 8.66667V12.1667C7.51852 12.33 7.46215 12.4681 7.34941 12.5808C7.23667 12.6936 7.09867 12.75 6.93539 12.75H3.43664C3.27337 12.75 3.13536 12.6936 3.02262 12.5808C2.90988 12.4681 2.85352 12.33 2.85352 12.1667V8.66667ZM8.68477 2.83333C8.68477 2.67 8.74113 2.53194 8.85387 2.41917C8.96661 2.30639 9.10462 2.25 9.26789 2.25H12.7666C12.9299 2.25 13.0679 2.30639 13.1807 2.41917C13.2934 2.53194 13.3498 2.67 13.3498 2.83333V6.33333C13.3498 6.49667 13.2934 6.63472 13.1807 6.7475C13.0679 6.86028 12.9299 6.91667 12.7666 6.91667H9.26789C9.10462 6.91667 8.96661 6.86028 8.85387 6.7475C8.74113 6.63472 8.68477 6.49667 8.68477 6.33333V2.83333ZM8.68477 8.66667C8.68477 8.50333 8.74113 8.36528 8.85387 8.2525C8.96661 8.13972 9.10462 8.08333 9.26789 8.08333H12.7666C12.9299 8.08333 13.0679 8.13972 13.1807 8.2525C13.2934 8.36528 13.3498 8.50333 13.3498 8.66667V12.1667C13.3498 12.33 13.2934 12.4681 13.1807 12.5808C13.0679 12.6936 12.9299 12.75 12.7666 12.75H9.26789C9.10462 12.75 8.96661 12.6936 8.85387 12.5808C8.74113 12.4681 8.68477 12.33 8.68477 12.1667V8.66667ZM9.85102 3.41667V5.75H12.1835V3.41667H9.85102ZM9.85102 9.25V11.5833H12.1835V9.25H9.85102ZM4.01977 3.41667V5.75H6.35227V3.41667H4.01977ZM4.01977 9.25V11.5833H6.35227V9.25H4.01977Z" fill="#6B7280"/>
</svg>
