<svg width="16" height="15" viewBox="0 0 16 15" fill="none" xmlns="http://www.w3.org/2000/svg">
<path d="M11.2957 5.45833H12.462C12.6252 5.45833 12.7632 5.51472 12.876 5.6275C12.9887 5.74028 13.0451 5.87833 13.0451 6.04167V13.0417C13.0451 13.205 12.9887 13.3431 12.876 13.4558C12.7632 13.5686 12.6252 13.625 12.462 13.625H3.13195C2.96868 13.625 2.83067 13.5686 2.71793 13.4558C2.6052 13.3431 2.54883 13.205 2.54883 13.0417V6.04167C2.54883 5.87833 2.6052 5.74028 2.71793 5.6275C2.83067 5.51472 2.96868 5.45833 3.13195 5.45833H4.2982V4.875C4.2982 4.245 4.45759 3.65778 4.77637 3.11333C5.08737 2.58444 5.50722 2.16444 6.03592 1.85333C6.58017 1.53444 7.16718 1.375 7.79695 1.375C8.42673 1.375 9.01374 1.53444 9.55799 1.85333C10.0867 2.16444 10.5065 2.58444 10.8175 3.11333C11.1363 3.65778 11.2957 4.245 11.2957 4.875V5.45833ZM3.71508 6.625V12.4583H11.8788V6.625H3.71508ZM7.21383 8.95833H8.38008V10.125H7.21383V8.95833ZM4.88133 8.95833H6.04758V10.125H4.88133V8.95833ZM9.54633 8.95833H10.7126V10.125H9.54633V8.95833ZM10.1295 5.45833V4.875C10.1295 4.455 10.0245 4.06611 9.81457 3.70833C9.60464 3.35056 9.32085 3.06667 8.9632 2.85667C8.60555 2.64667 8.2168 2.54167 7.79695 2.54167C7.3771 2.54167 6.98835 2.64667 6.6307 2.85667C6.27305 3.06667 5.98927 3.35056 5.77934 3.70833C5.56942 4.06611 5.46445 4.455 5.46445 4.875V5.45833H10.1295Z" fill="#3CB5B5"/>
</svg>
