<svg width="12" height="11" viewBox="0 0 12 11" fill="none" xmlns="http://www.w3.org/2000/svg">
<path d="M7.74967 9.5901L7.74967 8.42385L10.6663 8.42385L10.6663 1.42635L1.33301 1.42635L1.33301 8.42385L4.24967 8.42385L4.24967 9.5901L0.749675 9.5901C0.586341 9.5901 0.448285 9.53373 0.335507 9.42099C0.22273 9.30825 0.166341 9.17025 0.166341 9.00697L0.16634 0.843223C0.16634 0.679948 0.222729 0.541942 0.335507 0.429204C0.448285 0.316467 0.58634 0.260098 0.749674 0.260098L11.2497 0.260098C11.413 0.260098 11.5511 0.316466 11.6638 0.429204C11.7766 0.541942 11.833 0.679948 11.833 0.843223L11.833 9.00697C11.833 9.17025 11.7766 9.30825 11.6638 9.42099C11.5511 9.53373 11.413 9.5901 11.2497 9.5901L7.74967 9.5901ZM5.41634 6.09135L3.66634 6.09135L5.99967 3.17572L8.33301 6.09135L6.58301 6.09135L6.58301 10.7563L5.41634 10.7563L5.41634 6.09135Z" fill="#EF4444"/>
</svg>
