<svg width="16" height="14" viewBox="0 0 16 14" fill="none" xmlns="http://www.w3.org/2000/svg">
<path d="M7.99238 12.8335C7.19933 12.8335 6.44127 12.6818 5.7182 12.3785C5.02622 12.0829 4.41005 11.6649 3.86969 11.1243C3.32933 10.5838 2.91142 9.96739 2.61597 9.27516C2.31275 8.55183 2.16113 7.7935 2.16113 7.00016C2.16113 6.20683 2.31275 5.4485 2.61597 4.72516C2.91142 4.03294 3.32933 3.41655 3.86969 2.876C4.41005 2.33544 5.02622 1.91739 5.7182 1.62183C6.44127 1.3185 7.19933 1.16683 7.99238 1.16683C8.78543 1.16683 9.5435 1.3185 10.2666 1.62183C10.9585 1.91739 11.5747 2.33544 12.1151 2.876C12.6554 3.41655 13.0733 4.03294 13.3688 4.72516C13.672 5.4485 13.8236 6.20683 13.8236 7.00016C13.8236 7.7935 13.672 8.55183 13.3688 9.27516C13.0733 9.96739 12.6554 10.5838 12.1151 11.1243C11.5747 11.6649 10.9585 12.0829 10.2666 12.3785C9.5435 12.6818 8.78543 12.8335 7.99238 12.8335ZM7.99238 11.6668C8.83986 11.6668 9.62513 11.4529 10.3482 11.0252C11.048 10.6129 11.6039 10.0568 12.0159 9.35683C12.4436 8.6335 12.6574 7.84794 12.6574 7.00016C12.6574 6.15238 12.4436 5.36683 12.0159 4.6435C11.6039 3.9435 11.048 3.38739 10.3482 2.97516C9.62513 2.54739 8.83986 2.3335 7.99238 2.3335C7.14491 2.3335 6.35963 2.54739 5.63656 2.97516C4.93681 3.38739 4.3809 3.9435 3.96882 4.6435C3.5412 5.36683 3.32738 6.15238 3.32738 7.00016C3.32738 7.84794 3.5412 8.6335 3.96882 9.35683C4.3809 10.0568 4.93681 10.6129 5.63656 11.0252C6.35963 11.4529 7.14491 11.6668 7.99238 11.6668ZM7.40926 9.3335L4.93681 6.86016L5.76485 6.03183L7.40926 7.6885L10.7097 4.38683L11.5378 5.2035L7.40926 9.3335Z" fill="#6B7280"/>
</svg>
