<svg width="16" height="15" viewBox="0 0 16 15" fill="none" xmlns="http://www.w3.org/2000/svg">
<path d="M8.16402 4.29167C9.0115 4.29167 9.79677 4.50556 10.5198 4.93333C11.2196 5.34556 11.7755 5.90167 12.1876 6.60167C12.6152 7.325 12.829 8.11056 12.829 8.95833C12.829 9.80611 12.6152 10.5917 12.1876 11.315C11.7755 12.015 11.2196 12.5711 10.5198 12.9833C9.79677 13.4111 9.0115 13.625 8.16402 13.625C7.31655 13.625 6.53127 13.4111 5.8082 12.9833C5.10845 12.5711 4.55254 12.015 4.14046 11.315C3.71284 10.5917 3.49902 9.80611 3.49902 8.95833C3.49902 8.11056 3.71284 7.325 4.14046 6.60167C4.55254 5.90167 5.10845 5.34556 5.8082 4.93333C6.53127 4.50556 7.31655 4.29167 8.16402 4.29167ZM8.16402 5.45833C7.53425 5.45833 6.94724 5.61778 6.40299 5.93667C5.87429 6.24778 5.45444 6.66778 5.14344 7.19667C4.82466 7.74111 4.66527 8.33028 4.66527 8.96417C4.66527 9.59806 4.82466 10.1833 5.14344 10.72C5.45444 11.2489 5.87429 11.6689 6.40299 11.98C6.94724 12.2989 7.53425 12.4583 8.16402 12.4583C8.7938 12.4583 9.38081 12.2989 9.92506 11.98C10.4538 11.6689 10.8736 11.2489 11.1846 10.72C11.5034 10.1833 11.6628 9.59806 11.6628 8.96417C11.6628 8.33028 11.5034 7.74111 11.1846 7.19667C10.8736 6.66778 10.4538 6.24778 9.92506 5.93667C9.38081 5.61778 8.7938 5.45833 8.16402 5.45833ZM8.16402 6.33333L8.93375 7.89667L10.6598 8.14167L9.41191 9.36667L9.70347 11.0817L8.16402 10.2767L6.62457 11.0817L6.91614 9.36667L5.66825 8.14167L7.3943 7.89667L8.16402 6.33333ZM11.6628 1.375V3.125L10.8697 3.79C10.2011 3.44 9.49355 3.22611 8.74715 3.14833V1.375H11.6628ZM7.5809 1.375V3.14833C6.8345 3.22611 6.12697 3.44 5.45832 3.79L4.66527 3.125V1.375H7.5809Z" fill="#6B7280"/>
</svg>
