<svg width="22" height="23" viewBox="0 0 22 23" fill="none" xmlns="http://www.w3.org/2000/svg">
<path d="M6.36505 5.76172V3.04883C6.36505 2.5494 6.76993 2.14453 7.26935 2.14453H18.1209C18.6204 2.14453 19.0252 2.5494 19.0252 3.04883V15.709C19.0252 16.2084 18.6204 16.6133 18.1209 16.6133H15.408V19.3254C15.408 19.8253 15.0012 20.2305 14.4976 20.2305H3.65837C3.15551 20.2305 2.74805 19.8284 2.74805 19.3254L2.7504 6.6668C2.75049 6.16694 3.15737 5.76172 3.66086 5.76172H6.36505ZM4.55883 7.57031L4.55681 18.4219H13.5994V7.57031H4.55883ZM8.17365 5.76172H15.408V14.8047H17.2166V3.95312H8.17365V5.76172Z" fill="white"/>
</svg>
