<svg width="15" height="15" viewBox="0 0 15 15" fill="none" xmlns="http://www.w3.org/2000/svg">
<path d="M1.25391 5.9375V2.5C1.25391 2.15482 1.53373 1.875 1.87891 1.875H13.1289C13.4741 1.875 13.7539 2.15482 13.7539 2.5V5.9375C12.891 5.9375 12.1914 6.63707 12.1914 7.50001C12.1914 8.36294 12.891 9.06251 13.7539 9.06251V12.5C13.7539 12.8452 13.4741 13.125 13.1289 13.125H1.87891C1.53373 13.125 1.25391 12.8452 1.25391 12.5V9.06251C2.11685 9.06251 2.81641 8.36294 2.81641 7.50001C2.81641 6.63707 2.11685 5.9375 1.25391 5.9375ZM8.75392 3.125H2.50391V4.97985C3.42998 5.44007 4.06641 6.39569 4.06641 7.50001C4.06641 8.60426 3.42998 9.55994 2.50391 10.0201V11.875H8.75392V3.125ZM10.0039 3.125V11.875H12.5039V10.0201C11.5779 9.55994 10.9414 8.60426 10.9414 7.50001C10.9414 6.39569 11.5779 5.44007 12.5039 4.97985V3.125H10.0039Z" fill="white"/>
</svg>
