<svg width="14" height="12" viewBox="0 0 14 12" fill="none" xmlns="http://www.w3.org/2000/svg">
<path d="M12.5501 10.8644V11.9752H1.44212V10.8644H1.99752V7.11109C1.32771 6.66277 0.886719 5.89921 0.886719 5.03268C0.886719 4.57329 1.01137 4.13083 1.23841 3.75385L2.74469 1.14489C2.84391 0.973047 3.02726 0.867188 3.22568 0.867188H10.7665C10.9649 0.867188 11.1483 0.973047 11.2475 1.14489L12.7486 3.74511C12.9809 4.13083 13.1055 4.57329 13.1055 5.03268C13.1055 5.89921 12.6645 6.66277 11.9947 7.11109V10.8644H12.5501ZM3.54633 1.97799L2.19523 4.318C2.06644 4.53195 1.99752 4.77658 1.99752 5.03268C1.99752 5.79952 2.61917 6.42118 3.38601 6.42118C3.95861 6.42118 4.46608 6.07144 4.67553 5.54892C4.86193 5.0839 5.52019 5.0839 5.70659 5.54892C5.91602 6.07144 6.42349 6.42118 6.99611 6.42118C7.56872 6.42118 8.07619 6.07144 8.28563 5.54892C8.47202 5.0839 9.13028 5.0839 9.31667 5.54892C9.52611 6.07144 10.0336 6.42118 10.6062 6.42118C11.373 6.42118 11.9947 5.79952 11.9947 5.03268C11.9947 4.77658 11.9258 4.53195 11.7918 4.30925L10.4459 1.97799H3.54633Z" fill="#084C3F"/>
</svg>
