<svg width="16" height="15" viewBox="0 0 16 15" fill="none" xmlns="http://www.w3.org/2000/svg">
<path d="M2.54895 2.25H13.0452C13.2085 2.25 13.3465 2.30639 13.4592 2.41917C13.572 2.53194 13.6283 2.67 13.6283 2.83333V12.1667C13.6283 12.33 13.572 12.4681 13.4592 12.5808C13.3465 12.6936 13.2085 12.75 13.0452 12.75H2.54895C2.38567 12.75 2.24766 12.6936 2.13493 12.5808C2.02219 12.4681 1.96582 12.33 1.96582 12.1667V2.83333C1.96582 2.67 2.02219 2.53194 2.13493 2.41917C2.24766 2.30639 2.38567 2.25 2.54895 2.25ZM12.4621 6.91667H3.13207V11.5833H12.4621V6.91667ZM12.4621 5.75V3.41667H3.13207V5.75H12.4621ZM8.96332 9.25H11.2958V10.4167H8.96332V9.25Z" fill="#3CB5B5"/>
</svg>
