<svg width="12" height="12" viewBox="0 0 12 12" fill="none" xmlns="http://www.w3.org/2000/svg">
<path d="M9.08398 2.33333H12.0007V3.5H10.834V11.0833C10.834 11.4055 10.5728 11.6667 10.2507 11.6667H2.08398C1.76182 11.6667 1.50065 11.4055 1.50065 11.0833V3.5H0.333984V2.33333H3.25065V0.583333C3.25065 0.26117 3.51182 0 3.83398 0H8.50065C8.82283 0 9.08398 0.26117 9.08398 0.583333V2.33333ZM9.66732 3.5H2.66732V10.5H9.66732V3.5ZM4.41732 5.25H5.58398V8.75H4.41732V5.25ZM6.75065 5.25H7.91732V8.75H6.75065V5.25ZM4.41732 1.16667V2.33333H7.91732V1.16667H4.41732Z" fill="#F50000"/>
</svg>
