<svg width="18" height="18" viewBox="0 0 18 18" fill="none" xmlns="http://www.w3.org/2000/svg">
<path d="M13.166 4.0013H17.3327V5.66797H15.666V16.5013C15.666 16.9616 15.2929 17.3346 14.8327 17.3346H3.16602C2.70578 17.3346 2.33268 16.9616 2.33268 16.5013V5.66797H0.666016V4.0013H4.83268V1.5013C4.83268 1.04107 5.20578 0.667969 5.66602 0.667969H12.3327C12.7929 0.667969 13.166 1.04107 13.166 1.5013V4.0013ZM13.9993 5.66797H3.99935V15.668H13.9993V5.66797ZM6.49935 8.16797H8.16602V13.168H6.49935V8.16797ZM9.83268 8.16797H11.4993V13.168H9.83268V8.16797ZM6.49935 2.33464V4.0013H11.4993V2.33464H6.49935Z" fill="#1C1C1C"/>
</svg>
