<svg width="20" height="20" viewBox="0 0 20 20" fill="none" xmlns="http://www.w3.org/2000/svg">
<path d="M13.332 11.668C13.332 12.3583 13.8917 12.918 14.582 12.918C15.2724 12.918 15.832 12.3583 15.832 11.668C15.832 10.9776 15.2724 10.418 14.582 10.418C13.8917 10.418 13.332 10.9776 13.332 11.668Z" stroke="#1C1C1C" stroke-width="1.5"/>
<path d="M8.33268 5.83333H13.3327C15.6897 5.83333 16.8682 5.83333 17.6004 6.56557C18.3327 7.2978 18.3327 8.47631 18.3327 10.8333V12.5C18.3327 14.857 18.3327 16.0355 17.6004 16.7678C16.8682 17.5 15.6897 17.5 13.3327 17.5H8.33268C5.18999 17.5 3.61864 17.5 2.64233 16.5237C1.66602 15.5474 1.66602 13.976 1.66602 10.8333V9.16667C1.66602 6.02397 1.66602 4.45262 2.64233 3.47631C3.61864 2.5 5.18999 2.5 8.33268 2.5H11.666C12.441 2.5 12.8285 2.5 13.1464 2.58519C14.0091 2.81635 14.683 3.49022 14.9142 4.35295C14.9993 4.67087 14.9993 5.05836 14.9993 5.83333" stroke="#1C1C1C" stroke-width="1.5" stroke-linecap="round"/>
</svg>
