<svg width="9" height="13" viewBox="0 0 9 13" fill="none" xmlns="http://www.w3.org/2000/svg">
<path d="M8.52801 4.75517L7.09194 4.17404L7.68679 2.77112C7.79629 2.51284 7.67077 2.21676 7.40638 2.10975L3.5768 0.560145C3.31245 0.453173 3.00934 0.575803 2.89984 0.834088L2.30498 2.23701L0.868915 1.65588C0.604527 1.54891 0.301452 1.67154 0.191918 1.92983C0.0824182 2.18811 0.207945 2.48419 0.472333 2.5912L2.38712 3.36602L5.72489 4.71663H1.39137C1.10522 4.71663 0.873233 4.94326 0.873233 5.22281V11.9718C0.873233 12.2514 1.10522 12.478 1.39137 12.478H7.609C7.89515 12.478 8.12714 12.2514 8.12714 11.9718V5.68873L8.13146 5.69048C8.19629 5.7167 8.26345 5.72915 8.32953 5.72915C8.53284 5.72915 8.7258 5.61148 8.80842 5.41654C8.91792 5.15825 8.79239 4.86214 8.52801 4.75517ZM3.26239 2.6244L3.65894 1.68912L6.53107 2.85134L6.13453 3.78662L4.69846 3.20553L3.26239 2.6244Z" fill="white"/>
</svg>
