<svg width="16" height="15" viewBox="0 0 16 15" fill="none" xmlns="http://www.w3.org/2000/svg">
<path d="M2.74401 2H13.2403C13.4035 2 13.5415 2.05639 13.6543 2.16917C13.767 2.28194 13.8234 2.42 13.8234 2.58333V11.9167C13.8234 12.08 13.767 12.2181 13.6543 12.3308C13.5415 12.4436 13.4035 12.5 13.2403 12.5H2.74401C2.58074 12.5 2.44273 12.4436 2.32999 12.3308C2.21726 12.2181 2.16089 12.08 2.16089 11.9167V2.58333C2.16089 2.42 2.21726 2.28194 2.32999 2.16917C2.44273 2.05639 2.58074 2 2.74401 2ZM12.6571 6.66667H3.32714V11.3333H12.6571V6.66667ZM12.6571 5.5V3.16667H3.32714V5.5H12.6571ZM9.15839 9H11.4909V10.1667H9.15839V9Z" fill="#9333EA"/>
</svg>
