<svg width="16" height="15" viewBox="0 0 16 15" fill="none" xmlns="http://www.w3.org/2000/svg">
<path d="M6.21956 10.167C6.17291 10.4937 6.05434 10.7912 5.86385 11.0595C5.67336 11.3278 5.43234 11.5378 5.14077 11.6895C4.84921 11.8412 4.53627 11.917 4.20194 11.917C3.86762 11.917 3.55467 11.8412 3.26311 11.6895C2.97155 11.5378 2.73052 11.3278 2.54004 11.0595C2.34955 10.7912 2.23098 10.4937 2.18433 10.167H1.57788V3.16699C1.57788 3.00366 1.63425 2.8656 1.74699 2.75283C1.85972 2.64005 1.99773 2.58366 2.16101 2.58366H10.3248C10.488 2.58366 10.626 2.64005 10.7388 2.75283C10.8515 2.8656 10.9079 3.00366 10.9079 3.16699V4.33366H12.6573L14.4066 6.70199V10.167H13.2171C13.1704 10.4937 13.0518 10.7912 12.8614 11.0595C12.6709 11.3278 12.4298 11.5378 12.1383 11.6895C11.8467 11.8412 11.5338 11.917 11.1994 11.917C10.8651 11.917 10.5522 11.8412 10.2606 11.6895C9.96905 11.5378 9.72802 11.3278 9.53754 11.0595C9.34705 10.7912 9.22848 10.4937 9.18183 10.167H6.21956ZM9.74163 3.75033H2.74413V8.45199C2.93073 8.25755 3.15037 8.10588 3.40306 7.99699C3.65575 7.8881 3.92204 7.83366 4.20194 7.83366C4.60624 7.83366 4.97361 7.9406 5.30405 8.15449C5.63449 8.36838 5.88134 8.65033 6.04462 9.00033H9.35677C9.45007 8.7981 9.57836 8.61533 9.74163 8.45199V3.75033ZM10.9079 7.25033H13.2404V7.08699L12.0741 5.50033H10.9079V7.25033ZM11.1994 10.7503C11.386 10.7503 11.5552 10.6959 11.7068 10.587C11.8584 10.4781 11.9653 10.3381 12.0275 10.167C12.0586 10.0737 12.0741 9.97644 12.0741 9.87533C12.0741 9.63421 11.9886 9.4281 11.8176 9.25699C11.6465 9.08588 11.4405 9.00033 11.1994 9.00033C10.9584 9.00033 10.7524 9.08588 10.5813 9.25699C10.4103 9.4281 10.3248 9.63421 10.3248 9.87533C10.3248 9.97644 10.3403 10.0737 10.3714 10.167C10.4336 10.3381 10.5405 10.4781 10.6921 10.587C10.8437 10.6959 11.0128 10.7503 11.1994 10.7503ZM5.07663 9.87533C5.07663 9.63421 4.99111 9.4281 4.82006 9.25699C4.64901 9.08588 4.44297 9.00033 4.20194 9.00033C3.96092 9.00033 3.75488 9.08588 3.58383 9.25699C3.41278 9.4281 3.32726 9.63421 3.32726 9.87533C3.32726 9.97644 3.34281 10.0737 3.37391 10.167C3.43611 10.3381 3.54301 10.4781 3.69462 10.587C3.84624 10.6959 4.01534 10.7503 4.20194 10.7503C4.38854 10.7503 4.55765 10.6959 4.70926 10.587C4.86087 10.4781 4.96778 10.3381 5.02998 10.167C5.06108 10.0737 5.07663 9.97644 5.07663 9.87533Z" fill="#16A34A"/>
</svg>
