<svg width="16" height="15" viewBox="0 0 16 15" fill="none" xmlns="http://www.w3.org/2000/svg">
<g clip-path="url(#clip0_57_11593)">
<path d="M7.99227 11.94L10.8729 9.04663C11.4016 8.52552 11.7593 7.91107 11.9459 7.20329C12.1247 6.51107 12.1247 5.81885 11.9459 5.12663C11.7593 4.41885 11.4035 3.80246 10.8787 3.27746C10.3539 2.75246 9.73775 2.39663 9.03023 2.20996C8.33825 2.03107 7.64628 2.03107 6.9543 2.20996C6.24678 2.39663 5.63061 2.75246 5.1058 3.27746C4.58098 3.80246 4.22528 4.41885 4.03868 5.12663C3.85985 5.81885 3.85985 6.51107 4.03868 7.20329C4.22528 7.91107 4.58293 8.52552 5.11163 9.04663L7.99227 11.94ZM7.99227 13.585L4.28359 9.87496C3.60717 9.20607 3.15233 8.41274 2.91908 7.49496C2.68583 6.60829 2.68583 5.72163 2.91908 4.83496C3.15233 3.91718 3.60522 3.12191 4.27776 2.44913C4.9503 1.77635 5.74529 1.31941 6.66274 1.07829C7.54909 0.852738 8.43544 0.852738 9.32179 1.07829C10.2392 1.31941 11.0342 1.77635 11.7068 2.44913C12.3793 3.12191 12.8322 3.91718 13.0655 4.83496C13.2987 5.72163 13.2987 6.60829 13.0655 7.49496C12.8322 8.41274 12.3774 9.20607 11.7009 9.87496L7.99227 13.585ZM7.99227 7.33163C8.20219 7.33163 8.39657 7.27913 8.57539 7.17413C8.75422 7.06913 8.89611 6.92718 9.00107 6.74829C9.10603 6.56941 9.15852 6.37496 9.15852 6.16496C9.15852 5.95496 9.10603 5.76052 9.00107 5.58163C8.89611 5.40274 8.75422 5.26079 8.57539 5.15579C8.39657 5.05079 8.20219 4.99829 7.99227 4.99829C7.78234 4.99829 7.58797 5.05079 7.40914 5.15579C7.23032 5.26079 7.08842 5.40274 6.98346 5.58163C6.8785 5.76052 6.82602 5.95496 6.82602 6.16496C6.82602 6.37496 6.8785 6.56941 6.98346 6.74829C7.08842 6.92718 7.23032 7.06913 7.40914 7.17413C7.58797 7.27913 7.78234 7.33163 7.99227 7.33163ZM7.99227 8.49829C7.57242 8.49829 7.18367 8.39329 6.82602 8.18329C6.46837 7.97329 6.18458 7.68941 5.97465 7.33163C5.76473 6.97385 5.65977 6.58302 5.65977 6.15913C5.65977 5.73524 5.76473 5.34635 5.97465 4.99246C6.18458 4.63857 6.46837 4.35663 6.82602 4.14663C7.18367 3.93663 7.57242 3.83163 7.99227 3.83163C8.41212 3.83163 8.80087 3.93663 9.15852 4.14663C9.51617 4.35663 9.79995 4.63857 10.0099 4.99246C10.2198 5.34635 10.3248 5.73524 10.3248 6.15913C10.3248 6.58302 10.2198 6.97385 10.0099 7.33163C9.79995 7.68941 9.51617 7.97329 9.15852 8.18329C8.80087 8.39329 8.41212 8.49829 7.99227 8.49829Z" fill="#2563EB"/>
</g>
<defs>
<clipPath id="clip0_57_11593">
<rect width="14.5781" height="14" fill="white" transform="translate(0.703125 0.25)"/>
</clipPath>
</defs>
</svg>
