<svg width="13" height="12" viewBox="0 0 13 12" fill="none" xmlns="http://www.w3.org/2000/svg">
<path d="M3.10736 1.48467C3.86234 0.862453 4.71851 0.458008 5.67586 0.271341C6.60986 0.092452 7.53607 0.13523 8.4545 0.399674C9.39629 0.679674 10.2213 1.16967 10.9296 1.86967C11.4822 2.42967 11.9064 3.07523 12.2022 3.80634C12.4902 4.50634 12.6342 5.23745 12.6342 5.99967C12.6342 6.7619 12.4902 7.49301 12.2022 8.19301C11.9064 8.92412 11.4803 9.56773 10.9238 10.1238C10.3673 10.68 9.72319 11.1058 8.99156 11.4013C8.29105 11.6891 7.55942 11.833 6.79666 11.833C6.03389 11.833 5.30226 11.6891 4.60176 11.4013C3.87012 11.1058 3.22411 10.6819 2.66371 10.1297C1.93986 9.39856 1.44172 8.54301 1.16931 7.56301C0.904672 6.61412 0.885213 5.65745 1.11093 4.69301L1.14596 4.51801L2.27843 4.80967C2.06828 5.60301 2.06828 6.39245 2.27843 7.17801C2.48858 7.99467 2.89331 8.70245 3.49263 9.30134C4.09195 9.90023 4.80023 10.3047 5.61748 10.5147C6.4036 10.7169 7.18971 10.7169 7.97583 10.5147C8.79308 10.3047 9.50136 9.90023 10.1007 9.30134C10.7 8.70245 11.1047 7.99467 11.3149 7.17801C11.5172 6.39245 11.5172 5.6069 11.3149 4.82134C11.1047 4.00467 10.7 3.2969 10.1007 2.69801C9.56363 2.16134 8.93318 1.78023 8.20933 1.55467C7.50883 1.32912 6.79276 1.27467 6.06113 1.39134C5.3295 1.50801 4.66402 1.78412 4.06471 2.21967L3.93628 2.31301L4.53171 2.90801L1.84646 3.52634L2.46523 0.843008L3.10736 1.48467ZM7.3804 2.49967V3.66634H8.83978V4.83301H5.62916C5.55132 4.83301 5.48322 4.86217 5.42484 4.92051C5.36647 4.97884 5.33728 5.04495 5.33728 5.11884C5.33728 5.19273 5.36063 5.2569 5.40733 5.31134C5.45403 5.36579 5.51241 5.40079 5.58246 5.41634H5.62916H7.96415C8.22879 5.41634 8.47202 5.48245 8.69384 5.61467C8.91567 5.7469 9.09274 5.92384 9.22505 6.14551C9.35737 6.36717 9.42353 6.61023 9.42353 6.87467C9.42353 7.13912 9.35737 7.38217 9.22505 7.60384C9.09274 7.82551 8.91567 8.00245 8.69384 8.13467C8.47202 8.2669 8.22879 8.33301 7.96415 8.33301H7.3804V9.49967H6.21291V8.33301H4.75353V7.16634H7.96415C8.04199 7.16634 8.11009 7.13717 8.16847 7.07884C8.22684 7.02051 8.25603 6.9544 8.25603 6.88051C8.25603 6.80662 8.23268 6.74245 8.18598 6.68801C8.13928 6.63356 8.0809 6.59856 8.01085 6.58301H7.96415H5.62916C5.36452 6.58301 5.12129 6.5169 4.89947 6.38467C4.67764 6.25245 4.50057 6.07551 4.36826 5.85384C4.23594 5.63217 4.16978 5.38912 4.16978 5.12467C4.16978 4.86023 4.23594 4.61717 4.36826 4.39551C4.50057 4.17384 4.67764 3.9969 4.89947 3.86467C5.12129 3.73245 5.36452 3.66634 5.62916 3.66634H6.21291V2.49967H7.3804Z" fill="#3CB5B5"/>
</svg>
