<svg width="15" height="15" viewBox="0 0 15 15" fill="none" xmlns="http://www.w3.org/2000/svg">
<path d="M7.28901 13.3333C6.49596 13.3333 5.7379 13.1816 5.01483 12.8783C4.32285 12.5827 3.70668 12.1646 3.16632 11.6241C2.62596 11.0835 2.20805 10.4671 1.9126 9.77492C1.60938 9.05159 1.45776 8.29325 1.45776 7.49992C1.45776 6.70659 1.60938 5.94825 1.9126 5.22492C2.20805 4.5327 2.62596 3.91631 3.16632 3.37575C3.70668 2.8352 4.32285 2.41714 5.01483 2.12158C5.7379 1.81825 6.49596 1.66658 7.28901 1.66658C8.08206 1.66658 8.84013 1.81825 9.5632 2.12158C10.2552 2.41714 10.8713 2.8352 11.4117 3.37575C11.9521 3.91631 12.37 4.5327 12.6654 5.22492C12.9687 5.94825 13.1203 6.70659 13.1203 7.49992C13.1203 8.29325 12.9687 9.05159 12.6654 9.77492C12.37 10.4671 11.9521 11.0835 11.4117 11.6241C10.8713 12.1646 10.2552 12.5827 9.5632 12.8783C8.84013 13.1816 8.08206 13.3333 7.28901 13.3333ZM7.28901 12.1666C8.13649 12.1666 8.92176 11.9527 9.64484 11.5249C10.3446 11.1127 10.9005 10.5566 11.3126 9.85659C11.7402 9.13325 11.954 8.3477 11.954 7.49992C11.954 6.65214 11.7402 5.86659 11.3126 5.14325C10.9005 4.44325 10.3446 3.88714 9.64484 3.47492C8.92176 3.04714 8.13649 2.83325 7.28901 2.83325C6.44154 2.83325 5.65626 3.04714 4.93319 3.47492C4.23344 3.88714 3.67753 4.44325 3.26545 5.14325C2.83783 5.86659 2.62401 6.65214 2.62401 7.49992C2.62401 8.3477 2.83783 9.13325 3.26545 9.85659C3.67753 10.5566 4.23344 11.1127 4.93319 11.5249C5.65626 11.9527 6.44154 12.1666 7.28901 12.1666ZM5.24808 8.66659H8.45526C8.53301 8.66659 8.60105 8.63742 8.65936 8.57909C8.71767 8.52075 8.74683 8.4527 8.74683 8.37492C8.74683 8.29714 8.71767 8.22909 8.65936 8.17075C8.60105 8.11242 8.53301 8.08325 8.45526 8.08325H6.12276C5.85841 8.08325 5.61545 8.01714 5.39386 7.88492C5.17227 7.7527 4.99539 7.57575 4.86321 7.35409C4.73104 7.13242 4.66495 6.88936 4.66495 6.62492C4.66495 6.36047 4.73104 6.11742 4.86321 5.89575C4.99539 5.67409 5.17227 5.49714 5.39386 5.36492C5.61545 5.2327 5.85841 5.16658 6.12276 5.16658H6.70589V3.99992H7.87214V5.16658H9.32995V6.33325H6.12276C6.04501 6.33325 5.97698 6.36242 5.91867 6.42075C5.86036 6.47909 5.8312 6.54714 5.8312 6.62492C5.8312 6.7027 5.86036 6.77075 5.91867 6.82909C5.97698 6.88742 6.04501 6.91659 6.12276 6.91659H8.45526C8.71961 6.91659 8.96258 6.9827 9.18417 7.11492C9.40576 7.24714 9.58264 7.42409 9.71481 7.64575C9.84699 7.86742 9.91308 8.11047 9.91308 8.37492C9.91308 8.63936 9.84699 8.88242 9.71481 9.10409C9.58264 9.32575 9.40576 9.5027 9.18417 9.63492C8.96258 9.76714 8.71961 9.83325 8.45526 9.83325H7.87214V10.9999H6.70589V9.83325H5.24808V8.66659Z" fill="#6B7280"/>
</svg>
