<svg width="17" height="16" viewBox="0 0 17 16" fill="none" xmlns="http://www.w3.org/2000/svg">
<path d="M9.26901 14.1721C10.2841 14.0477 11.206 13.6953 12.0347 13.1149C12.8634 12.5345 13.5108 11.8038 13.9769 10.9228C14.4637 10.0107 14.7071 9.03646 14.7071 8C14.7071 6.87026 14.4223 5.82344 13.8526 4.85953C13.3036 3.92672 12.563 3.18565 11.6307 2.63633C10.6674 2.06628 9.6212 1.78125 8.49214 1.78125C7.36308 1.78125 6.31689 2.06628 5.35356 2.63633C4.42131 3.18565 3.68069 3.92672 3.1317 4.85953C2.56199 5.82344 2.27714 6.87026 2.27714 8C2.27714 9.03646 2.52056 10.0107 3.0074 10.9228C3.47353 11.8038 4.12092 12.5345 4.94959 13.1149C5.77826 13.6953 6.70015 14.0477 7.71526 14.1721V9.55469H6.16151V8H7.71526V6.70961C7.71526 6.22247 7.74116 5.84417 7.79295 5.57469C7.83438 5.34667 7.91207 5.12901 8.02601 4.92172C8.23318 4.53823 8.52839 4.24284 8.91165 4.03555C9.21204 3.88008 9.64709 3.78161 10.2168 3.74016C10.4758 3.71943 10.8072 3.74016 11.2112 3.80234V5.2793H10.8228C10.4706 5.2793 10.2064 5.28966 10.0304 5.31039C9.85426 5.33112 9.7196 5.3674 9.62638 5.41922C9.53315 5.47104 9.45805 5.54618 9.40108 5.64465C9.34411 5.74311 9.30786 5.85971 9.29232 5.99445C9.27678 6.12919 9.26901 6.36758 9.26901 6.70961V8H11.2112L10.8228 9.55469H9.26901V14.1721ZM8.49214 15.7734C7.43559 15.7734 6.42565 15.5713 5.46233 15.1671C4.54043 14.7733 3.71954 14.2162 2.99963 13.4958C2.27973 12.7755 1.72297 11.9541 1.32935 11.0316C0.925376 10.0677 0.723389 9.05719 0.723389 8C0.723389 6.94281 0.925376 5.93227 1.32935 4.96836C1.72297 4.04591 2.27973 3.22452 2.99963 2.50418C3.71954 1.78384 4.54043 1.22674 5.46233 0.832891C6.42565 0.428672 7.43559 0.226562 8.49214 0.226562C9.54869 0.226562 10.5586 0.428672 11.522 0.832891C12.4438 1.22674 13.2647 1.78384 13.9846 2.50418C14.7045 3.22452 15.2613 4.04591 15.6549 4.96836C16.0589 5.93227 16.2609 6.94281 16.2609 8C16.2609 9.05719 16.0589 10.0677 15.6549 11.0316C15.2613 11.9541 14.7045 12.7755 13.9846 13.4958C13.2647 14.2162 12.4438 14.7733 11.522 15.1671C10.5586 15.5713 9.54869 15.7734 8.49214 15.7734Z" fill="#374151"/>
</svg>
