<svg width="13" height="13" viewBox="0 0 13 13" fill="none" xmlns="http://www.w3.org/2000/svg">
<path d="M3.15837 8.97331H11.4621V1.97331H2.13207V9.78997L3.15837 8.97331ZM3.56656 10.14L0.96582 12.1816V1.38997C0.96582 1.23442 1.02219 1.09831 1.13493 0.981641C1.24766 0.864974 1.38567 0.806641 1.54895 0.806641H12.0452C12.2085 0.806641 12.3465 0.864974 12.4592 0.981641C12.572 1.09831 12.6283 1.23442 12.6283 1.38997V9.55664C12.6283 9.71997 12.572 9.85997 12.4592 9.97664C12.3465 10.0933 12.2085 10.1478 12.0452 10.14H3.56656ZM6.21395 7.22331H7.3802V8.38997H6.21395V7.22331ZM4.79112 4.20164C4.85332 3.89053 4.98161 3.61053 5.17598 3.36164C5.37036 3.11275 5.6075 2.91636 5.8874 2.77247C6.1673 2.62858 6.47052 2.55664 6.79707 2.55664C7.17027 2.56442 7.51237 2.6597 7.82337 2.84247C8.13437 3.02525 8.38123 3.2722 8.56394 3.58331C8.74665 3.89442 8.83801 4.2347 8.83801 4.60414C8.83801 4.97359 8.74665 5.31386 8.56394 5.62497C8.38123 5.93609 8.13437 6.18497 7.82337 6.37164C7.51237 6.55831 7.17027 6.65164 6.79707 6.65164H6.21395V5.47331H6.79707C7.0381 5.47331 7.24413 5.3897 7.41518 5.22247C7.58623 5.05525 7.67176 4.84914 7.67176 4.60414C7.67176 4.35914 7.58623 4.15303 7.41518 3.98581C7.24413 3.81859 7.0381 3.73497 6.79707 3.73497C6.58715 3.73497 6.40249 3.80109 6.2431 3.93331C6.08371 4.06553 5.9807 4.23275 5.93405 4.43497L4.79112 4.20164Z" fill="#3CB5B5"/>
</svg>
