<svg width="14" height="13" viewBox="0 0 14 13" fill="none" xmlns="http://www.w3.org/2000/svg">
<path d="M6.80822 1.6749C7.29126 1.24157 7.84509 0.956153 8.46972 0.818653C9.09434 0.681153 9.71063 0.695736 10.3186 0.862403C10.9516 1.0374 11.4991 1.35615 11.9614 1.81865C12.4236 2.28115 12.7421 2.82907 12.917 3.4624C13.0836 4.07074 13.0982 4.68532 12.9608 5.30615C12.8233 5.92699 12.5381 6.48324 12.105 6.9749L6.80822 12.2749L1.51141 6.9749C1.07834 6.48324 0.793097 5.92699 0.65568 5.30615C0.518263 4.68532 0.532838 4.07074 0.699404 3.4624C0.874298 2.82907 1.19494 2.28115 1.66132 1.81865C2.12771 1.35615 2.67321 1.0374 3.29784 0.862403C3.9058 0.695736 4.5221 0.681153 5.14672 0.818653C5.77134 0.956153 6.32518 1.24157 6.80822 1.6749ZM11.0681 2.6999C10.76 2.39157 10.4019 2.18115 9.9938 2.06865C9.58571 1.95615 9.17346 1.94574 8.75704 2.0374C8.34063 2.12907 7.97002 2.32074 7.64521 2.6124L6.80822 3.3624L5.97122 2.6124C5.65475 2.32074 5.28622 2.12907 4.86564 2.0374C4.44506 1.94574 4.03073 1.95615 3.62264 2.06865C3.21455 2.18115 2.85644 2.39157 2.54829 2.6999C2.24014 3.00824 2.02777 3.36657 1.91117 3.7749C1.79458 4.18324 1.78 4.59365 1.86745 5.00615C1.9549 5.41865 2.1402 5.7874 2.42336 6.1124L6.80822 10.5124L11.1931 6.1124C11.4762 5.7874 11.6615 5.41865 11.749 5.00615C11.8364 4.59365 11.8219 4.18324 11.7053 3.7749C11.5887 3.36657 11.3763 3.00824 11.0681 2.6999Z" fill="#3CB5B5"/>
</svg>
