<svg width="20" height="20" viewBox="0 0 20 20" fill="none" xmlns="http://www.w3.org/2000/svg">
<path d="M5.47073 14.6641C5.6261 14.208 5.90578 13.8349 6.30975 13.5447C6.71373 13.2545 7.16431 13.1094 7.66151 13.1094C8.15871 13.1094 8.6093 13.2545 9.01328 13.5447C9.41725 13.8349 9.69693 14.208 9.8523 14.6641H17.7609V16.2188H9.8523C9.69693 16.6748 9.41725 17.0479 9.01328 17.3381C8.6093 17.6283 8.15871 17.7734 7.66151 17.7734C7.16431 17.7734 6.71373 17.6283 6.30975 17.3381C5.90578 17.0479 5.6261 16.6748 5.47073 16.2188H2.22339V14.6641H5.47073ZM10.132 9.22266C10.2874 8.76661 10.567 8.39349 10.971 8.10328C11.375 7.81307 11.8256 7.66797 12.3228 7.66797C12.82 7.66797 13.2706 7.81307 13.6745 8.10328C14.0785 8.39349 14.3582 8.76661 14.5136 9.22266H17.7609V10.7773H14.5136C14.3582 11.2334 14.0785 11.6065 13.6745 11.8967C13.2706 12.1869 12.82 12.332 12.3228 12.332C11.8256 12.332 11.375 12.1869 10.971 11.8967C10.567 11.6065 10.2874 11.2334 10.132 10.7773H2.22339V9.22266H10.132ZM5.47073 3.78125C5.6261 3.32521 5.90578 2.95208 6.30975 2.66187C6.71373 2.37167 7.16431 2.22656 7.66151 2.22656C8.15871 2.22656 8.6093 2.37167 9.01328 2.66187C9.41725 2.95208 9.69693 3.32521 9.8523 3.78125H17.7609V5.33594H9.8523C9.69693 5.79198 9.41725 6.1651 9.01328 6.45531C8.6093 6.74552 8.15871 6.89062 7.66151 6.89062C7.16431 6.89062 6.71373 6.74552 6.30975 6.45531C5.90578 6.1651 5.6261 5.79198 5.47073 5.33594H2.22339V3.78125H5.47073ZM7.66151 5.33594C7.87904 5.33594 8.0629 5.26079 8.2131 5.11051C8.36329 4.96022 8.43839 4.77625 8.43839 4.55859C8.43839 4.34094 8.36329 4.15697 8.2131 4.00668C8.0629 3.85639 7.87904 3.78125 7.66151 3.78125C7.44399 3.78125 7.26013 3.85639 7.10993 4.00668C6.95974 4.15697 6.88464 4.34094 6.88464 4.55859C6.88464 4.77625 6.95974 4.96022 7.10993 5.11051C7.26013 5.26079 7.44399 5.33594 7.66151 5.33594ZM12.3228 10.7773C12.5403 10.7773 12.7241 10.7022 12.8743 10.5519C13.0245 10.4016 13.0996 10.2177 13.0996 10C13.0996 9.78234 13.0245 9.59837 12.8743 9.44809C12.7241 9.2978 12.5403 9.22266 12.3228 9.22266C12.1052 9.22266 11.9214 9.2978 11.7712 9.44809C11.621 9.59837 11.5459 9.78234 11.5459 10C11.5459 10.2177 11.621 10.4016 11.7712 10.5519C11.9214 10.7022 12.1052 10.7773 12.3228 10.7773ZM7.66151 16.2188C7.87904 16.2188 8.0629 16.1436 8.2131 15.9933C8.36329 15.843 8.43839 15.6591 8.43839 15.4414C8.43839 15.2237 8.36329 15.0398 8.2131 14.8895C8.0629 14.7392 7.87904 14.6641 7.66151 14.6641C7.44399 14.6641 7.26013 14.7392 7.10993 14.8895C6.95974 15.0398 6.88464 15.2237 6.88464 15.4414C6.88464 15.6591 6.95974 15.843 7.10993 15.9933C7.26013 16.1436 7.44399 16.2188 7.66151 16.2188Z" fill="#6B7280"/>
</svg>
