<svg width="20" height="20" viewBox="0 0 20 20" fill="none" xmlns="http://www.w3.org/2000/svg">
<path d="M5.14356 15.0013C5.48675 14.0303 6.41279 13.3346 7.5013 13.3346C8.5898 13.3346 9.51589 14.0303 9.85905 15.0013H18.3346V16.668H9.85905C9.51589 17.639 8.5898 18.3346 7.5013 18.3346C6.41279 18.3346 5.48675 17.639 5.14356 16.668H1.66797V15.0013H5.14356ZM10.1436 9.16797C10.4867 8.19698 11.4128 7.5013 12.5013 7.5013C13.5898 7.5013 14.5159 8.19698 14.8591 9.16797H18.3346V10.8346H14.8591C14.5159 11.8056 13.5898 12.5013 12.5013 12.5013C11.4128 12.5013 10.4867 11.8056 10.1436 10.8346H1.66797V9.16797H10.1436ZM5.14356 3.33464C5.48675 2.36364 6.41279 1.66797 7.5013 1.66797C8.5898 1.66797 9.51589 2.36364 9.85905 3.33464H18.3346V5.0013H9.85905C9.51589 5.97229 8.5898 6.66797 7.5013 6.66797C6.41279 6.66797 5.48675 5.97229 5.14356 5.0013H1.66797V3.33464H5.14356ZM7.5013 5.0013C7.96154 5.0013 8.33464 4.6282 8.33464 4.16797C8.33464 3.70774 7.96154 3.33464 7.5013 3.33464C7.04107 3.33464 6.66797 3.70774 6.66797 4.16797C6.66797 4.6282 7.04107 5.0013 7.5013 5.0013ZM12.5013 10.8346C12.9616 10.8346 13.3346 10.4616 13.3346 10.0013C13.3346 9.54105 12.9616 9.16797 12.5013 9.16797C12.0411 9.16797 11.668 9.54105 11.668 10.0013C11.668 10.4616 12.0411 10.8346 12.5013 10.8346ZM7.5013 16.668C7.96154 16.668 8.33464 16.2949 8.33464 15.8346C8.33464 15.3744 7.96154 15.0013 7.5013 15.0013C7.04107 15.0013 6.66797 15.3744 6.66797 15.8346C6.66797 16.2949 7.04107 16.668 7.5013 16.668Z" fill="white"/>
</svg>
