<svg width="14" height="14" viewBox="0 0 14 14" fill="none" xmlns="http://www.w3.org/2000/svg">
<path d="M6.99224 12.4819C6.29864 12.4819 5.65604 12.3084 5.06444 11.9613C4.48644 11.6278 4.02744 11.1719 3.68744 10.5934C3.34064 9.9945 3.16724 9.34798 3.16724 8.65381C3.16724 8.11617 3.27604 7.60235 3.49364 7.11235C3.69764 6.64277 3.99004 6.22763 4.37084 5.86693L4.61564 5.65256C5.00324 5.31228 5.29564 5.02305 5.49284 4.78485C5.84644 4.36291 6.10484 3.91714 6.26804 3.44756C6.47884 2.85548 6.55024 2.21235 6.48224 1.51818C7.31184 2.06943 7.96464 2.58325 8.44064 3.05964C8.99144 3.61089 9.35864 4.15874 9.54224 4.70318C9.73944 5.29527 9.72244 5.90777 9.49124 6.54068C9.24644 7.20763 8.75344 7.912 8.01224 8.65381C8.25704 8.65381 8.45764 8.6402 8.61404 8.61298C8.88604 8.55853 9.16484 8.44964 9.45044 8.28631C9.79724 8.08214 10.1678 7.7861 10.5622 7.39818C10.7322 7.88818 10.8172 8.30673 10.8172 8.65381C10.8172 9.34798 10.6438 9.9945 10.297 10.5934C9.95704 11.1719 9.49804 11.6278 8.92004 11.9613C8.32844 12.3084 7.68584 12.4819 6.99224 12.4819Z" fill="#F97316"/>
</svg>
