<svg width="16" height="21" viewBox="0 0 16 21" fill="none" xmlns="http://www.w3.org/2000/svg">
<path d="M8.25292 4.70866C8.36177 4.70866 8.46284 4.73783 8.55614 4.79616C8.64944 4.85449 8.7233 4.93421 8.77773 5.03533L9.19758 5.87533H12.6963C12.8596 5.87533 12.9976 5.93171 13.1103 6.04449C13.2231 6.15727 13.2795 6.29533 13.2795 6.45866V12.8753C13.2795 13.0387 13.2231 13.1767 13.1103 13.2895C12.9976 13.4023 12.8596 13.4587 12.6963 13.4587H8.97599C8.86714 13.4587 8.76607 13.4295 8.67277 13.3712C8.57947 13.3128 8.5056 13.2331 8.45118 13.132L8.03133 12.292H3.94945V15.792H2.7832V4.70866H8.25292ZM7.89138 5.87533H3.94945V11.1253H8.7544L9.33753 12.292H12.1132V7.04199H8.4745L7.89138 5.87533Z" fill="#EF4444"/>
</svg>
