<svg width="21" height="20" viewBox="0 0 21 20" fill="none" xmlns="http://www.w3.org/2000/svg">
<path d="M8.22377 9.67334H9.90182C10.5337 9.67334 11.1189 9.82881 11.6576 10.1397C12.1962 10.4507 12.6209 10.8756 12.9316 11.4146C13.2424 11.9535 13.3978 12.5391 13.3978 13.1714H7.95963V13.9487H14.1746V13.1714C14.1746 12.3422 13.9467 11.5649 13.491 10.8394H15.7284C16.4949 10.8394 17.1915 11.0415 17.8182 11.4457C18.4449 11.8499 18.9187 12.3837 19.2399 13.047C18.3076 14.2908 17.1371 15.265 15.7284 15.9698C14.2679 16.6953 12.7141 17.0581 11.0671 17.0581C8.9851 17.0581 7.1724 16.6383 5.629 15.7988V8.55396C6.59233 8.69907 7.45725 9.07219 8.22377 9.67334ZM4.07525 7.72998C4.27206 7.72998 4.44556 7.79476 4.59576 7.92432C4.74596 8.05387 4.83141 8.21712 4.85213 8.41404V8.50732V15.5034C4.85213 15.7211 4.77703 15.905 4.62684 16.0553C4.47664 16.2056 4.29278 16.2808 4.07525 16.2808H2.5215C2.30398 16.2808 2.12012 16.2056 1.96992 16.0553C1.81973 15.905 1.74463 15.7211 1.74463 15.5034V8.50732C1.74463 8.28967 1.81973 8.1057 1.96992 7.95541C2.12012 7.80512 2.30398 7.72998 2.5215 7.72998H4.07525ZM11.5643 3.51678L11.844 3.78107L12.1237 3.51678C12.3723 3.26803 12.6623 3.0996 12.9938 3.0115C13.3252 2.9234 13.6593 2.9234 13.9959 3.0115C14.3326 3.0996 14.6252 3.26803 14.8738 3.51678C15.1224 3.76553 15.2881 4.05574 15.371 4.3874C15.4539 4.71907 15.4539 5.05074 15.371 5.3824C15.2881 5.71407 15.1224 6.00428 14.8738 6.25303L11.844 9.28467L8.82973 6.25303C8.58113 6.00428 8.41281 5.71407 8.32476 5.3824C8.23671 5.05074 8.23671 4.71907 8.32476 4.3874C8.41281 4.05574 8.58113 3.76553 8.82973 3.51678C9.07833 3.26803 9.36836 3.0996 9.69983 3.0115C10.0313 2.9234 10.3628 2.9234 10.6942 3.0115C11.0257 3.0996 11.3157 3.26803 11.5643 3.51678Z" fill="#F97316"/>
</svg>
