<svg width="13" height="13" viewBox="0 0 13 13" fill="none" xmlns="http://www.w3.org/2000/svg">
<path d="M7.3802 11.1663V12.333H6.21395V11.1663H1.54895C1.38567 11.1663 1.24766 11.11 1.13493 10.9972C1.02219 10.8844 0.96582 10.7463 0.96582 10.583V1.24967C0.96582 1.08634 1.02219 0.948285 1.13493 0.835507C1.24766 0.72273 1.38567 0.666341 1.54895 0.666341H5.0477C5.3898 0.666341 5.71246 0.736341 6.01568 0.876341C6.31891 1.01634 6.57937 1.21079 6.79707 1.45967C7.01477 1.21079 7.27523 1.01634 7.57846 0.876341C7.88168 0.736341 8.20435 0.666341 8.54645 0.666341H12.0452C12.2085 0.666341 12.3465 0.72273 12.4592 0.835507C12.572 0.948285 12.6283 1.08634 12.6283 1.24967V10.583C12.6283 10.7463 12.572 10.8844 12.4592 10.9972C12.3465 11.11 12.2085 11.1663 12.0452 11.1663H7.3802ZM11.4621 9.99967V1.83301H8.54645C8.33652 1.83301 8.14215 1.88551 7.96332 1.99051C7.7845 2.09551 7.6426 2.23745 7.53764 2.41634C7.43268 2.59523 7.3802 2.78967 7.3802 2.99967V9.99967H11.4621ZM6.21395 9.99967V2.99967C6.21395 2.78967 6.16146 2.59523 6.0565 2.41634C5.95154 2.23745 5.80965 2.09551 5.63082 1.99051C5.452 1.88551 5.25762 1.83301 5.0477 1.83301H2.13207V9.99967H6.21395Z" fill="#3CB5B5"/>
</svg>
