<svg width="25" height="24" viewBox="0 0 25 24" fill="none" xmlns="http://www.w3.org/2000/svg">
<path d="M17.2599 15.4668L20.5849 18.7939L19.4818 19.8977L16.1567 16.5707C15.5456 17.0578 14.8775 17.4309 14.1524 17.69C13.3859 17.9595 12.5987 18.0943 11.7907 18.0943C10.527 18.0943 9.35132 17.7781 8.26369 17.1459C7.20714 16.524 6.37329 15.6845 5.76215 14.6273C5.11994 13.539 4.79883 12.3627 4.79883 11.0982C4.79883 9.83369 5.11994 8.65731 5.76215 7.56903C6.37329 6.51185 7.20714 5.6775 8.26369 5.06599C9.35132 4.42338 10.527 4.10208 11.7907 4.10208C13.0544 4.10208 14.2301 4.42338 15.3177 5.06599C16.3743 5.6775 17.2133 6.51185 17.8348 7.56903C18.4666 8.65731 18.7826 9.83369 18.7826 11.0982C18.7826 11.9066 18.6479 12.6943 18.3786 13.4613C18.1196 14.1868 17.7467 14.8553 17.2599 15.4668ZM15.6906 14.8916C16.1775 14.3941 16.5555 13.8241 16.8249 13.1815C17.0942 12.5181 17.2288 11.8237 17.2288 11.0982C17.2288 10.1135 16.9802 9.19627 16.483 8.34638C16.0065 7.52757 15.3591 6.87979 14.5408 6.40302C13.6915 5.90552 12.7747 5.65677 11.7907 5.65677C10.8067 5.65677 9.88995 5.90552 9.04057 6.40302C8.22226 6.87979 7.57486 7.52757 7.09838 8.34638C6.60118 9.19627 6.35258 10.1135 6.35258 11.0982C6.35258 12.0828 6.60118 13.0001 7.09838 13.85C7.57486 14.6688 8.22226 15.3166 9.04057 15.7933C9.88995 16.2908 10.8067 16.5396 11.7907 16.5396C12.5158 16.5396 13.2098 16.4048 13.8727 16.1354C14.5149 15.8659 15.0847 15.4876 15.5819 15.0004L15.6906 14.8916Z" fill="#6B7280"/>
</svg>
