<svg width="20" height="20" viewBox="0 0 20 20" fill="none" xmlns="http://www.w3.org/2000/svg">
<path d="M17.4477 1.609L17.4477 1.60902C17.7126 1.35324 18.1346 1.36056 18.3904 1.62538M17.4477 1.609L18.3904 1.62538M17.4477 1.609L17.4446 1.61206L15.8889 3.1678C15.888 3.1684 15.8871 3.16901 15.8862 3.16963C15.8741 3.17781 15.8583 3.1898 15.8419 3.20649L15.8418 3.20668C15.8265 3.22228 15.8154 3.2373 15.8076 3.24912L7.72198 11.3347L17.4477 1.609ZM18.3904 1.62538C18.6399 1.88374 18.64 2.29336 18.3903 2.5517L18.3874 2.55478L18.3873 2.55476L17.2648 3.67726M18.3904 1.62538L17.2648 3.67726M17.2648 3.67726L17.9707 4.38305L17.9708 4.38311C18.231 4.64352 18.2309 5.06559 17.9706 5.32591L17.9706 5.32596C17.8456 5.45081 17.6762 5.52105 17.4995 5.5211M17.2648 3.67726L17.028 5.32581C17.1529 5.451 17.3226 5.5213 17.4995 5.5211M17.4995 5.5211C17.4995 5.5211 17.4994 5.5211 17.4993 5.5211V5.2711L17.4997 5.5211C17.4996 5.5211 17.4996 5.5211 17.4995 5.5211ZM16.3221 4.61996L17.0277 5.32552L16.3221 4.61996ZM16.3221 4.61996L14.908 6.03407L16.7923 7.91906C17.0526 8.17943 17.0526 8.60155 16.7922 8.8619L16.7922 8.86193C16.6673 8.98673 16.498 9.05698 16.3213 9.05707C16.3212 9.05707 16.3211 9.05707 16.321 9.05707V8.80707L16.3221 4.61996ZM5.41602 17.2501C3.94327 17.2501 2.74935 16.0562 2.74935 14.5834C2.74935 13.1108 3.94311 11.9169 5.41572 11.9168C6.88788 11.9185 8.08092 13.1116 8.08268 14.5837C8.08252 16.0563 6.88867 17.2501 5.41602 17.2501Z" fill="#1E1926" stroke="#1E1926" stroke-width="0.5"/>
</svg>
