<svg width="10" height="9" viewBox="0 0 10 9" fill="none" xmlns="http://www.w3.org/2000/svg">
<path d="M8.20312 0.9375V1.6875C8.20312 2.8475 7.99813 3.835 7.58812 4.65C7.20812 5.41 6.67062 5.985 5.97563 6.375C5.31562 6.75 4.55813 6.9375 3.70312 6.9375H2.29312C2.23312 7.2775 2.20312 7.6525 2.20312 8.0625H1.45312C1.45312 7.5525 1.49563 7.085 1.58062 6.66C1.49563 6.175 1.45312 5.5175 1.45312 4.6875C1.45312 4.1775 1.55062 3.69 1.74562 3.225C1.93562 2.78 2.20437 2.38375 2.55187 2.03625C2.89937 1.68875 3.29562 1.42 3.74062 1.23C4.20563 1.035 4.69313 0.9375 5.20312 0.9375C5.35312 0.9375 5.58812 0.9625 5.90812 1.0125C6.16812 1.0525 6.37313 1.0775 6.52312 1.0875C6.77812 1.1075 7.02812 1.11 7.27312 1.095C7.56812 1.07 7.87812 1.0175 8.20312 0.9375ZM5.20312 1.6875C4.65812 1.6875 4.15313 1.825 3.68812 2.1C3.23812 2.365 2.88063 2.7225 2.61563 3.1725C2.34062 3.6375 2.20312 4.1425 2.20312 4.6875V5.0775C2.43312 4.7175 2.72312 4.3825 3.07313 4.0725C3.40812 3.7775 3.80562 3.5 4.26562 3.24L4.64062 3.885C4.08562 4.205 3.63812 4.5425 3.29812 4.8975C2.93813 5.2725 2.67062 5.7025 2.49563 6.1875H3.70312C4.45812 6.1875 5.11437 6.0225 5.67188 5.6925C6.22937 5.3625 6.65812 4.8775 6.95813 4.2375C7.27312 3.5725 7.43812 2.77 7.45312 1.83C7.20312 1.855 6.94812 1.8625 6.68812 1.8525C6.45312 1.8375 6.18062 1.8075 5.87063 1.7625C5.65062 1.7275 5.50312 1.70625 5.42812 1.69875C5.35312 1.69125 5.27812 1.6875 5.20312 1.6875Z" fill="white"/>
</svg>
