<svg width="13" height="11" viewBox="0 0 13 11" fill="none" xmlns="http://www.w3.org/2000/svg">
<path d="M0.96582 3.75C0.96582 3.11222 1.12521 2.52111 1.44398 1.97667C1.75498 1.45556 2.17095 1.03944 2.69187 0.728333C3.23612 0.409445 3.82702 0.25 4.46457 0.25H9.12957C9.75935 0.25 10.3464 0.409445 10.8906 0.728333C11.4193 1.03944 11.8392 1.45944 12.1502 1.98833C12.4689 2.53278 12.6283 3.12 12.6283 3.75V10.75H4.46457C3.8348 10.75 3.24778 10.5906 2.70353 10.2717C2.17483 9.96056 1.75498 9.54056 1.44398 9.01167C1.12521 8.46722 0.96582 7.88 0.96582 7.25V3.75ZM11.4621 9.58333V3.75C11.4621 3.33 11.3571 2.94111 11.1472 2.58333C10.9373 2.22556 10.6535 1.94167 10.2958 1.73167C9.93817 1.52167 9.54942 1.41667 9.12957 1.41667H4.46457C4.04472 1.41667 3.65597 1.52167 3.29832 1.73167C2.94067 1.94167 2.65688 2.22361 2.44696 2.5775C2.23703 2.93139 2.13207 3.32222 2.13207 3.75V7.25C2.13207 7.67 2.23703 8.05889 2.44696 8.41667C2.65688 8.77444 2.94067 9.05833 3.29832 9.26833C3.65597 9.47833 4.04472 9.58333 4.46457 9.58333H11.4621ZM7.96332 4.91667H9.12957V6.08333H7.96332V4.91667ZM4.46457 4.91667H5.63082V6.08333H4.46457V4.91667Z" fill="#3CB5B5"/>
</svg>
