<svg width="21" height="22" viewBox="0 0 21 22" fill="none" xmlns="http://www.w3.org/2000/svg">
<path d="M10.6954 15.69L13.576 12.7966C14.1047 12.2755 14.4624 11.6611 14.649 10.9533C14.8278 10.2611 14.8278 9.56885 14.649 8.87663C14.4624 8.16885 14.1067 7.55246 13.5819 7.02746C13.057 6.50246 12.4409 6.14663 11.7334 5.95996C11.0414 5.78107 10.3494 5.78107 9.65743 5.95996C8.9499 6.14663 8.33373 6.50246 7.80892 7.02746C7.28411 7.55246 6.9284 8.16885 6.7418 8.87663C6.56298 9.56885 6.56298 10.2611 6.7418 10.9533C6.9284 11.6611 7.28605 12.2755 7.81475 12.7966L10.6954 15.69ZM10.6954 17.335L6.98672 13.625C6.31029 12.9561 5.85545 12.1627 5.6222 11.245C5.38895 10.3583 5.38895 9.47163 5.6222 8.58496C5.85545 7.66718 6.30835 6.87191 6.98088 6.19913C7.65342 5.52635 8.44842 5.06941 9.36587 4.82829C10.2522 4.60274 11.1386 4.60274 12.0249 4.82829C12.9424 5.06941 13.7374 5.52635 14.4099 6.19913C15.0824 6.87191 15.5353 7.66718 15.7686 8.58496C16.0018 9.47163 16.0018 10.3583 15.7686 11.245C15.5353 12.1627 15.0805 12.9561 14.4041 13.625L10.6954 17.335ZM10.6954 11.0816C10.9053 11.0816 11.0997 11.0291 11.2785 10.9241C11.4573 10.8191 11.5992 10.6772 11.7042 10.4983C11.8092 10.3194 11.8616 10.125 11.8616 9.91496C11.8616 9.70496 11.8092 9.51052 11.7042 9.33163C11.5992 9.15274 11.4573 9.01079 11.2785 8.90579C11.0997 8.80079 10.9053 8.74829 10.6954 8.74829C10.4855 8.74829 10.2911 8.80079 10.1123 8.90579C9.93344 9.01079 9.79155 9.15274 9.68658 9.33163C9.58162 9.51052 9.52914 9.70496 9.52914 9.91496C9.52914 10.125 9.58162 10.3194 9.68658 10.4983C9.79155 10.6772 9.93344 10.8191 10.1123 10.9241C10.2911 11.0291 10.4855 11.0816 10.6954 11.0816ZM10.6954 12.2483C10.2755 12.2483 9.88679 12.1433 9.52914 11.9333C9.17149 11.7233 8.8877 11.4394 8.67778 11.0816C8.46785 10.7238 8.36289 10.333 8.36289 9.90913C8.36289 9.48524 8.46785 9.09635 8.67778 8.74246C8.8877 8.38857 9.17149 8.10663 9.52914 7.89663C9.88679 7.68663 10.2755 7.58163 10.6954 7.58163C11.1152 7.58163 11.504 7.68663 11.8616 7.89663C12.2193 8.10663 12.5031 8.38857 12.713 8.74246C12.9229 9.09635 13.0279 9.48524 13.0279 9.90913C13.0279 10.333 12.9229 10.7238 12.713 11.0816C12.5031 11.4394 12.2193 11.7233 11.8616 11.9333C11.504 12.1433 11.1152 12.2483 10.6954 12.2483Z" fill="#6B7280"/>
</svg>
