<svg width="113" height="35" viewBox="0 0 113 35" fill="none" xmlns="http://www.w3.org/2000/svg">
<g clip-path="url(#clip0_16926_8715)">
<path d="M8.57236 3.3316C12.9091 1.80459 16.4518 1.07161 19.231 1.19378C22.0102 1.31593 23.4456 2.23215 23.5982 3.97296C23.7204 5.71377 22.4988 6.47728 19.9029 6.29404C17.3069 6.1108 14.5583 6.62999 11.6264 7.82107C8.69452 9.04269 7.68668 10.6308 8.66398 12.6159C9.64128 14.601 11.6264 17.136 14.711 20.19C17.765 23.2746 18.8645 26.176 17.9789 28.8941C17.0932 31.6121 14.3445 33.2614 9.67182 33.8722C4.99911 34.4525 2.1283 34.1471 1.05939 32.8949C-0.00953255 31.6427 -0.192775 30.757 0.509657 30.1767C1.21208 29.5965 2.55588 29.4133 4.47993 29.6576C6.43452 29.8713 7.99209 29.6576 9.18316 28.9856C10.3742 28.3137 10.8018 27.5502 10.527 26.7257C10.2215 25.8705 8.20587 23.9464 4.3883 20.923C0.601278 17.8383 -0.742506 14.5399 0.387494 10.9667C1.51749 7.42404 4.26614 4.85863 8.57236 3.3316Z" fill="#084C3F"/>
<path d="M39.9067 11.7007C40.7007 12.1893 41.0672 12.739 41.0061 13.3804L40.9757 13.5331C40.9451 13.8995 40.2426 15.7931 38.8989 19.2136L38.8073 19.9161C38.8684 20.8934 39.5096 21.4737 40.7618 21.6263C42.6248 21.9928 43.541 22.3898 43.5716 22.7563C43.6326 22.7563 43.6326 22.848 43.6326 23.0006C43.5105 24.2223 41.4948 24.9553 37.5856 25.2302C35.2951 24.5888 33.9818 23.8863 33.7069 23.1228C29.0037 25.6882 25.5526 26.8793 23.3538 26.635L22.5596 26.5433C20.8188 26.3601 19.75 25.3217 19.3529 23.3977C19.2919 22.9396 19.2613 22.5426 19.3223 22.2066C19.6277 18.9999 22.6513 15.9459 28.3624 13.0444C31.447 11.8229 34.3483 11.3647 37.097 11.6396C38.0132 11.9144 38.4713 12.0672 38.4713 12.0977C39.0821 11.7923 39.5707 11.6396 39.9067 11.7007ZM25.8886 21.1377L26.4383 21.1988C28.1486 21.382 30.3781 20.7407 33.1572 19.3664L33.1878 19.1221C33.31 18.6639 33.9208 17.4423 34.9591 15.4266C33.1572 15.5182 31.3248 16.0985 29.523 17.1674C28.5151 17.6256 27.7516 18.2975 27.2019 19.1221C26.8048 19.3358 26.3772 20.0077 25.8886 21.1377Z" fill="#084C3F"/>
<path d="M52.5201 0.0332031H52.6423C53.192 0.0332031 53.7417 1.10212 54.2914 3.2705C54.8412 5.40834 53.1615 12.5548 49.2522 24.6489L47.8474 29.9324C47.8779 30.4821 47.9085 30.9403 47.9085 31.2761L47.8779 31.3983C47.8779 32.3757 47.3893 32.8643 46.4425 32.8643C45.0377 32.8643 44.2131 30.2683 43.9688 25.1069C44.0298 21.2589 45.282 16.2197 47.7253 9.98942C50.2907 4.67536 51.665 1.46861 51.8483 0.399689C52.0315 0.155366 52.2758 0.0332031 52.5201 0.0332031Z" fill="#084C3F"/>
<path d="M64.5238 11.8225C68.0054 11.7614 69.9295 12.25 70.2655 13.2273C70.6013 14.2352 70.6013 15.2735 70.2655 16.373C69.9295 17.4725 69.0744 18.7246 67.6389 20.0684C66.234 21.4427 63.4855 22.4506 59.4236 23.1224C59.4846 25.016 61.0727 25.474 64.1878 24.5884C67.303 23.6721 69.3798 23.1224 70.3876 22.9087C71.3955 22.6949 71.7924 23.0003 71.6398 23.8249C71.4565 24.6495 69.8684 25.8406 66.8143 27.3982C63.7909 28.9557 60.4925 29.3222 56.9803 28.467C53.4681 27.6119 52.216 24.9549 53.2238 20.4959C54.2622 16.037 58.0186 13.1357 64.5238 11.8225ZM59.1486 19.9768L59.393 20.6181C64.5543 18.7246 66.8754 17.2281 66.3257 16.0676C65.776 14.907 64.6154 14.7544 62.8135 15.6095C61.0422 16.4646 59.8205 17.9 59.1486 19.9768Z" fill="#084C3F"/>
<path d="M76.6784 24.7718C75.8844 27.1844 75.3042 28.8031 74.9376 29.5972C74.2657 30.3606 73.5022 30.8494 72.6777 31.0631C72.3112 31.1853 72.0363 31.2463 71.8836 31.2463C70.9369 31.2463 70.3566 30.605 70.0817 29.2918C69.9595 28.4366 69.8984 27.948 69.8984 27.8258C69.8984 26.5126 70.7231 23.7639 72.3417 19.5798C73.9604 15.3959 75.5179 11.8532 76.9533 8.89069C77.7169 7.45529 78.9385 5.6534 80.5877 3.48502C81.4428 2.69097 81.9925 2.29395 82.2674 2.29395C82.7255 2.38556 82.9393 2.59935 82.9393 2.9353V3.94313C82.9393 5.71448 82.0536 8.79907 80.2823 13.1663C80.2517 13.2274 80.0991 13.6855 79.8242 14.5102L79.1523 16.6785C80.7403 15.1516 82.1757 13.9909 83.4585 13.1969C84.4663 12.5861 85.8406 11.9447 87.5814 11.2118C88.3755 11.0285 88.8336 10.998 88.9863 11.0896C89.2 11.3034 89.2306 11.5172 89.1085 11.731L88.7114 12.3723C88.0091 13.4718 86.2987 14.9988 83.6112 17.045C83.5501 17.0756 83.3058 17.2893 82.8171 17.6864L79.8852 20.6794C79.8242 20.7404 79.7631 20.8015 79.702 20.8626C80.4045 21.6566 81.1985 22.5728 82.0842 23.6113C85.5963 27.8564 88.4366 30.7883 90.6355 32.4374L91.0019 33.1704C91.0936 33.4147 91.0325 33.659 90.7576 33.9033C90.5744 33.995 90.0553 33.9339 89.2001 33.6896C87.0623 33.1093 85.2909 32.3153 83.825 31.3074C82.359 30.2996 80.4349 28.6198 77.9917 26.2988C77.503 25.7185 77.0755 25.2299 76.6784 24.7718Z" fill="#084C3F"/>
<path d="M98.1779 28.8941C96.6814 29.0162 95.1543 28.8636 93.5663 28.4971C90.0541 27.6725 88.8019 25.0154 89.8097 20.526C90.8176 16.0366 94.5741 13.1658 101.079 11.8525H101.171C102.881 11.5776 104.683 11.6387 106.546 12.0051C110.089 12.7382 111.402 15.3646 110.516 19.8847C109.631 24.3741 105.966 27.3976 99.4911 28.8941C99.033 28.8941 98.5748 28.8941 98.1779 28.8941ZM99.8576 25.4431C102.851 24.5878 104.561 22.8776 104.958 20.3427C105.355 17.7774 104.744 16.3114 103.125 15.8838C102.27 15.6701 101.446 15.6395 100.621 15.7923H100.591C97.5671 16.5252 95.8263 18.1743 95.3682 20.7093C94.91 23.2441 95.4903 24.7711 97.109 25.2292C97.8419 25.4431 98.5748 25.5346 99.2468 25.4735C99.4301 25.4431 99.6133 25.4431 99.8576 25.4431Z" fill="#084C3F"/>
<path d="M107.647 9.0432L107.066 9.16537C106.792 9.07374 106.639 8.92104 106.608 8.73779V8.67671C106.517 8.12698 107.372 5.83644 109.143 1.8051C109.571 0.919418 109.968 0.43077 110.365 0.339148C110.334 0.247526 110.609 0.155905 111.159 0.033743C112.014 -0.0273381 112.533 0.247526 112.655 0.827797L112.869 1.74401C113.021 2.47699 112.625 3.75969 111.648 5.62266C110.609 6.75266 109.54 7.72995 108.38 8.52401C108.135 8.58509 107.891 8.76833 107.647 9.0432Z" fill="#084C3F"/>
<path d="M34.3786 8.49378C33.2487 7.69973 32.1491 6.72243 31.1108 5.59243C30.1335 3.72945 29.7058 2.41621 29.8891 1.71378L30.1029 0.797565C30.2557 0.217295 30.7443 -0.0270293 31.5994 0.00351123C32.1491 0.125673 32.424 0.247836 32.3934 0.308917C32.7599 0.400539 33.1876 0.889187 33.6151 1.77486C35.417 5.83675 36.2415 8.12729 36.15 8.64649V8.70756C36.0889 8.8908 35.9361 9.04351 35.6918 9.13513L35.1116 9.01297C34.8978 8.76864 34.6535 8.58539 34.3786 8.49378Z" fill="#084C3F"/>
<path d="M61.3786 8.49378C60.2485 7.69973 59.1491 6.72243 58.1108 5.59243C57.1334 3.72945 56.7059 2.41621 56.8891 1.71378L57.1029 0.797565C57.2556 0.217295 57.7443 -0.0270293 58.5994 0.00351123C59.1491 0.125673 59.424 0.247836 59.3934 0.308917C59.7599 0.400539 60.1875 0.889187 60.615 1.77486C62.417 5.83675 63.2415 8.12729 63.15 8.64649V8.70756C63.0889 8.8908 62.9361 9.04351 62.6918 9.13513L62.1115 9.01297C61.8978 8.76864 61.6535 8.58539 61.3786 8.49378Z" fill="#084C3F"/>
</g>
<defs>
<clipPath id="clip0_16926_8715">
<rect width="112.9" height="35" fill="white"/>
</clipPath>
</defs>
</svg>
