<svg width="113" height="35" viewBox="0 0 113 35" fill="none" xmlns="http://www.w3.org/2000/svg">
<g clip-path="url(#clip0_16926_5955)">
<path d="M8.57236 3.33197C12.9091 1.80495 16.4518 1.07198 19.231 1.19414C22.0102 1.3163 23.4456 2.23252 23.5982 3.97332C23.7204 5.71414 22.4988 6.47765 19.9029 6.29441C17.3069 6.11116 14.5583 6.63036 11.6264 7.82144C8.69452 9.04305 7.68668 10.6312 8.66398 12.6163C9.64128 14.6014 11.6264 17.1363 14.711 20.1904C17.765 23.2749 18.8645 26.1763 17.9789 28.8944C17.0932 31.6125 14.3445 33.2617 9.67182 33.8725C4.99911 34.4528 2.1283 34.1474 1.05939 32.8953C-0.00953255 31.6431 -0.192775 30.7574 0.509657 30.1771C1.21208 29.5969 2.55588 29.4136 4.47993 29.658C6.43452 29.8717 7.99209 29.658 9.18316 28.986C10.3742 28.3141 10.8018 27.5506 10.527 26.7261C10.2215 25.8708 8.20587 23.9468 4.3883 20.9233C0.601278 17.8387 -0.742506 14.5403 0.387494 10.9671C1.51749 7.4244 4.26614 4.859 8.57236 3.33197Z" fill="white"/>
<path d="M39.9067 11.7002C40.7007 12.1888 41.0672 12.7386 41.0061 13.3799L40.9757 13.5326C40.9451 13.8991 40.2426 15.7926 38.8989 19.2131L38.8073 19.9156C38.8684 20.8929 39.5096 21.4732 40.7618 21.6258C42.6248 21.9923 43.541 22.3894 43.5716 22.7558C43.6326 22.7558 43.6326 22.8475 43.6326 23.0001C43.5105 24.2218 41.4948 24.9548 37.5856 25.2297C35.2951 24.5883 33.9818 23.8858 33.7069 23.1223C29.0037 25.6877 25.5526 26.8788 23.3538 26.6345L22.5596 26.5428C20.8188 26.3596 19.75 25.3213 19.3529 23.3972C19.2919 22.9391 19.2613 22.5421 19.3223 22.2061C19.6277 18.9994 22.6513 15.9454 28.3624 13.0439C31.447 11.8224 34.3483 11.3642 37.097 11.6391C38.0132 11.9139 38.4713 12.0667 38.4713 12.0972C39.0821 11.7918 39.5707 11.6391 39.9067 11.7002ZM25.8886 21.1372L26.4383 21.1983C28.1486 21.3815 30.3781 20.7402 33.1572 19.3659L33.1878 19.1216C33.31 18.6634 33.9208 17.4419 34.9591 15.4261C33.1572 15.5177 31.3248 16.098 29.523 17.1669C28.5151 17.6251 27.7516 18.297 27.2019 19.1216C26.8048 19.3353 26.3772 20.0072 25.8886 21.1372Z" fill="white"/>
<path d="M52.5201 0.0335693H52.6423C53.192 0.0335693 53.7417 1.10249 54.2914 3.27087C54.8412 5.40871 53.1615 12.5552 49.2522 24.6493L47.8474 29.9328C47.8779 30.4825 47.9085 30.9406 47.9085 31.2765L47.8779 31.3987C47.8779 32.376 47.3893 32.8647 46.4425 32.8647C45.0377 32.8647 44.2131 30.2686 43.9688 25.1073C44.0298 21.2592 45.282 16.22 47.7253 9.98978C50.2907 4.67573 51.665 1.46897 51.8483 0.400055C52.0315 0.155732 52.2758 0.0335693 52.5201 0.0335693Z" fill="white"/>
<path d="M64.5238 11.8224C68.0054 11.7613 69.9295 12.2499 70.2655 13.2272C70.6013 14.235 70.6013 15.2734 70.2655 16.3729C69.9295 17.4723 69.0744 18.7245 67.6389 20.0682C66.234 21.4426 63.4855 22.4504 59.4236 23.1223C59.4846 25.0159 61.0727 25.4739 64.1878 24.5883C67.303 23.672 69.3798 23.1223 70.3876 22.9086C71.3955 22.6947 71.7924 23.0001 71.6398 23.8248C71.4565 24.6494 69.8684 25.8405 66.8143 27.398C63.7909 28.9556 60.4925 29.3221 56.9803 28.4669C53.4681 27.6118 52.216 24.9548 53.2238 20.4958C54.2622 16.0369 58.0186 13.1356 64.5238 11.8224ZM59.1486 19.9767L59.393 20.6179C64.5543 18.7245 66.8754 17.228 66.3257 16.0675C65.776 14.9069 64.6154 14.7543 62.8135 15.6094C61.0422 16.4645 59.8205 17.8999 59.1486 19.9767Z" fill="white"/>
<path d="M76.6784 24.7713C75.8844 27.1839 75.3042 28.8026 74.9376 29.5967C74.2657 30.3602 73.5022 30.8489 72.6777 31.0626C72.3112 31.1848 72.0363 31.2459 71.8836 31.2459C70.9369 31.2459 70.3566 30.6045 70.0817 29.2913C69.9595 28.4361 69.8984 27.9475 69.8984 27.8253C69.8984 26.5121 70.7231 23.7634 72.3417 19.5793C73.9604 15.3954 75.5179 11.8527 76.9533 8.8902C77.7169 7.4548 78.9385 5.65291 80.5877 3.48453C81.4428 2.69048 81.9925 2.29346 82.2674 2.29346C82.7255 2.38508 82.9393 2.59886 82.9393 2.93481V3.94264C82.9393 5.71399 82.0536 8.79859 80.2823 13.1658C80.2517 13.2269 80.0991 13.6851 79.8242 14.5097L79.1523 16.678C80.7403 15.1511 82.1757 13.9904 83.4585 13.1964C84.4663 12.5856 85.8406 11.9443 87.5814 11.2113C88.3755 11.028 88.8336 10.9975 88.9863 11.0891C89.2 11.3029 89.2306 11.5167 89.1085 11.7305L88.7114 12.3718C88.0091 13.4713 86.2987 14.9983 83.6112 17.0445C83.5501 17.0751 83.3058 17.2888 82.8171 17.6859L79.8852 20.6789C79.8242 20.74 79.7631 20.801 79.702 20.8621C80.4045 21.6561 81.1985 22.5723 82.0842 23.6108C85.5963 27.8559 88.4366 30.7878 90.6355 32.437L91.0019 33.1699C91.0936 33.4142 91.0325 33.6585 90.7576 33.9028C90.5744 33.9945 90.0553 33.9334 89.2001 33.6891C87.0623 33.1088 85.2909 32.3148 83.825 31.3069C82.359 30.2991 80.4349 28.6194 77.9917 26.2984C77.503 25.7181 77.0755 25.2294 76.6784 24.7713Z" fill="white"/>
<path d="M98.1779 28.8943C96.6814 29.0165 95.1543 28.8638 93.5663 28.4974C90.0541 27.6727 88.8019 25.0156 89.8097 20.5263C90.8176 16.0368 94.5741 13.166 101.079 11.8527H101.171C102.881 11.5778 104.683 11.6389 106.546 12.0054C110.089 12.7384 111.402 15.3648 110.516 19.8849C109.631 24.3744 105.966 27.3978 99.4911 28.8943C99.033 28.8943 98.5748 28.8943 98.1779 28.8943ZM99.8576 25.4433C102.851 24.5881 104.561 22.8779 104.958 20.3429C105.355 17.7776 104.744 16.3116 103.125 15.8841C102.27 15.6703 101.446 15.6397 100.621 15.7925H100.591C97.5671 16.5254 95.8263 18.1746 95.3682 20.7095C94.91 23.2444 95.4903 24.7713 97.109 25.2295C97.8419 25.4433 98.5748 25.5349 99.2468 25.4738C99.4301 25.4433 99.6133 25.4433 99.8576 25.4433Z" fill="white"/>
<path d="M107.647 9.04307L107.066 9.16524C106.792 9.07361 106.639 8.92092 106.608 8.73767V8.67659C106.517 8.12686 107.372 5.83632 109.143 1.80498C109.571 0.919296 109.968 0.430648 110.365 0.339026C110.334 0.247404 110.609 0.155783 111.159 0.0336209C112.014 -0.0274602 112.533 0.247404 112.655 0.827675L112.869 1.74389C113.021 2.47687 112.625 3.75957 111.648 5.62254C110.609 6.75254 109.54 7.72983 108.38 8.52389C108.135 8.58497 107.891 8.76821 107.647 9.04307Z" fill="white"/>
<path d="M34.3786 8.49329C33.2487 7.69924 32.1491 6.72194 31.1108 5.59194C30.1335 3.72897 29.7058 2.41572 29.8891 1.71329L30.1029 0.797077C30.2557 0.216807 30.7443 -0.0275176 31.5994 0.00302294C32.1491 0.125185 32.424 0.247348 32.3934 0.308429C32.7599 0.40005 33.1876 0.888699 33.6151 1.77437C35.417 5.83627 36.2415 8.1268 36.15 8.646V8.70708C36.0889 8.89031 35.9361 9.04302 35.6918 9.13464L35.1116 9.01248C34.8978 8.76816 34.6535 8.58491 34.3786 8.49329Z" fill="white"/>
<path d="M61.3786 8.49329C60.2485 7.69924 59.1491 6.72194 58.1108 5.59194C57.1334 3.72897 56.7059 2.41572 56.8891 1.71329L57.1029 0.797077C57.2556 0.216807 57.7443 -0.0275176 58.5994 0.00302294C59.1491 0.125185 59.424 0.247348 59.3934 0.308429C59.7599 0.40005 60.1875 0.888699 60.615 1.77437C62.417 5.83627 63.2415 8.1268 63.15 8.646V8.70708C63.0889 8.89031 62.9361 9.04302 62.6918 9.13464L62.1115 9.01248C61.8978 8.76816 61.6535 8.58491 61.3786 8.49329Z" fill="white"/>
</g>
<defs>
<clipPath id="clip0_16926_5955">
<rect width="112.9" height="35" fill="white"/>
</clipPath>
</defs>
</svg>
