<svg width="20" height="20" viewBox="0 0 20 20" fill="none" xmlns="http://www.w3.org/2000/svg">
<path d="M1.66602 5L7.42687 8.26414C9.55068 9.46751 10.448 9.46751 12.5718 8.26414L18.3327 5" stroke="#141B34" stroke-width="1.5" stroke-linejoin="round"/>
<path d="M1.67915 11.229C1.73363 13.7836 1.76087 15.061 2.70348 16.0071C3.64609 16.9533 4.95796 16.9863 7.58171 17.0522C9.19878 17.0928 10.7999 17.0928 12.417 17.0522C15.0407 16.9863 16.3526 16.9533 17.2952 16.0071C18.2378 15.061 18.2651 13.7836 18.3195 11.229C18.3371 10.4076 18.3371 9.59108 18.3195 8.76968C18.2651 6.21507 18.2378 4.93776 17.2952 3.99157C16.3526 3.04537 15.0407 3.01241 12.417 2.94649C10.7999 2.90586 9.19877 2.90586 7.5817 2.94648C4.95796 3.0124 3.64608 3.04536 2.70348 3.99155C1.76087 4.93775 1.73363 6.21505 1.67915 8.76966C1.66164 9.59107 1.66164 10.4076 1.67915 11.229Z" stroke="#141B34" stroke-width="1.5" stroke-linejoin="round"/>
</svg>
