<svg width="20" height="20" viewBox="0 0 20 20" fill="none" xmlns="http://www.w3.org/2000/svg">
<path d="M11.8082 17.4075C15.294 17.1758 18.0707 14.3597 18.2991 10.8244C18.3439 10.1326 18.3439 9.41614 18.2991 8.7243C18.0707 5.18901 15.294 2.37298 11.8082 2.14126C10.619 2.06221 9.37732 2.06237 8.19051 2.14126C4.70467 2.37298 1.92802 5.18901 1.69955 8.7243C1.65484 9.41614 1.65484 10.1326 1.69955 10.8244C1.78276 12.112 2.35221 13.3042 3.0226 14.3109C3.41186 15.0156 3.15497 15.8952 2.74953 16.6635C2.45719 17.2175 2.31102 17.4945 2.42838 17.6946C2.54575 17.8947 2.8079 17.9011 3.3322 17.9139C4.36907 17.9391 5.06825 17.6452 5.62325 17.2359C5.93802 17.0038 6.0954 16.8877 6.20388 16.8744C6.31235 16.861 6.52582 16.949 6.95269 17.1248C7.33635 17.2828 7.78182 17.3803 8.19051 17.4075C9.37732 17.4864 10.619 17.4865 11.8082 17.4075Z" stroke="#1C1C1C" stroke-width="1.5" stroke-linejoin="round"/>
<path d="M8.75 7.94611C8.75 7.23806 9.30964 6.66406 10 6.66406C10.6904 6.66406 11.25 7.23806 11.25 7.94611C11.25 8.20134 11.1773 8.43914 11.0519 8.63893C10.6784 9.23437 10 9.80216 10 10.5102V10.8307" stroke="#1C1C1C" stroke-width="1.5" stroke-linecap="round"/>
<path d="M10 12.5H10.0075" stroke="#1C1C1C" stroke-width="1.5" stroke-linecap="round" stroke-linejoin="round"/>
</svg>
