<svg width="24" height="15" viewBox="0 0 24 15" fill="none" xmlns="http://www.w3.org/2000/svg">
<path d="M16.379 0.0639572C16.7041 0.0639572 16.9931 0.208453 17.2098 0.425197L19.1605 2.37589V9.38393C19.0883 9.27556 18.9799 9.20331 18.9076 9.09494L13.6335 4.83232L14.5728 3.96534C14.8256 3.7486 14.8256 3.38736 14.6089 3.17062C14.3921 2.91775 14.0309 2.91775 13.778 3.13449L10.9242 5.77154C10.8881 5.77154 10.8881 5.77154 10.8881 5.77154C10.274 6.3134 9.33479 6.1689 8.86518 5.66317C8.35945 5.12131 8.35945 4.21821 8.93743 3.64023L12.5137 0.389073C12.7304 0.172329 12.9833 0.0639572 13.2723 0.0639572H16.379ZM20.3526 2.41201H23.8205V11.6597H21.5086C20.8583 11.6597 20.3526 11.1179 20.3526 10.5038V2.41201ZM22.0865 10.5038C22.3755 10.5038 22.6645 10.2148 22.6645 9.92579C22.6645 9.60068 22.3755 9.34781 22.0865 9.34781C21.7614 9.34781 21.5086 9.60068 21.5086 9.92579C21.5086 10.2148 21.7614 10.5038 22.0865 10.5038ZM0.701172 11.6236V2.41201H4.16907V10.4676C4.16907 11.1179 3.62721 11.6236 3.0131 11.6236H0.701172ZM2.43512 9.34781C2.11001 9.34781 1.85714 9.60068 1.85714 9.92579C1.85714 10.2148 2.11001 10.5038 2.43512 10.5038C2.72411 10.5038 3.0131 10.2148 3.0131 9.92579C3.0131 9.60068 2.72411 9.34781 2.43512 9.34781ZM18.149 9.99804C18.6548 10.3954 18.727 11.1179 18.3297 11.6236L18.0045 12.0571C17.571 12.5628 16.8486 12.6351 16.379 12.2377L16.1622 12.0571L15.0424 13.4659C14.5728 14.0439 13.7058 14.1162 13.1278 13.6466L12.5137 13.1047H12.4776C11.6828 14.08 10.2379 14.2607 9.22642 13.4298L5.97527 10.4676H5.32504V2.37589L7.27573 0.425197C7.49247 0.208453 7.78146 0.0639572 8.10658 0.0639572H11.141L8.17883 2.77325C7.13123 3.7486 7.05898 5.4103 7.99821 6.45789C8.97355 7.50549 10.5991 7.61386 11.6828 6.60239L12.7666 5.62704L18.149 9.99804Z" fill="white"/>
</svg>
