<?xml version="1.0" encoding="UTF-8"?>
<svg width="700pt" height="700pt" version="1.1" viewBox="0 0 700 700" xmlns="http://www.w3.org/2000/svg" xmlns:xlink="http://www.w3.org/1999/xlink">
 <defs>
  <symbol id="m" overflow="visible">
   <path d="m29.312-1.75c-1.5117 0.78125-3.0898 1.3711-4.7344 1.7656-1.6367 0.40625-3.3398 0.60938-5.1094 0.60938-5.3125 0-9.5273-1.4844-12.641-4.4531-3.1055-2.9688-4.6562-7-4.6562-12.094s1.5508-9.125 4.6562-12.094c3.1133-2.9688 7.3281-4.4531 12.641-4.4531 1.7695 0 3.4727 0.19922 5.1094 0.59375 1.6445 0.39844 3.2227 0.99219 4.7344 1.7812v6.5938c-1.5312-1.0391-3.0391-1.8008-4.5156-2.2812-1.4805-0.48828-3.0391-0.73438-4.6719-0.73438-2.9375 0-5.2461 0.94531-6.9219 2.8281-1.6797 1.875-2.5156 4.4648-2.5156 7.7656 0 3.293 0.83594 5.8828 2.5156 7.7656 1.6758 1.875 3.9844 2.8125 6.9219 2.8125 1.6328 0 3.1914-0.23828 4.6719-0.71875 1.4766-0.48828 2.9844-1.2539 4.5156-2.2969z"/>
  </symbol>
  <symbol id="h" overflow="visible">
   <path d="m21.453-17.406c-0.67969-0.3125-1.3516-0.53906-2.0156-0.6875-0.65625-0.15625-1.3203-0.23438-1.9844-0.23438-1.9688 0-3.4844 0.63281-4.5469 1.8906-1.0547 1.2617-1.5781 3.0703-1.5781 5.4219v11.016h-7.6562v-23.922h7.6562v3.9219c0.97656-1.5625 2.1016-2.7031 3.375-3.4219 1.2812-0.71875 2.8125-1.0781 4.5938-1.0781 0.25 0 0.52344 0.011719 0.82812 0.03125 0.30078 0.023438 0.73438 0.070312 1.2969 0.14062z"/>
  </symbol>
  <symbol id="d" overflow="visible">
   <path d="m27.562-12.031v2.1875h-17.891c0.1875 1.793 0.83203 3.1367 1.9375 4.0312 1.1133 0.89844 2.6719 1.3438 4.6719 1.3438 1.6016 0 3.25-0.23438 4.9375-0.70312 1.6875-0.47656 3.4219-1.2031 5.2031-2.1719v5.8906c-1.8047 0.6875-3.6094 1.2031-5.4219 1.5469-1.8125 0.35156-3.6211 0.53125-5.4219 0.53125-4.3359 0-7.7031-1.0977-10.109-3.2969-2.3984-2.207-3.5938-5.2969-3.5938-9.2656 0-3.9062 1.1758-6.9727 3.5312-9.2031 2.3633-2.2383 5.6094-3.3594 9.7344-3.3594 3.7578 0 6.7695 1.1367 9.0312 3.4062 2.2578 2.2617 3.3906 5.2812 3.3906 9.0625zm-7.8594-2.5312c0-1.457-0.42969-2.6289-1.2812-3.5156-0.84375-0.89453-1.9492-1.3438-3.3125-1.3438-1.4922 0-2.6992 0.41797-3.625 1.25-0.91797 0.83594-1.4922 2.0391-1.7188 3.6094z"/>
  </symbol>
  <symbol id="b" overflow="visible">
   <path d="m14.391-10.766c-1.5938 0-2.793 0.27344-3.5938 0.8125-0.80469 0.54297-1.2031 1.3398-1.2031 2.3906 0 0.96875 0.32031 1.7305 0.96875 2.2812 0.64453 0.54297 1.5469 0.8125 2.7031 0.8125 1.4375 0 2.6445-0.51562 3.625-1.5469 0.98828-1.0312 1.4844-2.3203 1.4844-3.875v-0.875zm11.688-2.8906v13.656h-7.7031v-3.5469c-1.0312 1.4492-2.1875 2.5078-3.4688 3.1719s-2.8398 1-4.6719 1c-2.4805 0-4.4961-0.72266-6.0469-2.1719-1.543-1.4453-2.3125-3.3203-2.3125-5.625 0-2.8125 0.96094-4.8672 2.8906-6.1719 1.9375-1.3125 4.9688-1.9688 9.0938-1.9688h4.5156v-0.60938c0-1.207-0.48047-2.0938-1.4375-2.6562-0.94922-0.5625-2.4375-0.84375-4.4688-0.84375-1.6367 0-3.1562 0.16797-4.5625 0.5-1.4062 0.32422-2.7188 0.8125-3.9375 1.4688v-5.8281c1.6445-0.40625 3.2891-0.70703 4.9375-0.90625 1.6562-0.20703 3.3047-0.3125 4.9531-0.3125 4.3203 0 7.4375 0.85547 9.3438 2.5625 1.9141 1.6992 2.875 4.4609 2.875 8.2812z"/>
  </symbol>
  <symbol id="g" overflow="visible">
   <path d="m12.031-30.719v6.7969h7.875v5.4688h-7.875v10.141c0 1.1172 0.21875 1.8711 0.65625 2.2656 0.4375 0.38672 1.3125 0.57812 2.625 0.57812h3.9375v5.4688h-6.5625c-3.0234 0-5.1641-0.62891-6.4219-1.8906-1.2617-1.2578-1.8906-3.3984-1.8906-6.4219v-10.141h-3.7969v-5.4688h3.7969v-6.7969z"/>
  </symbol>
  <symbol id="a" overflow="visible">
   <path d="m19.953-20.422v-12.812h7.6875v33.234h-7.6875v-3.4531c-1.0547 1.4062-2.2148 2.4375-3.4844 3.0938-1.2734 0.65625-2.7422 0.98438-4.4062 0.98438-2.9492 0-5.3711-1.1719-7.2656-3.5156-1.8867-2.3438-2.8281-5.3594-2.8281-9.0469s0.94141-6.7031 2.8281-9.0469c1.8945-2.3438 4.3164-3.5156 7.2656-3.5156 1.6562 0 3.1172 0.33594 4.3906 1 1.2812 0.65625 2.4453 1.6836 3.5 3.0781zm-5.0469 15.484c1.6445 0 2.8945-0.59766 3.75-1.7969 0.86328-1.1953 1.2969-2.9297 1.2969-5.2031 0-2.2812-0.43359-4.0195-1.2969-5.2188-0.85547-1.1953-2.1055-1.7969-3.75-1.7969-1.625 0-2.8711 0.60156-3.7344 1.7969-0.85547 1.1992-1.2812 2.9375-1.2812 5.2188 0 2.2734 0.42578 4.0078 1.2812 5.2031 0.86328 1.1992 2.1094 1.7969 3.7344 1.7969z"/>
  </symbol>
  <symbol id="c" overflow="visible">
   <path d="m16.406-4.9375c1.6328 0 2.8828-0.59766 3.75-1.7969 0.86328-1.1953 1.2969-2.9297 1.2969-5.2031 0-2.2812-0.43359-4.0195-1.2969-5.2188-0.86719-1.1953-2.1172-1.7969-3.75-1.7969-1.6367 0-2.8906 0.60547-3.7656 1.8125-0.875 1.1992-1.3125 2.9336-1.3125 5.2031 0 2.2617 0.4375 3.9961 1.3125 5.2031 0.875 1.1992 2.1289 1.7969 3.7656 1.7969zm-5.0781-15.484c1.0508-1.3945 2.2188-2.4219 3.5-3.0781 1.2812-0.66406 2.7539-1 4.4219-1 2.9453 0 5.3672 1.1719 7.2656 3.5156 1.8945 2.3438 2.8438 5.3594 2.8438 9.0469s-0.94922 6.7031-2.8438 9.0469c-1.8984 2.3438-4.3203 3.5156-7.2656 3.5156-1.668 0-3.1406-0.33594-4.4219-1s-2.4492-1.6914-3.5-3.0781v3.4531h-7.6562v-33.234h7.6562z"/>
  </symbol>
  <symbol id="f" overflow="visible">
   <path d="m0.53125-23.922h7.6562l6.4219 16.234 5.4688-16.234h7.6562l-10.062 26.188c-1.0117 2.6641-2.1953 4.5234-3.5469 5.5781-1.3438 1.0625-3.1211 1.5938-5.3281 1.5938h-4.4219v-5.0156h2.3906c1.3008 0 2.2422-0.21094 2.8281-0.625 0.59375-0.40625 1.0547-1.1484 1.3906-2.2188l0.20312-0.65625z"/>
  </symbol>
  <symbol id="e" overflow="visible">
   <path d="m26.219-30.891v6.75c-1.7617-0.78125-3.4766-1.3672-5.1406-1.7656-1.668-0.40625-3.2422-0.60938-4.7188-0.60938-1.9609 0-3.4141 0.27344-4.3594 0.8125-0.9375 0.54297-1.4062 1.3867-1.4062 2.5312 0 0.85547 0.31641 1.5234 0.95312 2 0.63281 0.46875 1.7852 0.875 3.4531 1.2188l3.5 0.70312c3.5391 0.71875 6.0625 1.8047 7.5625 3.25 1.5 1.4492 2.25 3.5117 2.25 6.1875 0 3.5234-1.0469 6.1406-3.1406 7.8594-2.0859 1.7188-5.2734 2.5781-9.5625 2.5781-2.0234 0-4.0547-0.19531-6.0938-0.57812-2.0312-0.38281-4.0625-0.95703-6.0938-1.7188v-6.9375c2.0312 1.0859 3.9922 1.9023 5.8906 2.4531 1.9062 0.54297 3.7422 0.8125 5.5156 0.8125 1.7891 0 3.1602-0.29688 4.1094-0.89062 0.95703-0.60156 1.4375-1.457 1.4375-2.5625 0-1-0.32422-1.7695-0.96875-2.3125-0.64844-0.53906-1.9375-1.0234-3.875-1.4531l-3.1875-0.70312c-3.1875-0.6875-5.5234-1.7734-7-3.2656-1.4688-1.5-2.2031-3.5156-2.2031-6.0469 0-3.1758 1.0234-5.6172 3.0781-7.3281 2.0508-1.707 5-2.5625 8.8438-2.5625 1.75 0 3.5508 0.13281 5.4062 0.39062 1.8516 0.26172 3.7695 0.65625 5.75 1.1875z"/>
  </symbol>
  <symbol id="l" overflow="visible">
   <path d="m27.734-14.562v14.562h-7.7031v-11.109c0-2.0938-0.046875-3.5312-0.14062-4.3125-0.085937-0.78125-0.24219-1.3594-0.46875-1.7344-0.30469-0.5-0.71094-0.88281-1.2188-1.1562-0.51172-0.28125-1.0938-0.42188-1.75-0.42188-1.5938 0-2.8516 0.61719-3.7656 1.8438-0.90625 1.2305-1.3594 2.9375-1.3594 5.125v11.766h-7.6562v-33.234h7.6562v12.812c1.1445-1.3945 2.3633-2.4219 3.6562-3.0781 1.3008-0.66406 2.7383-1 4.3125-1 2.7578 0 4.8516 0.85156 6.2812 2.5469 1.4375 1.6875 2.1562 4.1523 2.1562 7.3906z"/>
  </symbol>
  <symbol id="k" overflow="visible">
   <path d="m4.0156-31.891h8.2188v19.109c0 2.6367 0.42969 4.5234 1.2969 5.6562 0.86328 1.1367 2.2695 1.7031 4.2188 1.7031 1.9688 0 3.3789-0.56641 4.2344-1.7031 0.86328-1.1328 1.2969-3.0195 1.2969-5.6562v-19.109h8.2344v19.109c0 4.5234-1.1367 7.8867-3.4062 10.094-2.2617 2.2109-5.7148 3.3125-10.359 3.3125-4.625 0-8.0742-1.1016-10.344-3.3125-2.2617-2.207-3.3906-5.5703-3.3906-10.094z"/>
  </symbol>
  <symbol id="j" overflow="visible">
   <path d="m3.6719-23.922h7.6562v23.922h-7.6562zm0-9.3125h7.6562v6.2344h-7.6562z"/>
  </symbol>
  <symbol id="i" overflow="visible">
   <path d="m27.734-14.562v14.562h-7.7031v-11.156c0-2.0625-0.046875-3.4844-0.14062-4.2656-0.085937-0.78125-0.24219-1.3594-0.46875-1.7344-0.30469-0.5-0.71094-0.88281-1.2188-1.1562-0.51172-0.28125-1.0938-0.42188-1.75-0.42188-1.5938 0-2.8516 0.61719-3.7656 1.8438-0.90625 1.2305-1.3594 2.9375-1.3594 5.125v11.766h-7.6562v-23.922h7.6562v3.5c1.1445-1.3945 2.3633-2.4219 3.6562-3.0781 1.3008-0.66406 2.7383-1 4.3125-1 2.7578 0 4.8516 0.85156 6.2812 2.5469 1.4375 1.6875 2.1562 4.1523 2.1562 7.3906z"/>
  </symbol>
 </defs>
 <g>
  <path d="m165.38 104.3c31.922-31.93 71.688-54.895 115.3-66.582 43.613-11.688 89.531-11.688 133.14 0 43.609 11.688 83.375 34.652 115.3 66.582 1.5664 1.5898 3.7148 2.4727 5.9492 2.4492 2.2539-0.007812 4.4141-0.88672 6.0391-2.4492 3.1641-3.3672 3.1641-8.6211 0-11.988-34.02-34.047-76.406-58.531-122.89-70.992-46.488-12.465-95.438-12.465-141.93 0-46.488 12.461-88.875 36.945-122.89 70.992-3.168 3.3672-3.168 8.6211 0 11.988 3.3672 3.168 8.6211 3.168 11.988 0z"/>
  <path d="m347.2 67.199c-28.031-0.066407-55.797 5.4297-81.691 16.168-25.895 10.738-49.402 26.508-69.156 46.395-2.3594 1.3633-3.9492 3.75-4.2969 6.4531-0.35156 2.6992 0.57812 5.4102 2.5117 7.332 1.9336 1.918 4.6523 2.8281 7.3516 2.457 2.6992-0.36719 5.0742-1.9727 6.418-4.3398 36.852-36.82 86.816-57.504 138.91-57.504 52.094 0 102.06 20.684 138.91 57.504 1.3477 2.3672 3.7227 3.9727 6.4219 4.3398 2.6992 0.37109 5.418-0.53906 7.3516-2.457 1.9336-1.9219 2.8594-4.6328 2.5117-7.332-0.35156-2.7031-1.9375-5.0898-4.2969-6.4531-19.77-19.891-43.289-35.664-69.199-46.406-25.91-10.738-53.691-16.23-81.738-16.156z"/>
  <path d="m450.36 182.44c2.2539-0.007812 4.4141-0.88672 6.0352-2.4492 3.168-3.3672 3.168-8.6211 0-11.988-28.969-28.914-68.227-45.148-109.16-45.148-40.926 0-80.184 16.234-109.16 45.148-3.1641 3.3672-3.1641 8.6211 0 11.988 3.3711 3.168 8.6211 3.168 11.988 0 25.766-25.781 60.723-40.266 97.168-40.266 36.449 0 71.406 14.484 97.172 40.266 1.5977 1.543 3.7266 2.418 5.9492 2.4492z"/>
  <path d="m407.84 222.16c2.25 0 4.3984-0.91797 5.9531-2.5391 3.1641-3.3672 3.1641-8.6211 0-11.988-17.656-17.637-41.59-27.543-66.547-27.543-24.953 0-48.887 9.9062-66.543 27.543-3.168 3.3672-3.168 8.6211 0 11.988 3.3555 3.1133 8.543 3.1133 11.902 0 14.512-14.453 34.16-22.566 54.641-22.566 20.484 0 40.133 8.1133 54.645 22.566 1.5859 1.5742 3.7148 2.4844 5.9492 2.5391z"/>
  <path d="m313.43 264.07c0 8.9883 3.5703 17.605 9.9258 23.957 6.3594 6.3516 14.98 9.9141 23.965 9.9062s17.602-3.5859 23.945-9.9492c6.3477-6.3633 9.9023-14.984 9.8867-23.973-0.015626-8.9844-3.6016-17.598-9.9688-23.938-6.3672-6.3398-14.992-9.8906-23.98-9.8672-8.9648 0.023437-17.555 3.6016-23.887 9.9492s-9.8867 14.949-9.8867 23.914zm50.75 0c0.023438 4.5078-1.7461 8.8398-4.9219 12.039-3.1719 3.2031-7.4883 5.0078-11.996 5.0234-4.5078 0.015625-8.8359-1.7617-12.031-4.9414-3.1953-3.1758-4.9922-7.4961-5-12.004-0.007812-4.5078 1.7773-8.832 4.9609-12.023 3.1836-3.1875 7.5039-4.9805 12.012-4.9805 4.4961-0.023438 8.8125 1.7461 12 4.9141 3.1836 3.1719 4.9766 7.4805 4.9766 11.973z"/>
  <path d="m170.62 366.45c-3.6992 4.3242-6.6562 9.2344-8.75 14.527-14.32-29.777-21.25-62.566-20.199-95.59 1.0508-33.023 10.051-65.309 26.238-94.113 1.9141-1.9375 2.8203-4.6562 2.4453-7.3555s-1.9883-5.0703-4.3594-6.4141c-2.375-1.3398-5.2344-1.5-7.7422-0.42969-2.5078 1.0703-4.3711 3.2461-5.0469 5.8867-17.801 31.672-27.574 67.219-28.457 103.54-0.88281 36.32 7.1445 72.301 23.383 104.8-6.5312-1.2539-13.242-1.2539-19.773 0-3.957 0.91406-6.5195 4.7422-5.8633 8.75 0.875 3.9727 4.75 6.5312 8.75 5.7734 10.082-1.5586 20.398 0.19141 29.398 4.9883h0.61328 0.69922c0.84375 0.13281 1.6992 0.13281 2.5391 0h0.4375c0.84375-0.070312 1.6719-0.27734 2.4492-0.61328h0.4375c0.76953-0.39062 1.4766-0.89062 2.1016-1.4883v-0.4375l0.78906-1.0508v-0.52344h-0.003906c0.21484-0.48047 0.39062-0.97656 0.52734-1.4883 0.042969-0.49219 0.042969-0.99219 0-1.4844v-0.61328c0.71094-9.8867 4.5391-19.293 10.938-26.863 1.3477-1.5195 2.0273-3.5195 1.8789-5.5469-0.14844-2.0273-1.1094-3.9102-2.668-5.2148-1.5508-1.3086-3.5586-1.9414-5.582-1.7617-2.0195 0.18359-3.8828 1.1602-5.1797 2.7227z"/>
  <path d="m561.05 201.25c3.5273 0.03125 7.0469-0.32031 10.5-1.0508 3.9531-0.91406 6.5195-4.7422 5.8633-8.75-0.875-3.9727-4.7539-6.5312-8.75-5.7734-10.094 1.5977-20.43-0.1875-29.402-5.0742h-0.78906 0.003906c-0.37109-0.23437-0.78906-0.38672-1.2266-0.4375-0.52344-0.085937-1.0547-0.085937-1.5742 0h-2.8867l-1.1367 0.52344-1.3125 0.96094-0.875 1.0508-0.96484 1.0508c-0.011719 0.20312-0.011719 0.41016 0 0.61328-0.21094 0.42188-0.38672 0.85938-0.52344 1.3125-0.042968 0.52344-0.042968 1.0508 0 1.5742v0.52344c-0.007812 10.227-3.3906 20.16-9.625 28.266-1.957 2.2539-2.4141 5.4453-1.1719 8.1562 1.2461 2.7148 3.9609 4.4531 6.9453 4.4414 2.2109-0.003907 4.3164-0.96094 5.7734-2.625 3.7031-4.3555 6.6602-9.293 8.75-14.613 14.156 29.785 20.941 62.535 19.785 95.488s-10.223 65.148-26.434 93.863c-2.0898 4.0781-0.67578 9.0781 3.2383 11.461 1.2383 0.75391 2.6641 1.1445 4.1133 1.1406 3.0234-0.0625 5.8047-1.6836 7.3477-4.2891 17.805-31.668 27.574-67.219 28.461-103.54 0.88281-36.316-7.1445-72.301-23.387-104.8 3.0742 0.40625 6.1758 0.58203 9.2773 0.52344z"/>
  <path d="m379.23 348.95c-2.9062-6.3242-7.4648-11.75-13.191-15.707-5.7266-3.957-12.414-6.3008-19.359-6.7812-6.9961 0.47266-13.727 2.8398-19.477 6.8477-5.75 4.0078-10.301 9.5039-13.16 15.902l-81.551 142.36c-3.9961 5.6992-6.3984 12.363-6.9492 19.305-0.55469 6.9375 0.75781 13.898 3.7969 20.16 3.7891 5.6953 9.0352 10.273 15.188 13.258 6.1562 2.9844 12.996 4.2656 19.812 3.7148h0.61328l164.24-0.69922c9.3164 1.3359 18.781-1.1367 26.254-6.8633 7.4727-5.7227 12.324-14.215 13.461-23.562 1.1328-9.3438-1.543-18.75-7.4258-26.098zm71.312 172.9v0.003906c-5.0586 6.3984-13.078 9.7148-21.176 8.75l-164.15 0.61328-0.52344 8.75v-8.75l-0.003906-0.003906c-7.9453 0.93359-15.793-2.3906-20.648-8.75-2.9453-7.5312-1.75-16.051 3.1484-22.484l81.551-142.54c5.0742-8.75 11.551-14.086 17.938-14.086 7.9922 1.2578 14.773 6.5508 17.938 14l82.602 141.93-0.003906-0.003906c4.9766 6.4297 6.2344 14.988 3.3281 22.578z"/>
  <path d="m347.2 389.11c-4.832 0-8.75 3.918-8.75 8.75v64.836c-0.71484 2.6328-0.16406 5.4453 1.4922 7.6094 1.6562 2.1641 4.2266 3.4375 6.9531 3.4375 2.7266 0 5.2969-1.2734 6.9492-3.4375 1.6562-2.1641 2.207-4.9766 1.4922-7.6094v-65.188c-0.16797-4.4688-3.6758-8.0898-8.1367-8.3984z"/>
  <path d="m347.2 482.65c-4.832 0-8.75 3.918-8.75 8.75v8.2266c-0.71484 2.6289-0.16406 5.4453 1.4922 7.6094s4.2266 3.4336 6.9531 3.4336c2.7266 0 5.2969-1.2695 6.9492-3.4336 1.6562-2.1641 2.207-4.9805 1.4922-7.6094v-8.2266c0.011718-4.6016-3.543-8.4258-8.1367-8.75z"/>
 </g>
</svg>
