<svg width="20" height="20" viewBox="0 0 20 20" fill="none" xmlns="http://www.w3.org/2000/svg">
<path d="M16.2071 13.498H17.7609V15.0527H2.22339V13.498H3.77714V8.05664C3.77714 6.9269 4.06199 5.88008 4.6317 4.91617C5.18069 3.98336 5.92131 3.24229 6.85356 2.69297C7.81689 2.12292 8.86308 1.83789 9.99214 1.83789C11.1212 1.83789 12.1674 2.12292 13.1307 2.69297C14.063 3.24229 14.8036 3.98336 15.3526 4.91617C15.9223 5.88008 16.2071 6.9269 16.2071 8.05664V13.498ZM14.6534 13.498V8.05664C14.6534 7.21711 14.441 6.43458 14.0164 5.70906C13.602 5.00427 13.0427 4.44458 12.3383 4.03C11.6132 3.60505 10.8312 3.39258 9.99214 3.39258C9.15311 3.39258 8.37106 3.60505 7.64598 4.03C6.94161 4.44458 6.38226 5.00427 5.96793 5.70906C5.54323 6.43458 5.33089 7.21711 5.33089 8.05664V13.498H14.6534ZM7.66151 16.6074H12.3228V18.1621H7.66151V16.6074Z" fill="black"/>
</svg>
