<svg width="15" height="15" viewBox="0 0 15 15" fill="none" xmlns="http://www.w3.org/2000/svg">
<path d="M6.96357 1.43307L12.7365 2.26141L13.5645 8.03641L8.1998 13.3914C8.09095 13.5081 7.95488 13.5664 7.79161 13.5664C7.62833 13.5664 7.49227 13.5081 7.38342 13.3914L1.61048 7.61641C1.49386 7.50752 1.43555 7.37141 1.43555 7.20807C1.43555 7.04474 1.49386 6.90863 1.61048 6.79974L6.96357 1.43307ZM7.38342 2.66974L2.84671 7.20807L7.79161 12.1547L12.3283 7.61641L11.7102 3.28807L7.38342 2.66974ZM8.61965 6.37974C8.47192 6.23196 8.37085 6.05891 8.31642 5.86057C8.262 5.66224 8.262 5.46196 8.31642 5.25974C8.37085 5.05752 8.47192 4.88252 8.61965 4.73474C8.76737 4.58696 8.94037 4.48585 9.13863 4.43141C9.33689 4.37696 9.5371 4.37696 9.73925 4.43141C9.9414 4.48585 10.1163 4.58696 10.2641 4.73474C10.4118 4.88252 10.5129 5.05752 10.5673 5.25974C10.6217 5.46196 10.6217 5.66224 10.5673 5.86057C10.5129 6.05891 10.4118 6.23196 10.2641 6.37974C10.1163 6.52752 9.9414 6.62863 9.73925 6.68307C9.5371 6.73752 9.33689 6.73752 9.13863 6.68307C8.94037 6.62863 8.76737 6.52752 8.61965 6.37974Z" fill="white"/>
</svg>
