<svg width="25" height="25" viewBox="0 0 25 25" fill="none" xmlns="http://www.w3.org/2000/svg">
<g clip-path="url(#clip0_20037_14630)">
<path d="M9.39941 0.895933C8.78418 1.25238 6.45508 2.60003 4.22363 3.88421C1.99219 5.1684 0.131836 6.26215 0.0878906 6.31586C0.00488281 6.40375 0 6.76996 0 12.5024C0 18.2348 0.00488281 18.601 0.0878906 18.6889C0.131836 18.7426 2.50488 20.1342 5.36133 21.7797C9.6875 24.27 10.5713 24.7631 10.6836 24.7436C10.835 24.7143 21.0107 18.85 21.167 18.7036C21.2695 18.6108 21.2695 18.6108 21.4209 18.8647C21.6992 19.3286 21.7969 19.6948 21.7969 20.2661C21.792 20.6957 21.7725 20.8325 21.6699 21.1059C21.3232 22.0287 20.6445 22.7319 19.5459 23.3129C19.1357 23.5278 19.0625 23.5864 19.0234 23.7182C18.9648 23.933 19.0576 24.1479 19.248 24.226C19.375 24.2797 19.4629 24.27 19.8682 24.1723C22.2607 23.601 23.999 22.1557 24.7217 20.1342C25.0928 19.1137 25.1025 17.7319 24.7461 16.6772C24.2871 15.2905 23.1494 14.0551 21.7187 13.3666L21.2939 13.1616L21.2891 9.78754V6.41351L21.1768 6.31097C20.9912 6.13519 10.8252 0.285582 10.6689 0.26605C10.5518 0.246519 10.3125 0.363707 9.39941 0.895933ZM12.0312 1.96039C12.7881 2.39496 13.4082 2.75628 13.418 2.76117C13.4326 2.77582 4.12598 8.15179 4.05762 8.16644C4.00391 8.18109 1.27441 6.63812 1.26953 6.59418C1.26953 6.56488 10.5518 1.18402 10.6152 1.17914C10.6396 1.17425 11.2793 1.5307 12.0312 1.96039ZM15.3271 3.86468C15.8936 4.19183 16.3574 4.47015 16.3574 4.48968C16.3574 4.50433 15.5469 4.98285 14.5605 5.54926C13.5742 6.12054 11.4697 7.33148 9.88281 8.24945L6.99707 9.91449L5.97656 9.32367C5.41504 9.0014 4.94141 8.72308 4.92676 8.70355C4.89746 8.67426 14.1797 3.27875 14.2676 3.27386C14.2822 3.27386 14.7607 3.54242 15.3271 3.86468ZM18.6816 5.80316C19.6777 6.37445 20 6.58441 19.9561 6.62347C19.9219 6.65277 17.8125 7.87836 15.2686 9.34808L10.6348 12.0141L9.31152 11.2524C8.5791 10.8325 7.9541 10.4662 7.9248 10.437C7.85156 10.3832 17.1728 4.97308 17.2803 5.01215C17.3193 5.02191 17.9492 5.37836 18.6816 5.80316ZM2.22168 8.12738L3.58887 8.92328L3.61328 11.2231C3.6377 13.4496 3.64258 13.5278 3.73535 13.6254C3.8916 13.7817 6.79687 15.437 6.96289 15.4662C7.07519 15.4858 7.14844 15.4614 7.25586 15.3686L7.39746 15.2465L7.42187 13.1957L7.44629 11.145L8.81348 11.936L10.1807 12.727L10.1953 18.1616L10.2051 23.5961L10.0488 23.5034C9.96094 23.4545 7.83691 22.2289 5.33203 20.7836L0.78125 18.1567V12.7416C0.78125 9.76312 0.795898 7.3266 0.820312 7.33148C0.839844 7.33148 1.46973 7.68793 2.22168 8.12738ZM20.459 10.0903V12.8539L20.3516 12.8295C19.5996 12.6586 19.2285 12.5952 18.7744 12.5463C18.4814 12.517 18.1445 12.4828 18.0322 12.4731L17.8223 12.4487V11.7651C17.8223 11.3891 17.8027 11.0375 17.7734 10.9887C17.7051 10.8618 17.4561 10.7836 17.2998 10.8471C17.1875 10.8862 13.1006 14.27 12.6611 14.6801C12.4854 14.8461 12.4463 15.0854 12.5635 15.2416C12.5977 15.2856 13.667 16.0864 14.9414 17.0239C17.041 18.562 17.2803 18.7231 17.4512 18.7231C17.5879 18.728 17.6611 18.6938 17.7295 18.6108C17.8125 18.5131 17.8223 18.4106 17.8223 17.7661V17.0287L18.1738 17.0629C18.75 17.1215 19.4238 17.3168 19.9609 17.5805L20.4639 17.8295L20.4492 18.0102L20.4346 18.1909L15.7715 20.8862C13.208 22.3657 11.0937 23.5815 11.0742 23.5815C11.0498 23.5864 11.0352 21.1498 11.0352 18.1713V12.7612L15.7373 10.0463C18.3203 8.55219 20.4395 7.3266 20.4492 7.3266C20.4541 7.3266 20.459 8.57172 20.459 10.0903ZM5.63965 10.1L6.56738 10.642L6.58203 12.4731C6.58691 13.4838 6.57715 14.309 6.55762 14.309C6.5332 14.3041 6.05957 14.0356 5.49316 13.7084L4.46777 13.1127L4.45312 11.267L4.44336 9.42132L4.57519 9.49457C4.65332 9.53363 5.13184 9.80707 5.63965 10.1ZM17.1289 13.1518C17.2314 13.2592 17.2852 13.2739 17.8857 13.3032C19.4775 13.3862 20.7324 13.7182 21.7627 14.3286C23.7305 15.5004 24.6191 17.683 23.9648 19.7289C23.8428 20.1098 23.5937 20.6225 23.3496 20.9936C23.1543 21.2914 22.3926 22.0825 22.1191 22.2729L21.9482 22.3901L22.0605 22.2192C22.4707 21.6039 22.6953 20.7397 22.6367 19.9926C22.4805 17.9125 20.5664 16.3647 17.9883 16.228C17.6611 16.2133 17.3389 16.2133 17.2656 16.2328C17.0703 16.2817 16.9922 16.5161 16.9922 17.0385V17.478L15.3076 16.2475C14.3848 15.5688 13.6328 15.0024 13.6377 14.9828C13.6426 14.9633 14.3945 14.3188 15.3076 13.5571L16.9678 12.1655L16.9922 12.6C17.0117 12.9614 17.0361 13.0541 17.1289 13.1518Z" fill="#084C3F"/>
</g>
<defs>
<clipPath id="clip0_20037_14630">
<rect width="25" height="25" fill="white"/>
</clipPath>
</defs>
</svg>
