<svg width="10" height="11" viewBox="0 0 10 11" fill="none" xmlns="http://www.w3.org/2000/svg">
<g clip-path="url(#clip0_17918_21961)">
<path d="M1.25 5.08398C1.25 3.5216 1.25 2.7404 1.64788 2.19277C1.77638 2.0159 1.93192 1.86036 2.10878 1.73187C2.65642 1.33398 3.43761 1.33398 5 1.33398C6.56239 1.33398 7.34358 1.33398 7.89122 1.73187C8.06808 1.86036 8.22362 2.0159 8.35212 2.19277C8.75 2.7404 8.75 3.5216 8.75 5.08398V5.91732C8.75 7.47971 8.75 8.2609 8.35212 8.80854C8.22362 8.9854 8.06808 9.14094 7.89122 9.26944C7.34358 9.66732 6.56239 9.66732 5 9.66732C3.43761 9.66732 2.65642 9.66732 2.10878 9.26944C1.93192 9.14094 1.77638 8.9854 1.64788 8.80854C1.25 8.2609 1.25 7.47971 1.25 5.91732V5.08398Z" stroke="#8E8E8E" stroke-linecap="round" stroke-linejoin="round"/>
<path d="M6.2474 4.45898L2.91406 4.45898M4.16406 6.54232H2.91406" stroke="#8E8E8E" stroke-linecap="round" stroke-linejoin="round"/>
</g>
<defs>
<clipPath id="clip0_17918_21961">
<rect width="10" height="10" fill="white" transform="translate(0 0.5)"/>
</clipPath>
</defs>
</svg>
