<svg width="49" height="48" viewBox="0 0 49 48" fill="none" xmlns="http://www.w3.org/2000/svg">
<mask id="mask0_322_31694" style="mask-type:alpha" maskUnits="userSpaceOnUse" x="0" y="0" width="49" height="48">
<rect x="0.5" width="48" height="48" fill="#D9D9D9"/>
</mask>
<g mask="url(#mask0_322_31694)">
<path d="M18.55 32.4498L28.1 22.9498V26.9998H31.7001V16.7998H21.5V20.3998H25.55L16.05 29.8998L18.55 32.4498ZM24.514 43.1998C21.8714 43.1998 19.3834 42.6998 17.05 41.6998C14.7167 40.6998 12.675 39.3248 10.925 37.5748C9.17505 35.8248 7.80005 33.7838 6.80005 31.4518C5.80005 29.1198 5.30005 26.6281 5.30005 23.9768C5.30005 21.3255 5.80005 18.8415 6.80005 16.5248C7.80005 14.2081 9.17505 12.1748 10.925 10.4248C12.675 8.6748 14.716 7.2998 17.048 6.2998C19.38 5.2998 21.8717 4.7998 24.5231 4.7998C27.1744 4.7998 29.6584 5.2998 31.9751 6.2998C34.2917 7.2998 36.3251 8.6748 38.0751 10.4248C39.8251 12.1748 41.2001 14.2118 42.2001 16.5358C43.2001 18.8601 43.7001 21.3435 43.7001 23.9858C43.7001 26.6285 43.2001 29.1165 42.2001 31.4498C41.2001 33.7831 39.8251 35.8248 38.0751 37.5748C36.3251 39.3248 34.2881 40.6998 31.9641 41.6998C29.6397 42.6998 27.1564 43.1998 24.514 43.1998Z" fill="#36394A"/>
</g>
</svg>
