<svg width="14" height="13" viewBox="0 0 14 13" fill="none" xmlns="http://www.w3.org/2000/svg">
<g clip-path="url(#clip0_17918_21895)">
<path d="M6.82485 0.853125C6.34751 0.980078 5.95649 1.31016 5.74321 1.76465C5.63149 2.00586 5.59849 2.20137 5.61118 2.53144C5.62895 2.95039 5.75337 3.25254 6.04028 3.56484L6.1647 3.70195L6.07075 3.73242C5.57817 3.88984 5.09829 4.42559 4.85708 5.09082C4.79868 5.25078 4.80122 5.2457 4.7479 5.19746C4.61841 5.08066 4.58794 5.07812 3.26509 5.07812C1.85337 5.07812 1.90669 5.07305 1.70864 5.27871C1.62739 5.36504 1.60708 5.40312 1.60708 5.48437C1.60708 5.59609 1.67056 5.67988 1.75942 5.6875C1.87622 5.70019 1.92192 5.68242 2.00825 5.59863C2.09966 5.50977 2.1022 5.50977 2.33071 5.50977H2.55923V5.84238C2.55923 6.0252 2.56938 6.19531 2.58462 6.2207C2.63032 6.30449 2.7522 6.32227 3.27017 6.32227C3.78813 6.32227 3.91001 6.30449 3.95571 6.2207C3.97095 6.19531 3.9811 6.01758 3.9811 5.82461V5.47676L4.19438 5.48945C4.45083 5.50215 4.527 5.54277 4.56509 5.69004C4.58286 5.75605 4.59048 6.06074 4.5854 6.56094C4.57778 7.4293 4.57524 7.43945 4.38735 7.49023C4.3188 7.50801 3.9227 7.51562 3.20923 7.51055C2.15806 7.50293 2.13013 7.50039 2.05903 7.44961C2.02095 7.41914 1.9854 7.37598 1.98032 7.35312C1.97271 7.31758 2.00317 7.3125 2.21392 7.3125C2.50337 7.3125 2.55923 7.27949 2.55923 7.10937C2.55923 6.93672 2.50337 6.90625 2.20376 6.90625H1.94985V6.70312V6.5H2.1022C2.22153 6.5 2.2647 6.48984 2.30532 6.44922C2.37388 6.38066 2.37388 6.21309 2.30532 6.14453C2.25708 6.09629 2.22153 6.09375 1.64517 6.09375C1.0688 6.09375 1.03325 6.09629 0.98501 6.14453C0.916455 6.21309 0.916455 6.38066 0.98501 6.44922C1.02817 6.49238 1.0688 6.5 1.2897 6.5H1.5436V6.70312V6.90625H1.08657C0.662549 6.90625 0.627002 6.90879 0.57876 6.95703C0.510205 7.02559 0.510205 7.19316 0.57876 7.26172C0.627002 7.30996 0.662549 7.3125 1.08657 7.3125H1.5436V7.38105C1.54614 7.55371 1.7188 7.7873 1.91177 7.87363C2.00063 7.91426 2.08696 7.92187 2.5897 7.92187H3.1686L3.0772 8.04121C2.95278 8.20625 2.85122 8.41445 2.74966 8.7166C2.62524 9.09492 2.58462 9.31582 2.56685 9.70176C2.54653 10.1689 2.53384 10.1562 3.01372 10.1562H3.36411L3.40728 10.3264C3.47837 10.6285 3.6104 10.857 3.83892 11.0855C4.06489 11.309 4.202 11.3953 4.48892 11.4969C4.65649 11.5553 4.71997 11.5629 4.99673 11.5629C5.27349 11.5629 5.33696 11.5553 5.50454 11.4969C5.79145 11.3953 5.92856 11.309 6.15454 11.0855C6.38306 10.857 6.51509 10.6285 6.58618 10.3264L6.62935 10.1562H8.14517H9.66099L9.70161 10.3289C9.82095 10.8113 10.1307 11.2023 10.5649 11.4105C10.8442 11.5451 10.9915 11.5781 11.3012 11.5781C11.5983 11.5781 11.809 11.5273 12.0553 11.4004C12.5352 11.149 12.8602 10.6793 12.9161 10.1461C13.0176 9.21426 12.3625 8.4043 11.451 8.3332L11.2403 8.31543L10.8848 7.49277C10.6918 7.03828 10.537 6.66504 10.542 6.65996C10.5471 6.65488 10.5801 6.6625 10.6182 6.67773C10.6563 6.69043 10.7553 6.70312 10.8391 6.70312C11.1032 6.70312 11.0905 6.75644 11.0905 5.6875C11.0905 4.78867 11.0905 4.77344 11.0372 4.72012C10.9889 4.67187 10.961 4.6668 10.7883 4.67695C10.4608 4.69727 10.1383 4.90293 9.99868 5.18223C9.96821 5.24316 9.93774 5.29902 9.93267 5.3041C9.92759 5.30918 9.88188 5.27617 9.82856 5.23047C9.66352 5.0832 9.53403 5.04258 9.27505 5.05019C8.67583 5.07051 8.61489 5.05781 8.44478 4.90547C8.34829 4.81914 8.17817 4.61094 8.08423 4.46367L8.03853 4.39512L8.15024 4.36719C8.37114 4.30879 8.55142 4.13105 8.63013 3.88984C8.64536 3.8416 8.69614 3.76797 8.74438 3.72734C8.85864 3.62578 8.94243 3.44805 8.92466 3.33633C8.91704 3.29062 8.8688 3.18398 8.82056 3.10527C8.73169 2.95801 8.66567 2.73965 8.68853 2.67363C8.69614 2.65586 8.71899 2.64062 8.73931 2.64062C8.81294 2.64062 8.8561 2.53398 8.8561 2.35371C8.8561 1.67578 8.3356 1.03086 7.64497 0.853125C7.44946 0.802343 7.01528 0.802343 6.82485 0.853125ZM7.63735 1.30762C7.81763 1.37109 7.94458 1.45742 8.09692 1.61738C8.25181 1.77988 8.32036 1.89668 8.3813 2.0998L8.41938 2.2293L8.0106 2.23945C7.63989 2.24707 7.58911 2.25469 7.49009 2.30547C7.33013 2.38926 7.20063 2.51875 7.11431 2.67109C7.04321 2.80312 7.04067 2.81582 7.03306 3.21699L7.0229 3.62578L6.89341 3.58769C6.68774 3.52676 6.57095 3.4582 6.40337 3.29824C6.13169 3.03672 6.02505 2.7625 6.04282 2.37656C6.05044 2.17344 6.06313 2.12012 6.14692 1.94746C6.41606 1.37871 7.05845 1.10195 7.63735 1.30762ZM8.24673 2.73457C8.24927 2.8793 8.29243 3.03926 8.37876 3.22207C8.46509 3.40234 8.46763 3.38203 8.31528 3.48613C8.28989 3.50391 8.25435 3.57754 8.23403 3.65117C8.15278 3.96855 8.01313 4.02187 7.59927 3.88984L7.44692 3.8416L7.43931 3.48867C7.43169 3.04941 7.45962 2.89707 7.57388 2.78027C7.67544 2.68125 7.79478 2.64824 8.06392 2.64316L8.24673 2.64062V2.73457ZM7.10669 4.16152C7.32759 4.24531 7.4977 4.40527 7.78462 4.79629C7.9979 5.09336 8.19849 5.28887 8.37114 5.3752C8.44985 5.41328 8.51587 5.44629 8.51841 5.44629C8.52095 5.44629 8.49556 5.525 8.46001 5.62402C8.427 5.72051 8.39907 5.85508 8.39907 5.92363C8.39907 6.04297 8.39653 6.04297 8.33052 6.02773C8.28989 6.02012 8.14517 5.95664 8.00552 5.89062C7.70083 5.74336 7.49009 5.56309 7.2895 5.27363C7.14477 5.06797 7.07114 5.01465 6.96196 5.04258C6.88071 5.06289 6.79946 5.16953 6.79946 5.25332C6.79946 5.32187 6.90356 5.50977 7.01782 5.64434L7.07876 5.71797L6.99243 5.8373C6.88579 5.98203 6.73091 6.29941 6.70806 6.41621L6.69282 6.5H5.84224H4.98911L5.00688 6.33242C5.05005 5.91855 5.21509 5.32441 5.38013 4.99687C5.64927 4.46367 6.04282 4.13359 6.46431 4.09297C6.68774 4.07012 6.93149 4.09551 7.10669 4.16152ZM10.6842 5.6875V6.24863L10.6131 6.21055C10.2856 6.04043 10.1993 5.60117 10.4354 5.3041C10.4659 5.26602 10.6538 5.12891 10.6741 5.12891C10.6791 5.12891 10.6842 5.38027 10.6842 5.6875ZM9.44009 5.49961C9.55181 5.54531 9.62544 5.63164 9.67876 5.78398L9.71431 5.88555L9.59243 5.93887C9.4477 6.00234 9.20903 6.0582 8.99067 6.08105L8.83071 6.09629V5.9668C8.83071 5.75098 8.95767 5.56562 9.15317 5.49707C9.28013 5.45137 9.31821 5.45137 9.44009 5.49961ZM3.57485 5.6875V5.89062H3.27017H2.96548V5.6875V5.48437H3.27017H3.57485V5.6875ZM7.56626 6.15215C7.76431 6.28672 8.06645 6.41621 8.28989 6.46191C8.3813 6.48223 8.46001 6.50254 8.46763 6.51016C8.47524 6.51523 8.60981 7.0916 8.77231 7.7873C9.08208 9.12793 9.0897 9.18633 8.99321 9.37422C8.91704 9.52402 8.83071 9.59512 8.83071 9.50879C8.83071 9.43516 8.7063 9.22441 8.61489 9.1457C8.51333 9.0543 8.34575 8.96289 8.28481 8.96289C8.24927 8.96289 8.24419 8.88926 8.24927 8.28242C8.25181 7.65781 8.24673 7.5918 8.19849 7.43691C8.06645 7.02051 7.7186 6.68281 7.29712 6.56094L7.13462 6.51523L7.18286 6.39082C7.22603 6.28164 7.37075 6.04297 7.3936 6.04297C7.39868 6.04297 7.47485 6.09375 7.56626 6.15215ZM10.3643 7.40137L10.8391 8.50586L10.3973 9.12285L9.95806 9.7373L9.62544 9.74492L9.29028 9.75254L9.36392 9.60527C9.54927 9.23457 9.54419 9.16348 9.21157 7.7416C9.05923 7.08145 8.93227 6.53301 8.93227 6.52285C8.93227 6.51016 8.99321 6.5 9.06938 6.5C9.24966 6.5 9.53149 6.43906 9.71431 6.36289C9.79302 6.32988 9.86665 6.30195 9.87427 6.29941C9.88442 6.29941 10.1053 6.79453 10.3643 7.40137ZM6.93149 6.93164C7.18794 6.96973 7.36567 7.0459 7.5231 7.18809C7.78716 7.43184 7.84048 7.64258 7.84048 8.47285V8.9375H7.43677H7.03306L7.0229 8.57441C7.01528 8.24687 7.00767 8.20117 6.94673 8.06914C6.8604 7.88125 6.66235 7.6832 6.47446 7.59687C6.32974 7.52832 6.3272 7.52832 5.64927 7.5207C5.05005 7.51309 4.9688 7.50801 4.98149 7.475C4.98911 7.45215 4.99673 7.31504 4.99673 7.17031V6.90625H5.88032C6.36528 6.90625 6.83755 6.91894 6.93149 6.93164ZM6.27895 7.99043C6.39829 8.05391 6.49731 8.15547 6.56079 8.27734C6.59888 8.35098 6.60903 8.45508 6.61919 8.90195L6.63442 9.4377L6.71567 9.59258L6.79692 9.75H4.89263H2.99087V9.6459C2.99087 9.25488 3.26255 8.47793 3.48599 8.2291C3.5977 8.10723 3.83384 7.98027 4.00903 7.9498C4.0852 7.93711 4.60317 7.92695 5.16177 7.92949C6.14946 7.93457 6.17993 7.93711 6.27895 7.99043ZM11.6364 8.80293C12.1391 8.95527 12.487 9.425 12.487 9.95059C12.487 10.6209 11.9614 11.1465 11.2936 11.1465C10.7629 11.1465 10.2881 10.7936 10.1409 10.2883L10.1028 10.1562H10.3034H10.5014L10.5192 10.2299C10.542 10.334 10.6842 10.5244 10.8036 10.6133C10.9483 10.7199 11.0956 10.7656 11.2961 10.7656C11.6338 10.7656 11.9106 10.5904 12.0477 10.2908C12.101 10.1766 12.1137 10.1105 12.1137 9.95059C12.1137 9.77539 12.101 9.72715 12.0325 9.5875C11.9411 9.39961 11.8243 9.28535 11.6313 9.19902C11.4561 9.11777 11.1895 9.1127 10.994 9.18633L10.8594 9.23711L10.9051 9.16855C10.9305 9.13047 11.0092 9.01875 11.0778 8.91719L11.2047 8.73691L11.3571 8.75215C11.4409 8.75723 11.5678 8.78262 11.6364 8.80293ZM8.24165 9.40215C8.3356 9.45293 8.42446 9.58242 8.42446 9.66621C8.42446 9.71445 8.40669 9.72207 8.22895 9.7373C7.9522 9.76523 7.54341 9.73984 7.42153 9.68906C7.30474 9.64082 7.16763 9.51641 7.11431 9.4123L7.07622 9.34121L7.61704 9.34883C8.07915 9.35645 8.17056 9.36406 8.24165 9.40215ZM11.4967 9.63066C11.7405 9.79316 11.7405 10.1131 11.4967 10.2756C11.352 10.3746 11.126 10.3467 11.0042 10.2096L10.9559 10.1562H11.1743C11.4383 10.1562 11.4967 10.1207 11.4967 9.95312C11.4967 9.78809 11.4383 9.75 11.1768 9.75C10.9762 9.75 10.961 9.74746 10.9915 9.70684C11.1108 9.56465 11.3495 9.5291 11.4967 9.63066ZM4.21978 10.2223C4.26294 10.3924 4.46099 10.6057 4.66411 10.6996C4.82915 10.7732 5.16431 10.7732 5.32935 10.6996C5.53247 10.6057 5.73052 10.3924 5.77368 10.2223C5.78892 10.1588 5.79653 10.1562 5.9895 10.1562H6.18755L6.14946 10.2883C6.0022 10.7936 5.52739 11.1465 4.99673 11.1465C4.46606 11.1465 3.99126 10.7936 3.84399 10.2883L3.80591 10.1562H4.00395C4.19692 10.1562 4.20454 10.1588 4.21978 10.2223ZM5.28618 10.2096C5.21255 10.2908 5.11099 10.334 4.99673 10.334C4.88247 10.334 4.78091 10.2908 4.70728 10.2096L4.65903 10.1562H4.99673H5.33442L5.28618 10.2096Z" fill="#084C3F"/>
</g>
<defs>
<clipPath id="clip0_17918_21895">
<rect width="13" height="13" fill="white" transform="translate(0.324219)"/>
</clipPath>
</defs>
</svg>
