<svg width="12" height="12" viewBox="0 0 12 12" fill="none" xmlns="http://www.w3.org/2000/svg">
<path d="M4.92098 0.166341L9.18235 1.49634C9.30688 1.53523 9.40612 1.60523 9.48006 1.70634C9.55401 1.80745 9.59098 1.92412 9.59098 2.05634V3.08301H10.7585C10.9219 3.08301 11.0601 3.1394 11.1729 3.25217C11.2858 3.36495 11.3422 3.50301 11.3422 3.66634V8.33301C11.3422 8.49634 11.2858 8.6344 11.1729 8.74717C11.0601 8.85995 10.9219 8.91634 10.7585 8.91634H8.8788C8.6453 9.21967 8.37288 9.48023 8.06155 9.69801L4.92098 11.833L1.7804 9.69801C1.30562 9.37134 0.932018 8.95134 0.659602 8.43801C0.387185 7.92467 0.250977 7.38023 0.250977 6.80467V2.05634C0.250977 1.92412 0.287947 1.80745 0.361889 1.70634C0.435831 1.60523 0.535068 1.53523 0.659602 1.49634L4.92098 0.166341ZM4.92098 1.39134L1.41848 2.47634V6.80467C1.41848 7.16245 1.49826 7.50467 1.65781 7.83134C1.81737 8.15801 2.04114 8.43023 2.32913 8.64801L2.4342 8.72967L4.92098 10.4213L7.12755 8.91634H4.33723C4.17378 8.91634 4.03562 8.85995 3.92276 8.74717C3.80991 8.6344 3.75348 8.49634 3.75348 8.33301V3.66634C3.75348 3.50301 3.80991 3.36495 3.92276 3.25217C4.03562 3.1394 4.17378 3.08301 4.33723 3.08301H8.42348V2.47634L4.92098 1.39134ZM4.92098 5.99967V7.74967H10.1747V5.99967H4.92098ZM4.92098 4.83301H10.1747V4.24967H4.92098V4.83301Z" fill="#3CB5B5"/>
</svg>
