<svg width="15" height="15" viewBox="0 0 15 15" fill="none" xmlns="http://www.w3.org/2000/svg">
<path d="M5.74752 12.3651H6.64553L6.96042 10.3934C7.02262 9.99674 7.20728 9.66813 7.51439 9.40757C7.8215 9.14702 8.17721 9.01674 8.58151 9.01674H8.87307C9.65834 9.01674 10.2609 8.85729 10.6808 8.5384C11.1006 8.21952 11.3805 7.69452 11.5205 6.96341C11.6371 6.38007 11.606 5.97174 11.4272 5.7384C11.0928 6.59396 10.5602 7.22396 9.82939 7.62841C9.16852 7.98618 8.34826 8.16507 7.36861 8.16507H6.84379C6.72717 8.16507 6.62026 8.19618 6.52308 8.2584C6.42589 8.32063 6.36952 8.40229 6.35397 8.50341L5.74752 12.3651ZM2.86688 12.1901C2.76581 12.1901 2.68223 12.1531 2.61614 12.0792C2.55005 12.0053 2.52478 11.9178 2.54033 11.8167L4.10311 1.9234C4.12643 1.79118 4.18863 1.68229 4.28971 1.59674C4.39078 1.51118 4.50741 1.4684 4.63958 1.4684H8.38324C9.75164 1.4684 10.7041 1.77174 11.2406 2.3784C11.4894 2.66618 11.6546 2.97924 11.7362 3.31757C11.8179 3.6559 11.8198 4.06229 11.742 4.53674C11.9597 4.65341 12.1386 4.78952 12.2785 4.94507C12.7295 5.4584 12.8616 6.20896 12.675 7.19674C12.4651 8.24674 12.0103 9.02063 11.3105 9.5184C10.6963 9.96174 9.88382 10.1834 8.87307 10.1834H8.58151C8.46488 10.1834 8.36186 10.2203 8.27245 10.2942C8.18304 10.3681 8.13056 10.4634 8.11501 10.5801L7.70682 13.1351C7.69127 13.244 7.63879 13.3373 7.54938 13.4151C7.45996 13.4928 7.35694 13.5317 7.24032 13.5317H4.70956C4.62403 13.5317 4.55406 13.4987 4.49963 13.4326C4.44521 13.3665 4.42188 13.2906 4.42966 13.2051L4.59293 12.1901H2.86688ZM6.84379 6.9984H7.36861C8.30938 6.9984 9.0344 6.8059 9.54366 6.42091C10.0529 6.0359 10.3931 5.40785 10.5641 4.53674L10.5991 4.35007C10.6458 4.04674 10.6516 3.80952 10.6166 3.6384C10.5816 3.46729 10.4961 3.30396 10.36 3.14841C10.224 2.99285 9.99267 2.86841 9.66612 2.77507C9.31624 2.68174 8.88862 2.63507 8.38324 2.63507H5.17606L3.84653 11.0234H4.76787L5.18772 8.3284C5.28102 7.93952 5.48123 7.62063 5.78834 7.37174C6.09545 7.12285 6.44727 6.9984 6.84379 6.9984Z" fill="#374151"/>
</svg>
