<svg width="20" height="20" viewBox="0 0 20 20" fill="none" xmlns="http://www.w3.org/2000/svg">
<path d="M1.66602 16.666H18.3327V18.3327H1.66602V16.666ZM3.33268 9.99935H4.99935V15.8327H3.33268V9.99935ZM7.49935 9.99935H9.16602V15.8327H7.49935V9.99935ZM10.8327 9.99935H12.4993V15.8327H10.8327V9.99935ZM14.9993 9.99935H16.666V15.8327H14.9993V9.99935ZM1.66602 5.83268L9.99935 1.66602L18.3327 5.83268V9.16602H1.66602V5.83268ZM3.33268 6.86274V7.49935H16.666V6.86274L9.99935 3.52941L3.33268 6.86274ZM9.99935 6.66602C9.5391 6.66602 9.16602 6.29292 9.16602 5.83268C9.16602 5.37245 9.5391 4.99935 9.99935 4.99935C10.4596 4.99935 10.8327 5.37245 10.8327 5.83268C10.8327 6.29292 10.4596 6.66602 9.99935 6.66602Z" fill="#1C1C1C"/>
<rect width="8" height="6.4" transform="translate(9 9.80078)" fill="#EDF2F7"/>
<path d="M13.3237 10C14.6064 10 15.6475 11.0989 15.6475 12.4528C15.6475 13.8068 14.6064 14.9057 13.3237 14.9057C12.041 14.9057 11 13.8068 11 12.4528C11 11.0989 12.041 10 13.3237 10ZM13.3237 12.2075H12.3942V12.6981H13.3237V13.434L14.2532 12.4528L13.3237 11.4717V12.2075Z" fill="#1C1C1C"/>
</svg>
