<svg width="20" height="20" viewBox="0 0 20 20" fill="none" xmlns="http://www.w3.org/2000/svg">
<path d="M5.58926 18.1203H14.4092C15.5142 18.1203 16.4129 17.2219 16.4129 16.1174V9.41855C16.4129 8.31408 15.5142 7.41562 14.4094 7.41562H5.58926C4.48426 7.41562 3.58555 8.31407 3.58555 9.41855V16.1174C3.58555 17.2219 4.48426 18.1203 5.58926 18.1203ZM4.5668 9.41855C4.5668 8.8553 5.02547 8.39688 5.58926 8.39688H14.4094C14.973 8.39688 15.4316 8.85529 15.4316 9.41855V16.1174C15.4316 16.6806 14.973 17.1391 14.4092 17.1391H5.58926C5.02547 17.1391 4.5668 16.6806 4.5668 16.1174V9.41855Z" fill="#1E1926" stroke="#1E1926" stroke-width="0.2"/>
<path d="M13.6605 8.39746H13.7605V8.29746V5.63984C13.7605 4.63521 13.3694 3.69044 12.6592 2.98027L12.6591 2.98023C11.948 2.26992 11.0031 1.87852 9.99922 1.87852C7.92504 1.87852 6.23789 3.56567 6.23789 5.63984V8.29746V8.39746H6.33789H13.6605ZM9.60859 13.2982H9.50859V13.3982V15.1461V15.2461H9.60859H10.3898H10.4898V15.1461V13.3982V13.2982H10.3898H9.60859ZM12.7793 7.41621H7.21914V5.63984C7.21914 4.10699 8.46636 2.85977 9.99922 2.85977C10.7414 2.85977 11.4396 3.14881 11.9656 3.67421C12.4904 4.1992 12.7793 4.89681 12.7793 5.63984V7.41621Z" fill="#1E1926" stroke="#1E1926" stroke-width="0.2"/>
<path d="M8.41211 12.4512C8.41211 13.3269 9.12423 14.0391 10 14.0391C10.8758 14.0391 11.5879 13.3269 11.5879 12.4512C11.5879 11.5754 10.8758 10.8633 10 10.8633C9.12423 10.8633 8.41211 11.5754 8.41211 12.4512ZM9.69336 12.4512C9.69336 12.2824 9.83124 12.1445 10 12.1445C10.1688 12.1445 10.3066 12.2824 10.3066 12.4512C10.3066 12.6199 10.1688 12.7578 10 12.7578C9.83124 12.7578 9.69336 12.6199 9.69336 12.4512Z" fill="#1E1926" stroke="#1E1926" stroke-width="0.5"/>
</svg>
