<svg width="16" height="14" viewBox="0 0 16 14" fill="none" xmlns="http://www.w3.org/2000/svg">
<path d="M7.99227 0.583171L12.7856 1.64484C12.9177 1.67595 13.0266 1.74595 13.1121 1.85484C13.1976 1.96373 13.2404 2.08428 13.2404 2.2165V8.03817C13.2404 8.62928 13.1024 9.1815 12.8264 9.69484C12.5504 10.2082 12.1674 10.6282 11.6776 10.9548L7.99227 13.4165L4.30692 10.9548C3.81709 10.6282 3.43417 10.2082 3.15816 9.69484C2.88215 9.1815 2.74414 8.62928 2.74414 8.03817V2.2165C2.74414 2.08428 2.7869 1.96373 2.87243 1.85484C2.95795 1.74595 3.0668 1.67595 3.19898 1.64484L7.99227 0.583171ZM7.99227 1.77317L3.91039 2.68317V8.03817C3.91039 8.43484 4.00175 8.80428 4.18446 9.1465C4.36717 9.48873 4.6218 9.76873 4.94835 9.9865L7.99227 12.0165L11.0362 9.9865C11.3627 9.76873 11.6174 9.48873 11.8001 9.1465C11.9828 8.80428 12.0741 8.43484 12.0741 8.03817V2.68317L7.99227 1.77317ZM10.593 4.79484L11.4094 5.62317L7.7007 9.33317L5.22825 6.85984L6.05629 6.0315L7.7007 7.68817L10.593 4.79484Z" fill="#3CB5B5"/>
</svg>
