<svg width="20" height="20" viewBox="0 0 20 20" fill="none" xmlns="http://www.w3.org/2000/svg">
<path d="M12.5 2.08203V3.33203C12.5 4.51054 12.5 5.0998 12.8661 5.46591C13.2322 5.83203 13.8215 5.83203 15 5.83203H16.25" stroke="#1C1C1C" stroke-width="1.5" stroke-linecap="round" stroke-linejoin="round"/>
<path d="M3.33398 13.3327V6.66602C3.33398 4.30899 3.33398 3.13048 4.06622 2.39825C4.79845 1.66602 5.97696 1.66602 8.33398 1.66602H11.8103C12.1509 1.66602 12.3212 1.66602 12.4744 1.72945C12.6275 1.79288 12.7479 1.91331 12.9888 2.15417L16.1792 5.34453C16.42 5.58539 16.5405 5.70581 16.6039 5.85896C16.6673 6.0121 16.6673 6.18241 16.6673 6.52304V13.3327C16.6673 15.6897 16.6673 16.8682 15.9351 17.6004C15.2029 18.3327 14.0243 18.3327 11.6673 18.3327H8.33398C5.97696 18.3327 4.79845 18.3327 4.06622 17.6004C3.33398 16.8682 3.33398 15.6897 3.33398 13.3327Z" stroke="#1C1C1C" stroke-width="1.5" stroke-linecap="round" stroke-linejoin="round"/>
<path d="M6.66797 9.16602H13.3346M6.66797 11.666H13.3346M6.66797 14.166H10.1437" stroke="#1C1C1C" stroke-width="1.5" stroke-linecap="round" stroke-linejoin="round"/>
</svg>
