<svg width="16" height="16" viewBox="0 0 16 16" fill="none" xmlns="http://www.w3.org/2000/svg">
<path d="M8 16C3.58172 16 0 12.4182 0 8C0 3.58172 3.58172 0 8 0C12.4182 0 16 3.58172 16 8C16 12.4182 12.4182 16 8 16ZM7.2 10.4V12H8.8V10.4H7.2ZM8.8 9.08408C9.95656 8.73984 10.8 7.6684 10.8 6.4C10.8 4.8536 9.5464 3.6 8 3.6C6.6416 3.6 5.5091 4.56735 5.25385 5.85077L6.82304 6.16462C6.93248 5.61458 7.41784 5.2 8 5.2C8.66272 5.2 9.2 5.73726 9.2 6.4C9.2 7.06272 8.66272 7.6 8 7.6C7.55816 7.6 7.2 7.95816 7.2 8.4V9.6H8.8V9.08408Z" fill="#084C3F"/>
</svg>
