<svg width="12" height="12" viewBox="0 0 12 12" fill="none" xmlns="http://www.w3.org/2000/svg">
<path d="M5.99238 11.8335C5.19933 11.8335 4.44127 11.6818 3.7182 11.3785C3.02622 11.0829 2.41005 10.6649 1.86969 10.1243C1.32933 9.58377 0.91142 8.96739 0.61597 8.27516C0.312745 7.55183 0.161133 6.7935 0.161133 6.00016C0.161133 5.20683 0.312745 4.4485 0.61597 3.72516C0.91142 3.03294 1.32933 2.41655 1.86969 1.876C2.41005 1.33544 3.02622 0.917385 3.7182 0.621829C4.44127 0.318496 5.19933 0.166829 5.99238 0.166829C6.78543 0.166829 7.5435 0.318496 8.26657 0.621829C8.95855 0.917385 9.57471 1.33544 10.1151 1.876C10.6554 2.41655 11.0733 3.03294 11.3688 3.72516C11.672 4.4485 11.8236 5.20683 11.8236 6.00016C11.8236 6.7935 11.672 7.55183 11.3688 8.27516C11.0733 8.96739 10.6554 9.58377 10.1151 10.1243C9.57471 10.6649 8.95855 11.0829 8.26657 11.3785C7.5435 11.6818 6.78543 11.8335 5.99238 11.8335ZM5.99238 10.6668C6.83986 10.6668 7.62513 10.4529 8.34821 10.0252C9.04796 9.61294 9.60387 9.05683 10.0159 8.35683C10.4436 7.6335 10.6574 6.84794 10.6574 6.00016C10.6574 5.15238 10.4436 4.36683 10.0159 3.6435C9.60387 2.9435 9.04796 2.38739 8.34821 1.97516C7.62513 1.54739 6.83986 1.3335 5.99238 1.3335C5.14491 1.3335 4.35963 1.54739 3.63656 1.97516C2.93681 2.38739 2.3809 2.9435 1.96882 3.6435C1.5412 4.36683 1.32738 5.15238 1.32738 6.00016C1.32738 6.84794 1.5412 7.6335 1.96882 8.35683C2.3809 9.05683 2.93681 9.61294 3.63656 10.0252C4.35963 10.4529 5.14491 10.6668 5.99238 10.6668ZM5.40926 7.75016H6.57551V8.91683H5.40926V7.75016ZM6.57551 6.7935V7.16683H5.40926V6.29183C5.40926 6.1285 5.46563 5.99044 5.57836 5.87766C5.6911 5.76488 5.82911 5.7085 5.99238 5.7085C6.23341 5.7085 6.43945 5.62294 6.6105 5.45183C6.78155 5.28072 6.86707 5.07461 6.86707 4.8335C6.86707 4.59238 6.78155 4.38627 6.6105 4.21516C6.43945 4.04405 6.23341 3.9585 5.99238 3.9585C5.78246 3.9585 5.5978 4.02461 5.43841 4.15683C5.27903 4.28905 5.17601 4.45627 5.12936 4.6585L3.98643 4.43683C4.04863 4.12572 4.17692 3.84572 4.3713 3.59683C4.56567 3.34794 4.80281 3.15155 5.08271 3.00766C5.36261 2.86377 5.66583 2.79183 5.99238 2.79183C6.36558 2.79183 6.70768 2.88322 7.01868 3.066C7.32968 3.24877 7.57654 3.49572 7.75925 3.80683C7.94196 4.11794 8.03332 4.46016 8.03332 4.8335C8.03332 5.29239 7.89726 5.70072 7.62513 6.0585C7.35301 6.41627 7.00313 6.66127 6.57551 6.7935Z" fill="#3CB5B5"/>
</svg>
