<svg width="21" height="20" viewBox="0 0 21 20" fill="none" xmlns="http://www.w3.org/2000/svg">
<path d="M16.6686 9.68906L17.8494 11.7568C18.098 12.1817 18.2197 12.6352 18.2146 13.1171C18.2094 13.5991 18.0877 14.05 17.8494 14.4697C17.6112 14.8895 17.2823 15.2212 16.8628 15.4647C16.4433 15.7083 15.9901 15.8301 15.5033 15.8301H13.9029V17.7734L10.0185 15.0527L13.9029 12.332V14.2754H15.5033C15.7104 14.2754 15.9021 14.2236 16.0782 14.1199C16.3578 13.9541 16.5391 13.7157 16.622 13.4048C16.7048 13.0938 16.6686 12.8036 16.5132 12.5341L15.3168 10.4664L16.6686 9.68906ZM7.1441 7.38813L7.54807 12.1144L5.87002 11.1349L5.07761 12.5341C4.97403 12.7103 4.92224 12.9021 4.92224 13.1094C4.92224 13.4307 5.03359 13.7053 5.25629 13.9334C5.479 14.1614 5.75608 14.2754 6.08755 14.2754H8.46479V15.8301H6.08755C5.59035 15.8301 5.13458 15.7083 4.72025 15.4647C4.30591 15.2212 3.97704 14.8921 3.73362 14.4775C3.4902 14.0629 3.36848 13.6095 3.36848 13.1171C3.36848 12.6248 3.48761 12.1714 3.72585 11.7568L4.51826 10.3576L2.84021 9.39367L7.1441 7.38813ZM12.1472 2.58414C12.5719 2.83289 12.9033 3.16974 13.1416 3.59469L13.9495 4.97836L15.6276 3.99891L15.2081 8.72516L10.9197 6.71961L12.5978 5.7557L11.8053 4.37203C11.7018 4.18547 11.5567 4.04036 11.3703 3.93672C11.0906 3.78125 10.7954 3.74497 10.4847 3.82789C10.1739 3.91081 9.94085 4.09219 9.78547 4.37203L8.58909 6.42422L7.23732 5.64688L8.43371 3.59469C8.68231 3.15938 9.01637 2.82253 9.43588 2.58414C9.85539 2.34576 10.306 2.22656 10.7876 2.22656C11.2693 2.22656 11.7225 2.34576 12.1472 2.58414Z" fill="#D97706"/>
</svg>
