<svg width="20" height="20" viewBox="0 0 20 20" fill="none" xmlns="http://www.w3.org/2000/svg">
<path d="M5.68025 2.22656C6.70573 2.22656 7.65352 2.49604 8.52362 3.035C9.373 3.55323 10.0308 4.25284 10.4969 5.13383C10.963 4.48086 11.5482 3.96263 12.2526 3.57914C12.9881 3.19565 13.7753 3.00391 14.6143 3.00391H17.3334V4.94727C17.3334 5.85935 17.1055 6.70924 16.6497 7.49695C16.2043 8.26393 15.5984 8.87026 14.8318 9.31594C14.0446 9.77198 13.1952 10 12.2837 10H11.1184V10.7773H15.0028V16.2188C15.0028 16.4986 14.9328 16.7577 14.793 16.9961C14.6532 17.2345 14.4641 17.4236 14.2259 17.5636C13.9876 17.7035 13.7287 17.7734 13.449 17.7734H7.234C6.95433 17.7734 6.69537 17.7035 6.45713 17.5636C6.21889 17.4236 6.02985 17.2345 5.89001 16.9961C5.75017 16.7577 5.68025 16.4986 5.68025 16.2188V10.7773H9.56463V9.22266H8.01088C7.02684 9.22266 6.11012 8.97391 5.26074 8.47641C4.44243 7.99964 3.79504 7.35185 3.31855 6.53305C2.82135 5.68315 2.57275 4.76589 2.57275 3.78125V2.22656H5.68025ZM13.449 12.332H7.234V16.2188H13.449V12.332ZM15.7796 4.55859H14.6143C13.9825 4.55859 13.3998 4.71665 12.8663 5.03277C12.3329 5.34889 11.9082 5.77384 11.5923 6.30762C11.2763 6.84139 11.1184 7.4244 11.1184 8.05664V8.44531H12.2837C12.9155 8.44531 13.4982 8.28725 14.0317 7.97113C14.5651 7.65501 14.9898 7.23007 15.3057 6.69629C15.6217 6.16251 15.7796 5.5795 15.7796 4.94727V4.55859ZM5.68025 3.78125H4.1265C4.1265 4.48604 4.30001 5.13642 4.64701 5.73238C4.99401 6.32835 5.46532 6.79993 6.06092 7.14715C6.65653 7.49436 7.30651 7.66797 8.01088 7.66797H9.56463C9.56463 6.96318 9.39113 6.3128 9.04412 5.71684C8.69712 5.12087 8.22581 4.64928 7.63021 4.30207C7.03461 3.95486 6.38462 3.78125 5.68025 3.78125Z" fill="#16A34A"/>
</svg>
