<svg width="50" height="50" viewBox="0 0 50 50" fill="none" xmlns="http://www.w3.org/2000/svg">
<path d="M22.7549 1.03608C19.9424 1.37788 17.7939 1.93452 15.4307 2.95014C11.4072 4.66889 7.82324 7.59858 5.28418 11.2314C3.18457 14.2392 1.84668 17.5791 1.20215 21.4365C0.948242 22.9697 0.948242 27.0224 1.20215 28.5654C1.70996 31.6123 2.73535 34.5419 4.13184 36.9443C7.83301 43.3017 13.917 47.5205 21.1436 48.7412C22.6572 48.9951 25.6943 49.0927 27.2861 48.9365C34.2979 48.2529 40.5381 44.6298 44.6494 38.8583C46.7588 35.8994 48.165 32.4228 48.7998 28.5654C49.0537 27.0224 49.0537 22.9697 48.7998 21.4365C47.9111 16.1044 45.665 11.6708 41.9932 8.00874C38.3604 4.37592 33.8975 2.1103 28.6143 1.21186C27.7256 1.06538 23.585 0.938423 22.7549 1.03608ZM27.833 4.25874C34.4639 5.12788 40.4307 9.34663 43.5752 15.4013C45.1475 18.4189 45.9092 21.5439 45.9092 25.0009C45.9092 26.0556 45.8506 27.1494 45.7529 27.7939C44.7666 34.6591 40.5869 40.5185 34.4541 43.6533C30.1084 45.8798 25.0498 46.4951 20.2646 45.3915C14.4053 44.0341 9.23926 40.0107 6.42676 34.6005C4.85449 31.5927 4.09277 28.4384 4.09277 25.0009C4.09277 23.0673 4.24902 21.7685 4.69824 19.9228C6.11426 14.1708 10.1377 9.11225 15.4502 6.38764C19.3271 4.40522 23.4873 3.69233 27.833 4.25874Z" fill="#EE0202"/>
<path d="M16.7006 16.0635C13.9564 16.8154 13.683 20.624 16.2904 21.8057C16.974 22.1084 18.0384 22.0986 18.7611 21.7568C19.8549 21.2588 20.4213 20.4287 20.4896 19.2275C20.5482 18.2314 20.3529 17.6455 19.7181 16.9521C18.9369 16.1025 17.8041 15.7705 16.7006 16.0635Z" fill="#EE0202"/>
<path d="M31.8654 16.015C30.8986 16.2201 29.9416 17.0599 29.6291 17.9876C29.4142 18.6517 29.4728 19.8138 29.7658 20.3802C30.508 21.8158 32.3732 22.4505 33.8088 21.7474C34.4435 21.4349 34.9904 20.8685 35.2834 20.224C35.6154 19.5208 35.5861 18.388 35.2248 17.6556C34.6193 16.4251 33.2033 15.7318 31.8654 16.015Z" fill="#EE0202"/>
<path d="M23.3889 26.5232C19.053 27.1385 15.8401 29.1111 13.594 32.5193C13.1252 33.2224 13.0373 33.4178 13.008 33.906C12.9592 34.5896 13.2033 35.0681 13.7795 35.3513C14.2385 35.5857 14.6194 35.5955 15.1467 35.3904C15.4787 35.2537 15.635 35.0779 16.0842 34.3845C17.0412 32.9002 18.4377 31.6111 19.9612 30.8006C21.5725 29.9412 23.0471 29.5896 25.0002 29.5896C26.9533 29.5896 28.428 29.9412 30.0393 30.8006C30.4885 31.0447 31.1135 31.4353 31.4162 31.6697C32.2756 32.324 33.3987 33.5545 33.926 34.4041C34.2776 34.9607 34.5022 35.2146 34.7756 35.3513C35.508 35.7322 36.3479 35.5174 36.7873 34.8533C37.0022 34.531 37.0315 34.3943 36.9924 33.906C36.9631 33.4178 36.8752 33.2322 36.4065 32.5193C34.4338 29.5115 31.5237 27.5291 27.9787 26.7478C27.1291 26.5623 24.1506 26.4158 23.3889 26.5232Z" fill="#EE0202"/>
</svg>
