<svg width="20" height="21" viewBox="0 0 20 21" fill="none" xmlns="http://www.w3.org/2000/svg">
<path d="M15.0271 14.3486L18.5961 17.9176L17.4176 19.0961L13.8486 15.5271C12.5654 16.5538 10.938 17.168 9.16797 17.168C5.02797 17.168 1.66797 13.808 1.66797 9.66797C1.66797 5.52797 5.02797 2.16797 9.16797 2.16797C13.308 2.16797 16.668 5.52797 16.668 9.66797C16.668 11.438 16.0538 13.0654 15.0271 14.3486ZM13.3552 13.7303C14.3742 12.6801 15.0013 11.2476 15.0013 9.66797C15.0013 6.44505 12.3909 3.83464 9.16797 3.83464C5.94505 3.83464 3.33464 6.44505 3.33464 9.66797C3.33464 12.8909 5.94505 15.5013 9.16797 15.5013C10.7476 15.5013 12.1801 14.8742 13.2303 13.8552L13.3552 13.7303Z" fill="white"/>
</svg>
