<svg width="16" height="21" viewBox="0 0 16 21" fill="none" xmlns="http://www.w3.org/2000/svg">
<path d="M8.20332 16.3335C7.41027 16.3335 6.65221 16.1818 5.92913 15.8785C5.23716 15.5829 4.62099 15.1649 4.08063 14.6243C3.54026 14.0838 3.12236 13.4674 2.82691 12.7752C2.52368 12.0518 2.37207 11.2935 2.37207 10.5002C2.37207 9.70683 2.52368 8.9485 2.82691 8.22516C3.12236 7.53294 3.54026 6.91655 4.08063 6.376C4.62099 5.83544 5.23716 5.41739 5.92913 5.12183C6.65221 4.8185 7.41027 4.66683 8.20332 4.66683C8.99637 4.66683 9.75443 4.8185 10.4775 5.12183C11.1695 5.41739 11.7857 5.83544 12.326 6.376C12.8664 6.91655 13.2843 7.53294 13.5797 8.22516C13.883 8.9485 14.0346 9.70683 14.0346 10.5002C14.0346 11.2935 13.883 12.0518 13.5797 12.7752C13.2843 13.4674 12.8664 14.0838 12.326 14.6243C11.7857 15.1649 11.1695 15.5829 10.4775 15.8785C9.75443 16.1818 8.99637 16.3335 8.20332 16.3335ZM7.6202 12.8335L11.7487 8.7035L10.9207 7.88683L7.6202 11.1885L5.97578 9.53183L5.14775 10.3602L7.6202 12.8335Z" fill="#3CB5B5"/>
</svg>
