<svg width="16" height="16" viewBox="0 0 16 16" fill="none" xmlns="http://www.w3.org/2000/svg">
<path d="M1.26427 11.8868C0.932801 11.3167 0.679021 10.7156 0.50293 10.0833C0.886188 9.88639 1.19435 9.60137 1.42741 9.22824C1.66047 8.85512 1.777 8.44572 1.777 8.00004C1.777 7.55436 1.66047 7.14496 1.42741 6.77184C1.19435 6.39871 0.886188 6.11368 0.50293 5.91676C0.865471 4.62118 1.51287 3.49663 2.44512 2.54309C2.80766 2.78147 3.20904 2.90844 3.64927 2.92398C4.0895 2.93953 4.50125 2.83589 4.8845 2.61305C5.26776 2.39021 5.56298 2.08445 5.77014 1.69578C5.97731 1.30711 6.07053 0.900299 6.04982 0.475351C7.34461 0.13332 8.6394 0.13332 9.93419 0.475351C9.91348 0.900299 10.0067 1.30711 10.2139 1.69578C10.421 2.08445 10.7162 2.39021 11.0995 2.61305C11.4828 2.83589 11.8945 2.93953 12.3347 2.92398C12.775 2.90844 13.1764 2.78147 13.5389 2.54309C13.9947 3.01986 14.3883 3.54327 14.7197 4.11332C15.0512 4.68337 15.305 5.28452 15.4811 5.91676C15.0978 6.11368 14.7897 6.39871 14.5566 6.77184C14.3235 7.14496 14.207 7.55436 14.207 8.00004C14.207 8.44572 14.3235 8.85512 14.5566 9.22824C14.7897 9.60137 15.0978 9.88639 15.4811 10.0833C15.1185 11.3789 14.4711 12.5035 13.5389 13.457C13.1764 13.2186 12.775 13.0916 12.3347 13.0761C11.8945 13.0605 11.4828 13.1642 11.0995 13.387C10.7162 13.6099 10.421 13.9156 10.2139 14.3043C10.0067 14.693 9.91348 15.0998 9.93419 15.5247C8.6394 15.8668 7.34461 15.8668 6.04982 15.5247C6.07053 15.0998 5.97731 14.693 5.77014 14.3043C5.56298 13.9156 5.26776 13.6099 4.8845 13.387C4.50125 13.1642 4.0895 13.0605 3.64927 13.0761C3.20904 13.0916 2.80766 13.2186 2.44512 13.457C1.98935 12.9802 1.59573 12.4568 1.26427 11.8868ZM5.66138 12.0422C6.07571 12.2806 6.43308 12.5864 6.73347 12.9595C7.03386 13.3326 7.26174 13.742 7.41712 14.1877C7.80038 14.2292 8.18363 14.2292 8.56689 14.1877C8.72227 13.742 8.94756 13.3326 9.24277 12.9595C9.53799 12.5864 9.89535 12.278 10.3149 12.0345C10.7344 11.7909 11.1824 11.6328 11.6589 11.5603C12.1353 11.4877 12.6015 11.5033 13.0572 11.6069C13.2851 11.2856 13.4819 10.9488 13.6477 10.5964C13.3265 10.244 13.0805 9.84493 12.9096 9.39926C12.7387 8.95358 12.6533 8.48717 12.6533 8.00004C12.6533 7.5129 12.7387 7.0465 12.9096 6.60082C13.0805 6.15514 13.3265 5.75611 13.6477 5.40371C13.5648 5.22751 13.4742 5.0565 13.3757 4.89066C13.2773 4.72483 13.1712 4.559 13.0572 4.39316C12.6015 4.49681 12.1353 4.51236 11.6589 4.43981C11.1824 4.36725 10.737 4.20919 10.3226 3.96562C9.9083 3.72206 9.55093 3.41371 9.25054 3.04059C8.95015 2.66746 8.72227 2.25806 8.56689 1.81238C8.18363 1.77092 7.80038 1.77092 7.41712 1.81238C7.26174 2.25806 7.03645 2.66746 6.74124 3.04059C6.44602 3.41371 6.08607 3.72206 5.66138 3.96562C5.23669 4.20919 4.78869 4.36725 4.31739 4.43981C3.84608 4.51236 3.38255 4.49681 2.92678 4.39316C2.6989 4.71447 2.50209 5.05132 2.33635 5.40371C2.65746 5.75611 2.90347 6.15514 3.07439 6.60082C3.2453 7.0465 3.33075 7.5129 3.33075 8.00004C3.33075 8.48717 3.2453 8.95358 3.07439 9.39926C2.90347 9.84493 2.65746 10.244 2.33635 10.5964C2.41922 10.7726 2.50986 10.9436 2.60826 11.1094C2.70667 11.2752 2.81284 11.4411 2.92678 11.6069C3.38255 11.5033 3.84867 11.4877 4.32515 11.5603C4.80164 11.6328 5.24705 11.7935 5.66138 12.0422ZM7.992 10.3321C7.56731 10.3321 7.17629 10.2284 6.81892 10.0211C6.46156 9.81384 6.1793 9.53141 5.97213 9.17383C5.76496 8.81625 5.66138 8.42499 5.66138 8.00004C5.66138 7.57509 5.76496 7.18383 5.97213 6.82625C6.1793 6.46867 6.46156 6.18624 6.81892 5.97895C7.17629 5.77165 7.56731 5.66801 7.992 5.66801C8.4167 5.66801 8.80772 5.77165 9.16509 5.97895C9.52245 6.18624 9.80471 6.46867 10.0119 6.82625C10.219 7.18383 10.3226 7.57509 10.3226 8.00004C10.3226 8.42499 10.219 8.81625 10.0119 9.17383C9.80471 9.53141 9.52245 9.81384 9.16509 10.0211C8.80772 10.2284 8.4167 10.3321 7.992 10.3321ZM7.992 8.77738C8.20953 8.77738 8.39339 8.70224 8.54359 8.55195C8.69378 8.40167 8.76888 8.2177 8.76888 8.00004C8.76888 7.78238 8.69378 7.59841 8.54359 7.44812C8.39339 7.29784 8.20953 7.2227 7.992 7.2227C7.77448 7.2227 7.59062 7.29784 7.44042 7.44812C7.29023 7.59841 7.21513 7.78238 7.21513 8.00004C7.21513 8.2177 7.29023 8.40167 7.44042 8.55195C7.59062 8.70224 7.77448 8.77738 7.992 8.77738Z" fill="black"/>
</svg>
