<svg width="23" height="23" viewBox="0 0 23 23" fill="none" xmlns="http://www.w3.org/2000/svg">
<path d="M11.957 7.23594V4.4401C11.957 4.19699 12.0536 3.96383 12.2255 3.79192C12.3974 3.62001 12.6305 3.52344 12.8736 3.52344C13.1141 3.52445 13.3446 3.61992 13.5153 3.78927L19.932 10.2059C20.0179 10.2912 20.0861 10.3925 20.1326 10.5042C20.1792 10.6159 20.2031 10.7358 20.2031 10.8568C20.2031 10.9778 20.1792 11.0976 20.1326 11.2093C20.0861 11.321 20.0179 11.4224 19.932 11.5076L13.5153 17.9243C13.3866 18.0504 13.2236 18.1358 13.0467 18.1698C12.8697 18.2039 12.6866 18.185 12.5204 18.1155C12.3541 18.0461 12.212 17.9291 12.1118 17.7794C12.0116 17.6296 11.9577 17.4536 11.957 17.2734V14.4318H11.1778C9.72955 14.4102 8.29394 14.704 6.97061 15.2928C5.64729 15.8817 4.46796 16.7515 3.51448 17.8418C3.39957 17.9947 3.23968 18.1079 3.05721 18.1655C2.87474 18.223 2.67885 18.222 2.49697 18.1626C2.3119 18.1001 2.15161 17.9802 2.03948 17.8203C1.92735 17.6603 1.86925 17.4687 1.87364 17.2734C1.87364 8.91344 9.28031 7.48344 11.957 7.23594ZM11.1778 12.5801C11.7909 12.5782 12.4034 12.618 13.0111 12.6993C13.2282 12.7322 13.4261 12.8419 13.5691 13.0084C13.7121 13.175 13.7906 13.3873 13.7903 13.6068V15.0643L17.9886 10.8568L13.7903 6.64927V8.10677C13.7903 8.34989 13.6937 8.58304 13.5218 8.75495C13.3499 8.92686 13.1168 9.02344 12.8736 9.02344C12.0395 9.02344 5.43948 9.20677 4.00948 14.9176C6.08509 13.3873 8.59907 12.5675 11.1778 12.5801Z" fill="#084C3F"/>
</svg>
