<svg width="14" height="10" viewBox="0 0 14 10" fill="none" xmlns="http://www.w3.org/2000/svg">
<path d="M5.02263 7.91699C4.97593 8.24366 4.85723 8.54116 4.66654 8.80949C4.47585 9.07783 4.23456 9.28783 3.94269 9.43949C3.65081 9.59116 3.33753 9.66699 3.00285 9.66699C2.66817 9.66699 2.35489 9.59116 2.06301 9.43949C1.77114 9.28783 1.52986 9.07783 1.33916 8.80949C1.14847 8.54116 1.02978 8.24366 0.983077 7.91699H0.375977V0.916992C0.375977 0.753659 0.432406 0.615603 0.545264 0.502826C0.658122 0.390048 0.796277 0.333659 0.959727 0.333659H9.13223C9.29568 0.333659 9.43383 0.390048 9.54669 0.502826C9.65955 0.615603 9.71598 0.753659 9.71598 0.916992V2.08366H11.4672L13.2185 4.45199V7.91699H12.0276C11.9809 8.24366 11.8622 8.54116 11.6715 8.80949C11.4808 9.07783 11.2396 9.28783 10.9477 9.43949C10.6558 9.59116 10.3425 9.66699 10.0079 9.66699C9.67317 9.66699 9.35989 9.59116 9.06801 9.43949C8.77614 9.28783 8.53486 9.07783 8.34416 8.80949C8.15347 8.54116 8.03478 8.24366 7.98808 7.91699H5.02263ZM8.54848 1.50033H1.54348V6.20199C1.73028 6.00755 1.95016 5.85588 2.20311 5.74699C2.45607 5.6381 2.72265 5.58366 3.00285 5.58366C3.40758 5.58366 3.77535 5.6906 4.10614 5.90449C4.43693 6.11838 4.68405 6.40033 4.8475 6.75033H8.1632C8.2566 6.5481 8.38503 6.36533 8.54848 6.20199V1.50033ZM9.71598 5.00033H12.051V4.83699L10.8835 3.25033H9.71598V5.00033ZM10.0079 8.50033C10.1947 8.50033 10.3639 8.44588 10.5157 8.33699C10.6675 8.2281 10.7745 8.0881 10.8368 7.91699C10.8679 7.82366 10.8835 7.72644 10.8835 7.62533C10.8835 7.38421 10.7979 7.1781 10.6266 7.00699C10.4554 6.83588 10.2491 6.75033 10.0079 6.75033C9.76657 6.75033 9.56031 6.83588 9.38908 7.00699C9.21784 7.1781 9.13223 7.38421 9.13223 7.62533C9.13223 7.72644 9.14779 7.82366 9.17893 7.91699C9.24119 8.0881 9.34821 8.2281 9.49999 8.33699C9.65176 8.44588 9.82105 8.50033 10.0079 8.50033ZM3.87848 7.62533C3.87848 7.38421 3.79286 7.1781 3.62163 7.00699C3.45039 6.83588 3.24413 6.75033 3.00285 6.75033C2.76157 6.75033 2.55531 6.83588 2.38408 7.00699C2.21284 7.1781 2.12723 7.38421 2.12723 7.62533C2.12723 7.72644 2.14279 7.82366 2.17393 7.91699C2.23619 8.0881 2.34321 8.2281 2.49499 8.33699C2.64676 8.44588 2.81605 8.50033 3.00285 8.50033C3.18965 8.50033 3.35894 8.44588 3.51071 8.33699C3.66249 8.2281 3.76951 8.0881 3.83178 7.91699C3.86291 7.82366 3.87848 7.72644 3.87848 7.62533Z" fill="#3CB5B5"/>
</svg>
