<svg width="17" height="16" viewBox="0 0 17 16" fill="none" xmlns="http://www.w3.org/2000/svg">
<path d="M11.8867 13.0454C12.1989 12.7332 12.5591 12.5771 12.9673 12.5771C13.3755 12.5771 13.7237 12.7332 14.0118 13.0454C14.324 13.3575 14.4801 13.7177 14.4801 14.1259C14.4801 14.5341 14.324 14.8943 14.0118 15.2065C13.7237 15.4946 13.3755 15.6387 12.9673 15.6387C12.5591 15.6387 12.1989 15.4946 11.8867 15.2065C11.5746 14.8943 11.4185 14.5341 11.4185 14.1259C11.4185 13.7177 11.5746 13.3575 11.8867 13.0454ZM0.648905 0.294767H3.17021L3.89058 1.80755H15.2725C15.4886 1.80755 15.6687 1.89159 15.8127 2.05968C15.9568 2.20375 16.0289 2.38385 16.0289 2.59996C16.0289 2.62397 15.9928 2.74403 15.9208 2.96014L13.1834 7.93071C12.8952 8.45899 12.451 8.72312 11.8507 8.72312H6.12374L5.43938 9.98378L5.40336 10.0918C5.40336 10.2119 5.46339 10.2719 5.58346 10.2719H14.4801V11.8207H5.25929C4.85108 11.8207 4.49089 11.6646 4.17873 11.3525C3.89058 11.0403 3.74651 10.6801 3.74651 10.2719C3.74651 10.0318 3.80654 9.79168 3.9266 9.55155L4.97114 7.64257L2.19771 1.80755H0.648905V0.294767ZM4.17873 13.0454C4.49089 12.7332 4.85108 12.5771 5.25929 12.5771C5.6675 12.5771 6.02769 12.7332 6.33985 13.0454C6.65201 13.3575 6.80809 13.7177 6.80809 14.1259C6.80809 14.5341 6.65201 14.8943 6.33985 15.2065C6.02769 15.4946 5.6675 15.6387 5.25929 15.6387C4.85108 15.6387 4.49089 15.4946 4.17873 15.2065C3.89058 14.8943 3.74651 14.5341 3.74651 14.1259C3.74651 13.7177 3.89058 13.3575 4.17873 13.0454Z" fill="white"/>
</svg>
