<svg width="15" height="16" viewBox="0 0 15 16" fill="none" xmlns="http://www.w3.org/2000/svg">
<path d="M14.1113 6.5954C14.1113 11.5064 7.11133 15.7158 7.11133 15.7158C7.11133 15.7158 0.111328 11.5064 0.111328 6.5954C0.111328 4.92078 0.848826 3.31475 2.16158 2.13062C3.47434 0.946489 5.25481 0.28125 7.11133 0.28125C8.96784 0.28125 10.7483 0.946489 12.0611 2.13062C13.3738 3.31475 14.1113 4.92078 14.1113 6.5954Z" fill="white"/>
<path d="M7.11068 8.51042C8.39934 8.51042 9.44401 7.58905 9.44401 6.45248C9.44401 5.3159 8.39934 4.39453 7.11068 4.39453C5.82201 4.39453 4.77734 5.3159 4.77734 6.45248C4.77734 7.58905 5.82201 8.51042 7.11068 8.51042Z" fill="#084C3F"/>
</svg>
