<svg width="16" height="15" viewBox="0 0 16 15" fill="none" xmlns="http://www.w3.org/2000/svg">
<path d="M12.4272 5.16699H13.0453C13.2552 5.16699 13.4496 5.21949 13.6284 5.32449C13.8073 5.42949 13.9492 5.57144 14.0541 5.75033C14.1591 5.92921 14.2116 6.12366 14.2116 6.33366V8.66699C14.2116 8.87699 14.1591 9.07144 14.0541 9.25033C13.9492 9.42921 13.8073 9.57116 13.6284 9.67616C13.4496 9.78116 13.2552 9.83366 13.0453 9.83366H12.4272C12.3339 10.5959 12.0695 11.2881 11.6341 11.9103C11.1987 12.5325 10.6506 13.0187 9.98974 13.3687C9.30554 13.7342 8.57469 13.917 7.79719 13.917V12.7503C8.42696 12.7503 9.01398 12.5909 9.55822 12.272C10.0869 11.9609 10.5068 11.5409 10.8178 11.012C11.1365 10.4675 11.2959 9.88033 11.2959 9.25033V5.75033C11.2959 5.12033 11.1365 4.5331 10.8178 3.98866C10.5068 3.45977 10.0869 3.03977 9.55822 2.72866C9.01398 2.40977 8.42696 2.25033 7.79719 2.25033C7.16741 2.25033 6.5804 2.40977 6.03615 2.72866C5.50745 3.03977 5.0876 3.45977 4.7766 3.98866C4.45782 4.5331 4.29844 5.12033 4.29844 5.75033V9.83366H2.54906C2.33914 9.83366 2.14476 9.78116 1.96594 9.67616C1.78711 9.57116 1.64522 9.42921 1.54026 9.25033C1.43529 9.07144 1.38281 8.87699 1.38281 8.66699V6.33366C1.38281 6.12366 1.43529 5.92921 1.54026 5.75033C1.64522 5.57144 1.78711 5.42949 1.96594 5.32449C2.14476 5.21949 2.33914 5.16699 2.54906 5.16699H3.16718C3.26048 4.40477 3.52483 3.71255 3.96023 3.09033C4.39562 2.4681 4.94376 1.98199 5.60464 1.63199C6.28884 1.26644 7.01969 1.08366 7.79719 1.08366C8.57469 1.08366 9.30554 1.26644 9.98974 1.63199C10.6506 1.98199 11.1987 2.4681 11.6341 3.09033C12.0695 3.71255 12.3339 4.40477 12.4272 5.16699ZM2.54906 6.33366V8.66699H3.13219V6.33366H2.54906ZM12.4622 6.33366V8.66699H13.0453V6.33366H12.4622ZM5.32474 9.70533L5.94285 8.71366C6.51043 9.07144 7.12854 9.25033 7.79719 9.25033C8.46584 9.25033 9.08395 9.07144 9.65152 8.71366L10.2696 9.70533C9.90421 9.93866 9.51157 10.1156 9.09172 10.2362C8.67188 10.3567 8.24036 10.417 7.79719 10.417C7.35401 10.417 6.9225 10.3567 6.50265 10.2362C6.0828 10.1156 5.69016 9.93866 5.32474 9.70533Z" fill="#3CB5B5"/>
</svg>
