<svg width="21" height="20" viewBox="0 0 21 20" fill="none" xmlns="http://www.w3.org/2000/svg">
<path d="M2.72365 8.3833H5.05428V17.7114H2.72365C2.50613 17.7114 2.32227 17.6363 2.17207 17.486C2.02188 17.3357 1.94678 17.1517 1.94678 16.9341V9.16064C1.94678 8.94299 2.02188 8.75902 2.17207 8.60873C2.32227 8.45844 2.50613 8.3833 2.72365 8.3833ZM6.84109 7.37275L11.8131 2.39775C11.8752 2.33557 11.9555 2.29929 12.0539 2.28893C12.1523 2.27856 12.2378 2.30447 12.3103 2.36666L12.9784 2.86416C13.1649 3.00926 13.2969 3.19064 13.3746 3.4083C13.4523 3.62596 13.4652 3.8488 13.4135 4.07682L12.5123 7.60596H17.4843C17.764 7.60596 18.0229 7.67592 18.2612 7.81584C18.4994 7.95576 18.6884 8.14492 18.8283 8.3833C18.9681 8.62169 19.038 8.8808 19.038 9.16064V10.7931C19.038 11.0004 18.9966 11.1973 18.9137 11.3838L16.521 17.2295C16.4588 17.3746 16.363 17.4912 16.2335 17.5793C16.104 17.6674 15.9616 17.7114 15.8062 17.7114H7.3849C7.16738 17.7114 6.98352 17.6363 6.83332 17.486C6.68313 17.3357 6.60803 17.1517 6.60803 16.9341V7.93244C6.60803 7.71479 6.68571 7.52822 6.84109 7.37275Z" fill="#EAB308"/>
</svg>
