<svg width="20" height="19" viewBox="0 0 20 19" fill="none" xmlns="http://www.w3.org/2000/svg">
<g clip-path="url(#clip0_660_12705)">
<path d="M9.99188 0.949219L16.3778 2.36398C16.5539 2.40544 16.6989 2.49872 16.8128 2.64383C16.9268 2.78893 16.9838 2.94958 16.9838 3.12578V10.8837C16.9838 11.6714 16.7999 12.4073 16.4322 13.0913C16.0644 13.7754 15.5543 14.3351 14.9017 14.7704L9.99188 18.0508L5.08203 14.7704C4.42945 14.3351 3.9193 13.7754 3.55158 13.0913C3.18386 12.4073 3 11.6714 3 10.8837V3.12578C3 2.94958 3.05697 2.78893 3.17091 2.64383C3.28485 2.49872 3.42987 2.40544 3.60596 2.36398L9.99188 0.949219ZM9.99188 2.535L4.55375 3.74766V10.8837C4.55375 11.4123 4.67546 11.9046 4.91888 12.3606C5.1623 12.8167 5.50154 13.1898 5.93659 13.48L9.99188 16.1852L14.0472 13.48C14.4822 13.1898 14.8214 12.8167 15.0649 12.3606C15.3083 11.9046 15.43 11.4123 15.43 10.8837V3.74766L9.99188 2.535ZM9.99188 5.61328C10.2716 5.61328 10.5305 5.68324 10.7688 5.82316C11.007 5.96309 11.196 6.15224 11.3359 6.39062C11.4757 6.62901 11.5456 6.88813 11.5456 7.16797C11.5456 7.44781 11.4757 7.70693 11.3359 7.94531C11.196 8.1837 11.007 8.37544 10.7688 8.52055V11.832H9.215V8.52055C8.97676 8.37544 8.78772 8.1837 8.64788 7.94531C8.50804 7.70693 8.43813 7.44781 8.43813 7.16797C8.43813 6.88813 8.50804 6.62901 8.64788 6.39062C8.78772 6.15224 8.97676 5.96309 9.215 5.82316C9.45324 5.68324 9.7122 5.61328 9.99188 5.61328Z" fill="#40D2A1"/>
</g>
<defs>
<clipPath id="clip0_660_12705">
<rect width="19.4219" height="18.6562" fill="white" transform="translate(0.28125 0.171875)"/>
</clipPath>
</defs>
</svg>
