<svg width="20" height="20" viewBox="0 0 20 20" fill="none" xmlns="http://www.w3.org/2000/svg">
<g clip-path="url(#clip0_17709_26658)">
<path d="M6.25 10H11.25M6.25 6.66667H8.75" stroke="#1C1C1C" stroke-width="1.5" stroke-linecap="round" stroke-linejoin="round"/>
<path d="M7.08203 16.666C7.95735 17.3908 9.01078 17.8525 10.2183 17.9317C11.1697 17.9941 12.163 17.994 13.1124 17.9317C13.4394 17.9103 13.7958 17.8333 14.1027 17.7085C14.4441 17.5697 14.615 17.5003 14.7017 17.5108C14.7885 17.5214 14.9144 17.613 15.1662 17.7963C15.6102 18.1194 16.1696 18.3514 16.9991 18.3315C17.4185 18.3214 17.6282 18.3164 17.7221 18.1584C17.816 18.0004 17.6991 17.7818 17.4652 17.3444C17.1409 16.7378 16.9354 16.0434 17.2468 15.487C17.7831 14.6923 18.2386 13.7511 18.3052 12.7346C18.341 12.1884 18.341 11.6228 18.3052 11.0766C18.2608 10.3993 18.0964 9.7554 17.833 9.16602" stroke="#1C1C1C" stroke-width="1.5" stroke-linecap="round" stroke-linejoin="round"/>
<path d="M10.2869 14.5717C13.2498 14.3765 15.61 12.0051 15.8042 9.02804C15.8422 8.44544 15.8422 7.8421 15.8042 7.25951C15.61 4.28242 13.2498 1.91102 10.2869 1.71589C9.27601 1.64932 8.22063 1.64946 7.21184 1.71589C4.24887 1.91102 1.88872 4.28242 1.69452 7.25951C1.65651 7.8421 1.65651 8.44544 1.69452 9.02804C1.76525 10.1123 2.24928 11.1163 2.81912 11.964C3.14998 12.5575 2.93163 13.2982 2.587 13.9452C2.33851 14.4117 2.21427 14.6449 2.31403 14.8135C2.41379 14.982 2.63662 14.9873 3.08228 14.9981C3.96361 15.0193 4.55792 14.7718 5.02966 14.4272C5.29722 14.2317 5.431 14.134 5.5232 14.1227C5.6154 14.1115 5.79685 14.1855 6.15969 14.3336C6.4858 14.4666 6.86445 14.5488 7.21184 14.5717C8.22063 14.6381 9.27601 14.6382 10.2869 14.5717Z" stroke="#1C1C1C" stroke-width="1.5" stroke-linejoin="round"/>
</g>
<defs>
<clipPath id="clip0_17709_26658">
<rect width="20" height="20" fill="white"/>
</clipPath>
</defs>
</svg>
