<svg width="18" height="20" viewBox="0 0 18 20" fill="none" xmlns="http://www.w3.org/2000/svg">
<path d="M9 18.334C8.31818 18.334 7.66682 18.0588 6.36411 17.5085C3.12137 16.1387 1.5 15.4538 1.5 14.3017C1.5 13.9791 1.5 8.38775 1.5 5.83398M9 18.334C9.68182 18.334 10.3332 18.0588 11.6359 17.5085C14.8786 16.1387 16.5 15.4538 16.5 14.3017V5.83398M9 18.334L9 9.46302" stroke="#1C1C1C" stroke-width="1.5" stroke-linecap="round" stroke-linejoin="round"/>
<path d="M5.93827 8.07745L3.50393 6.89951C2.16798 6.25305 1.5 5.92983 1.5 5.41797C1.5 4.90611 2.16798 4.58288 3.50393 3.93643L5.93827 2.75848C7.4407 2.03147 8.19191 1.66797 9 1.66797C9.80809 1.66797 10.5593 2.03147 12.0617 2.75848L14.4961 3.93643C15.832 4.58288 16.5 4.90611 16.5 5.41797C16.5 5.92983 15.832 6.25305 14.4961 6.89951L12.0617 8.07745C10.5593 8.80446 9.80809 9.16797 9 9.16797C8.19191 9.16797 7.4407 8.80446 5.93827 8.07745Z" stroke="#1C1C1C" stroke-width="1.5" stroke-linecap="round" stroke-linejoin="round"/>
<path d="M4 10L5.66667 10.8333" stroke="#1C1C1C" stroke-width="1.5" stroke-linecap="round" stroke-linejoin="round"/>
<path d="M13.1673 3.33398L4.83398 7.50065" stroke="#1C1C1C" stroke-width="1.5" stroke-linecap="round" stroke-linejoin="round"/>
</svg>
