<svg width="20" height="14" viewBox="0 0 20 14" fill="none" xmlns="http://www.w3.org/2000/svg">
<path d="M1.66602 2.83268H4.05354C4.65913 2.83268 5.23992 2.53294 5.66814 1.99939C6.2797 1.23739 7.18431 0.971317 8.00481 1.31209L9.16602 1.79437M1.66602 10.305H3.01658C3.98282 10.305 4.46594 10.305 4.92278 10.4337C4.94499 10.44 4.96713 10.4465 4.9892 10.4532C5.44317 10.5911 5.84515 10.8501 6.64911 11.3683C8.22258 12.3824 9.00931 12.8894 9.86658 12.8276C9.907 12.8247 9.94734 12.8209 9.98756 12.8161C10.8407 12.7141 11.5093 12.0677 12.8465 10.775L14.166 9.49935" stroke="#1C1C1C" stroke-width="1.5" stroke-linecap="round"/>
<path d="M18.3333 3.02755H16.236C15.3479 3.02755 14.7207 2.54492 14.0836 1.9015C13.6709 1.48474 13.1442 1.23912 12.5906 1.20529C11.9717 1.16748 11.2544 1.11423 10.6533 1.27936C9.98428 1.46315 9.54249 1.96654 9.07517 2.49264L7.86924 3.85027C7.37692 4.40453 7.37692 5.30314 7.86924 5.85739C8.29417 6.33577 8.95995 6.40999 9.45995 6.03472C9.81977 5.76467 10.2286 5.32857 10.6526 5.19122C11.1298 5.03665 11.4257 5.38391 11.6962 5.74926L13.6297 8.36131C14.3472 9.33072 14.706 9.81542 15.1965 10.0741C15.687 10.3327 16.2474 10.3327 17.3683 10.3327H18.3333" stroke="#1C1C1C" stroke-width="1.5" stroke-linecap="round"/>
</svg>
