<svg width="20" height="20" viewBox="0 0 20 20" fill="none" xmlns="http://www.w3.org/2000/svg">
<path d="M11.8082 17.4094C15.294 17.1777 18.0707 14.3617 18.2991 10.8264C18.3439 10.1345 18.3439 9.41809 18.2991 8.72625C18.0707 5.19096 15.294 2.37493 11.8082 2.14321C10.619 2.06416 9.37732 2.06432 8.19051 2.14321C4.70467 2.37493 1.92802 5.19096 1.69955 8.72625C1.65484 9.41809 1.65484 10.1345 1.69955 10.8264C1.78276 12.114 2.35221 13.3062 3.0226 14.3128C3.41186 15.0176 3.15497 15.8972 2.74953 16.6655C2.45719 17.2195 2.31102 17.4965 2.42838 17.6966C2.54575 17.8967 2.8079 17.903 3.3322 17.9158C4.36907 17.941 5.06825 17.6471 5.62325 17.2378C5.93802 17.0057 6.0954 16.8897 6.20388 16.8763C6.31235 16.863 6.52582 16.9509 6.95269 17.1267C7.33635 17.2847 7.78182 17.3823 8.19051 17.4094C9.37732 17.4883 10.619 17.4885 11.8082 17.4094Z" stroke="#1C1C1C" stroke-width="1.5" stroke-linejoin="round"/>
<path d="M8.75 7.95002C8.75 7.24196 9.30964 6.66797 10 6.66797C10.6904 6.66797 11.25 7.24196 11.25 7.95002C11.25 8.20525 11.1773 8.44305 11.0519 8.64283C10.6784 9.23827 10 9.80607 10 10.5141V10.8346" stroke="#1C1C1C" stroke-width="1.5" stroke-linecap="round"/>
<path d="M10 12.5H10.0075" stroke="#1C1C1C" stroke-width="1.5" stroke-linecap="round" stroke-linejoin="round"/>
</svg>
