<svg width="20" height="20" viewBox="0 0 20 20" fill="none" xmlns="http://www.w3.org/2000/svg">
<path d="M8.33333 18.3333C6.38917 18.3333 5.48345 18.3333 4.80674 17.7294C4.13003 17.1254 3.95914 16.1053 3.61738 14.0651L2.64822 8.27964C2.49058 7.33858 2.41176 6.86806 2.65447 6.55903C2.89719 6.25 3.34557 6.25 4.24232 6.25H15.7577C16.6544 6.25 17.1028 6.25 17.3455 6.55903C17.5882 6.86806 17.5094 7.33858 17.3518 8.27964L17.1334 9.58333" stroke="#1C1C1C" stroke-width="1.5" stroke-linecap="round"/>
<path d="M10.9515 12.0342C11.9572 11.425 12.8349 11.6705 13.3621 12.0616C13.5783 12.2219 13.6864 12.3021 13.75 12.3021C13.8136 12.3021 13.9217 12.2219 14.1379 12.0616C14.6651 11.6705 15.5428 11.425 16.5485 12.0342C17.8682 12.8338 18.1669 15.4715 15.1227 17.6969C14.5429 18.1208 14.2529 18.3327 13.75 18.3327C13.2471 18.3327 12.9571 18.1208 12.3773 17.6969C9.33314 15.4715 9.63178 12.8338 10.9515 12.0342Z" stroke="#1C1C1C" stroke-width="1.5" stroke-linecap="round"/>
<path d="M5.83398 6.24935V5.83268C5.83398 3.5315 7.69946 1.66602 10.0007 1.66602C12.3018 1.66602 14.1673 3.5315 14.1673 5.83268V6.24935" stroke="#1C1C1C" stroke-width="1.5"/>
<path d="M3.75 14.582H7.91667" stroke="#1C1C1C" stroke-width="1.5" stroke-linecap="round"/>
</svg>
