<svg width="18" height="20" viewBox="0 0 18 20" fill="none" xmlns="http://www.w3.org/2000/svg">
<path d="M6.5 18.3327C6.79986 18.3327 7.90899 17.8265 9.04113 16.8141M9.04113 16.8141C10.0065 15.9509 10.9886 14.7196 11.5 13.1203C12.6111 9.6454 5.94444 13.1203 8.16667 16.0161C8.44009 16.3724 8.73454 16.6328 9.04113 16.8141ZM9.04113 16.8141C10.3767 17.6042 11.9426 16.8944 13.0035 16.078C13.3277 15.8285 13.4898 15.7038 13.5865 15.7426C13.6833 15.7815 13.7399 16.0047 13.853 16.4512C14.2151 17.8801 15.2846 19.0335 16.5 17.1747" stroke="#1C1C1C" stroke-width="1.5" stroke-linecap="round" stroke-linejoin="round"/>
<path d="M15.666 10.832L15.666 6.5743C15.666 5.14567 15.666 4.43136 15.4427 3.86085C15.0837 2.94369 14.3245 2.22024 13.362 1.87815C12.7633 1.66537 12.0137 1.66537 10.5145 1.66536C7.89086 1.66536 6.57904 1.66537 5.53132 2.03774C3.84696 2.63639 2.51836 3.90243 1.89013 5.50747C1.49935 6.50585 1.49935 7.7559 1.49935 10.256L1.49935 12.4037C1.49935 14.9933 1.49935 16.2882 2.20576 17.1874C2.40816 17.4451 2.6482 17.6738 2.91857 17.8667C3.22448 18.0849 3.57403 18.2324 3.99935 18.332" stroke="#1C1C1C" stroke-width="1.5" stroke-linecap="round" stroke-linejoin="round"/>
<path d="M1.50065 10C1.50065 8.46587 2.7443 7.22222 4.27843 7.22222C4.83325 7.22222 5.48735 7.31944 6.02679 7.1749C6.50608 7.04647 6.88045 6.6721 7.00888 6.1928C7.15342 5.65336 7.05621 4.99926 7.05621 4.44444C7.05621 2.91032 8.29986 1.66667 9.83399 1.66667" stroke="#1C1C1C" stroke-width="1.5" stroke-linecap="round" stroke-linejoin="round"/>
</svg>
