<svg width="18" height="20" viewBox="0 0 18 20" fill="none" xmlns="http://www.w3.org/2000/svg">
<path d="M16.7652 5.95181L16.3539 5.23798C16.0428 4.69812 15.8873 4.42819 15.6226 4.32055C15.358 4.21292 15.0587 4.29785 14.4601 4.46772L13.4432 4.75413C13.061 4.84226 12.6601 4.79227 12.3111 4.61298L12.0304 4.451C11.7311 4.25935 11.501 3.97676 11.3736 3.6446L11.0953 2.81345C10.9123 2.26343 10.8208 1.98842 10.603 1.83113C10.3852 1.67383 10.0959 1.67383 9.51725 1.67383H8.58826C8.00963 1.67383 7.72032 1.67383 7.50251 1.83113C7.28469 1.98842 7.1932 2.26343 7.01022 2.81345L6.73193 3.6446C6.60452 3.97676 6.37436 4.25935 6.07513 4.451L5.79439 4.61298C5.44543 4.79227 5.04448 4.84226 4.66231 4.75413L3.64544 4.46772C3.04683 4.29785 2.74752 4.21292 2.48288 4.32055C2.21823 4.42819 2.06269 4.69812 1.75161 5.23798L1.34029 5.95181C1.0487 6.45785 0.902903 6.71087 0.931199 6.98022C0.959496 7.24957 1.15468 7.46663 1.54503 7.90075L2.40424 8.86134C2.61423 9.12719 2.76332 9.59049 2.76332 10.007C2.76332 10.4238 2.61428 10.887 2.40426 11.1529L1.54504 12.1135C1.15468 12.5476 0.959498 12.7647 0.931201 13.034C0.902903 13.3034 1.0487 13.5564 1.34029 14.0624L1.7516 14.7763C2.06267 15.3161 2.21823 15.5861 2.48288 15.6937C2.74753 15.8013 3.04684 15.7164 3.64546 15.5465L4.66227 15.2601C5.04451 15.1719 5.44554 15.222 5.79454 15.4013L6.07523 15.5633C6.37441 15.755 6.60452 16.0375 6.7319 16.3696L7.01022 17.2009C7.1932 17.7509 7.28469 18.0259 7.50251 18.1832C7.72032 18.3405 8.00963 18.3405 8.58826 18.3405H9.51725C10.0959 18.3405 10.3852 18.3405 10.603 18.1832C10.8208 18.0259 10.9123 17.7509 11.0953 17.2009L11.3736 16.3696C11.501 16.0375 11.7311 15.755 12.0303 15.5633L12.311 15.4013C12.66 15.222 13.061 15.1719 13.4432 15.2601L14.4601 15.5465C15.0587 15.7164 15.358 15.8013 15.6226 15.6937C15.8873 15.5861 16.0428 15.3161 16.3539 14.7763L16.7652 14.0624C17.0568 13.5564 17.2026 13.3034 17.1743 13.034C17.146 12.7647 16.9508 12.5476 16.5605 12.1135L15.7013 11.1529C15.4912 10.887 15.3422 10.4238 15.3422 10.007C15.3422 9.59049 15.4913 9.12719 15.7013 8.86134L16.5605 7.90075C16.9508 7.46663 17.146 7.24957 17.1743 6.98022C17.2026 6.71087 17.0568 6.45785 16.7652 5.95181Z" stroke="#1C1C1C" stroke-width="1.5" stroke-linecap="round"/>
</svg>
