<svg width="20" height="20" viewBox="0 0 20 20" fill="none" xmlns="http://www.w3.org/2000/svg">
<g clip-path="url(#clip0_17709_26728)">
<path d="M2.5 8.33203L2.5 12.4987C2.5 14.8557 2.5 16.0342 3.23223 16.7665C3.96447 17.4987 5.14298 17.4987 7.5 17.4987H10.4167M17.5 8.33203V9.58203" stroke="#1C1C1C" stroke-width="1.5" stroke-linecap="round"/>
<path d="M2.42601 3.94526L1.71208 3.71546H1.71208L2.42601 3.94526ZM1.85624 5.71546L2.57017 5.94525H2.57017L1.85624 5.71546ZM17.5727 3.94526L16.8588 4.17505V4.17505L17.5727 3.94526ZM18.1425 5.71546L18.8564 5.48566V5.48566L18.1425 5.71546ZM8.13526 7.63916C7.84424 7.34441 7.36938 7.34138 7.07462 7.6324C6.77987 7.92341 6.77684 8.39828 7.06785 8.69303L8.13526 7.63916ZM12.931 7.63872C12.64 7.3439 12.1652 7.34075 11.8703 7.6317C11.5755 7.92265 11.5724 8.39752 11.8633 8.69234L12.931 7.63872ZM1.97879 7.55771L2.58679 7.11858H2.58679L1.97879 7.55771ZM9.18093 6.8542C9.28486 6.45324 9.04406 6.04394 8.6431 5.94001C8.24214 5.83608 7.83284 6.07687 7.72891 6.47783L9.18093 6.8542ZM13.9759 6.8542C14.0799 6.45324 13.8391 6.04394 13.4381 5.94001C13.0372 5.83608 12.6279 6.07687 12.5239 6.47783L13.9759 6.8542ZM18.0199 7.55771L17.4119 7.11858H17.4119L18.0199 7.55771ZM18.3106 6.83824L17.5696 6.7226L17.5696 6.7226L18.3106 6.83824ZM1.6881 6.83824L0.947069 6.95388L0.947069 6.95388L1.6881 6.83824ZM3.37858 1.98061L2.92995 1.37958L2.92995 1.37958L3.37858 1.98061ZM1.71208 3.71546L1.14231 5.48566L2.57017 5.94525L3.13994 4.17505L1.71208 3.71546ZM16.8588 4.17505L17.4285 5.94525L18.8564 5.48566L18.2866 3.71546L16.8588 4.17505ZM5.47953 2.41602H14.5192V0.916016H5.47953V2.41602ZM9.99879 8.41602C9.26765 8.41602 8.60881 8.11879 8.13526 7.63916L7.06785 8.69303C7.8128 9.44755 8.85189 9.91602 9.99879 9.91602V8.41602ZM14.7949 8.41602C14.0636 8.41602 13.4045 8.11861 12.931 7.63872L11.8633 8.69234C12.6083 9.44726 13.6477 9.91602 14.7949 9.91602V8.41602ZM5.20377 8.41602C4.2132 8.41602 3.13448 7.8769 2.58679 7.11858L1.37079 7.99684C2.21569 9.16665 3.75811 9.91602 5.20377 9.91602V8.41602ZM7.72891 6.47783C7.44073 7.58964 6.42116 8.41602 5.20377 8.41602V9.91602C7.11474 9.91602 8.7238 8.61777 9.18093 6.8542L7.72891 6.47783ZM12.5239 6.47783C12.2358 7.58964 11.2162 8.41602 9.99879 8.41602V9.91602C11.9098 9.91602 13.5188 8.61777 13.9759 6.8542L12.5239 6.47783ZM17.4119 7.11858C16.8642 7.8769 15.7855 8.41602 14.7949 8.41602V9.91602C16.2406 9.91602 17.783 9.16665 18.6279 7.99684L17.4119 7.11858ZM17.4285 5.94525C17.5848 6.43074 17.6021 6.51382 17.5696 6.7226L19.0516 6.95388C19.1453 6.35394 19.0084 5.95807 18.8564 5.48566L17.4285 5.94525ZM18.6279 7.99684C18.6974 7.90058 18.8014 7.76092 18.8838 7.57551C18.9674 7.38758 19.0151 7.18787 19.0516 6.95388L17.5696 6.7226C17.543 6.89297 17.5213 6.94796 17.5132 6.96616C17.5039 6.98688 17.4941 7.00478 17.4119 7.11858L18.6279 7.99684ZM18.2866 3.71546C18.1148 3.18154 17.9681 2.72224 17.8058 2.36107C17.6364 1.98386 17.4201 1.64187 17.0687 1.37958L16.1715 2.58164C16.2416 2.63395 16.3246 2.72427 16.4375 2.97572C16.5577 3.24321 16.6765 3.60894 16.8588 4.17505L18.2866 3.71546ZM14.5192 2.41602C15.0969 2.41602 15.465 2.41723 15.7434 2.45015C16.001 2.48061 16.1036 2.53097 16.1715 2.58164L17.0687 1.37958C16.7152 1.11566 16.3271 1.00872 15.9195 0.960528C15.5328 0.914802 15.0611 0.916016 14.5192 0.916016V2.41602ZM1.14231 5.48566C0.990252 5.95807 0.853446 6.35394 0.947069 6.95388L2.42913 6.7226C2.39655 6.51382 2.4139 6.43073 2.57017 5.94525L1.14231 5.48566ZM2.58679 7.11858C2.5046 7.00478 2.49475 6.98688 2.48554 6.96616C2.47745 6.94796 2.45572 6.89297 2.42913 6.7226L0.947069 6.95388C0.983584 7.18787 1.03134 7.38758 1.11489 7.57551C1.19731 7.76092 1.30126 7.90058 1.37079 7.99684L2.58679 7.11858ZM3.13994 4.17505C3.32215 3.60894 3.441 3.24321 3.56116 2.97572C3.67412 2.72427 3.75713 2.63395 3.8272 2.58164L2.92995 1.37958C2.57856 1.64187 2.36232 1.98386 2.19287 2.36107C2.03063 2.72224 1.88393 3.18154 1.71208 3.71546L3.13994 4.17505ZM5.47953 0.916016C4.93758 0.916016 4.46591 0.914802 4.07917 0.960528C3.67162 1.00872 3.28354 1.11566 2.92995 1.37958L3.8272 2.58164C3.89508 2.53097 3.99765 2.48061 4.25529 2.45015C4.53375 2.41723 4.90182 2.41602 5.47953 2.41602V0.916016Z" fill="#1C1C1C"/>
<path d="M17.5 8.33203V10.4154" stroke="#1C1C1C" stroke-width="1.5" stroke-linecap="round"/>
<path d="M12.5 15.4167H18.3333M15.4167 18.3333L15.4167 12.5" stroke="#1C1C1C" stroke-width="1.5" stroke-linecap="round"/>
<path d="M5.83203 14.166H9.16536" stroke="#1C1C1C" stroke-width="1.5" stroke-linecap="round"/>
</g>
<defs>
<clipPath id="clip0_17709_26728">
<rect width="20" height="20" fill="white"/>
</clipPath>
</defs>
</svg>
