<svg width="12" height="16" viewBox="0 0 12 16" fill="none" xmlns="http://www.w3.org/2000/svg">
<g clip-path="url(#clip0_168_2908)">
<path d="M6.31236 4.0625C7.08236 4.0625 7.81153 4.2375 8.49986 4.5875C9.15903 4.92583 9.71465 5.39396 10.1667 5.99188C10.6188 6.58979 10.9119 7.25917 11.0461 8C10.9119 8.74083 10.6188 9.41021 10.1667 10.0081C9.71465 10.606 9.15903 11.0742 8.49986 11.4125C7.81153 11.7625 7.08236 11.9375 6.31236 11.9375C5.54236 11.9375 4.8132 11.7625 4.12486 11.4125C3.4657 11.0742 2.91007 10.606 2.45799 10.0081C2.0059 9.41021 1.71278 8.74083 1.57861 8C1.71278 7.25917 2.0059 6.58979 2.45799 5.99188C2.91007 5.39396 3.4657 4.92583 4.12486 4.5875C4.8132 4.2375 5.54236 4.0625 6.31236 4.0625ZM6.31236 11.0625C6.91903 11.0625 7.49653 10.9283 8.04486 10.66C8.5757 10.4033 9.02632 10.0417 9.39674 9.575C9.76715 9.10833 10.0194 8.58333 10.1536 8C10.0194 7.41667 9.76715 6.89167 9.39674 6.425C9.02632 5.95833 8.5757 5.59667 8.04486 5.34C7.49653 5.07167 6.91903 4.9375 6.31236 4.9375C5.7057 4.9375 5.1282 5.07167 4.57986 5.34C4.04903 5.59667 3.5984 5.95833 3.22799 6.425C2.85757 6.89167 2.60528 7.41667 2.47111 8C2.60528 8.58333 2.85757 9.10833 3.22799 9.575C3.5984 10.0417 4.04903 10.4033 4.57986 10.66C5.1282 10.9283 5.7057 11.0625 6.31236 11.0625ZM6.31236 9.96875C5.95653 9.96875 5.62841 9.87979 5.32799 9.70187C5.02757 9.52396 4.7884 9.28479 4.61049 8.98438C4.43257 8.68396 4.34361 8.35583 4.34361 8C4.34361 7.64417 4.43257 7.31604 4.61049 7.01562C4.7884 6.71521 5.02757 6.47604 5.32799 6.29812C5.62841 6.12021 5.95653 6.03125 6.31236 6.03125C6.6682 6.03125 6.99632 6.12021 7.29674 6.29812C7.59716 6.47604 7.83632 6.71521 8.01424 7.01562C8.19215 7.31604 8.28111 7.64417 8.28111 8C8.28111 8.35583 8.19215 8.68396 8.01424 8.98438C7.83632 9.28479 7.59716 9.52396 7.29674 9.70187C6.99632 9.87979 6.6682 9.96875 6.31236 9.96875ZM6.31236 9.09375C6.5107 9.09375 6.69299 9.04417 6.85924 8.945C7.02549 8.84583 7.1582 8.71312 7.25736 8.54688C7.35653 8.38063 7.40611 8.19833 7.40611 8C7.40611 7.80167 7.35653 7.61937 7.25736 7.45312C7.1582 7.28687 7.02549 7.15417 6.85924 7.055C6.69299 6.95583 6.5107 6.90625 6.31236 6.90625C6.11403 6.90625 5.93174 6.95583 5.76549 7.055C5.59924 7.15417 5.46653 7.28687 5.36736 7.45312C5.2682 7.61937 5.21861 7.80167 5.21861 8C5.21861 8.19833 5.2682 8.38063 5.36736 8.54688C5.46653 8.71312 5.59924 8.84583 5.76549 8.945C5.93174 9.04417 6.11403 9.09375 6.31236 9.09375Z" fill="#6B7280"/>
</g>
<defs>
<clipPath id="clip0_168_2908">
<rect width="10.9375" height="10.5" fill="white" transform="translate(0.84375 2.75)"/>
</clipPath>
</defs>
</svg>
