<svg width="18" height="17" viewBox="0 0 18 17" fill="none" xmlns="http://www.w3.org/2000/svg">
<path fill-rule="evenodd" clip-rule="evenodd" d="M2.62732 1.46656V2.69875L9.56216 2.6886L16.497 2.67848L16.6935 2.57479C16.9849 2.42105 17.1046 2.30513 17.2497 2.03601C17.3691 1.81463 17.3805 1.76523 17.3805 1.46656C17.3805 1.16766 17.3692 1.11861 17.2492 0.896196C17.1076 0.633499 16.9458 0.47822 16.6713 0.341485L16.497 0.254651L9.56216 0.244532L2.62732 0.234375V1.46656ZM16.17 1.46656V1.69741H10.0142H3.85847V1.46656V1.23572H10.0142H16.17V1.46656ZM17.1756 2.81371C17.0621 2.89678 16.8716 3.00423 16.7523 3.05244L16.5355 3.14016L8.96582 3.15024L1.39617 3.16036V4.5449V5.92949H3.31796C4.59531 5.92949 5.30807 5.94399 5.44362 5.97277C6.06923 6.10562 6.55769 6.58323 6.72505 7.22577C6.80585 7.53598 6.80585 8.9398 6.72505 9.25001C6.55931 9.88637 6.12252 10.3232 5.48617 10.4889C5.305 10.5361 4.92192 10.5463 3.331 10.5463H1.39617V12.1622V13.7781H6.09955H10.8029L10.8056 13.1721C10.808 12.6311 10.8192 12.5306 10.91 12.2338C11.114 11.5673 11.3833 11.1052 11.8272 10.6602C13.3782 9.10559 15.9675 9.34635 17.2316 11.1627L17.4011 11.4064V7.03283C17.4011 4.62735 17.3968 2.66001 17.3915 2.66093C17.3862 2.6619 17.2891 2.73065 17.1756 2.81371ZM0.528594 6.44453C0.373699 6.51301 0.212111 6.70938 0.183833 6.86358C0.171329 6.93176 0.166328 7.59654 0.172676 8.34093C0.183794 9.63837 0.187526 9.69877 0.263588 9.80053C0.307217 9.85893 0.390705 9.94242 0.449184 9.98605C0.553871 10.0642 0.591151 10.0654 2.98605 10.0654H5.41665L5.65907 9.93392C5.92834 9.78791 6.0443 9.66811 6.19785 9.37698L6.30154 9.18049V8.23789V7.29529L6.16961 7.05195C6.02707 6.7891 5.86509 6.63382 5.59097 6.49724L5.41665 6.4104L3.03129 6.40155C1.09981 6.3944 0.623623 6.40256 0.528594 6.44453ZM4.71755 7.67479C5.11282 7.83996 5.2092 8.3582 4.90179 8.66564C4.65222 8.91518 4.29588 8.91518 4.0463 8.66564C3.57054 8.18984 4.09551 7.41491 4.71755 7.67479ZM13.7654 10.1392C12.9266 10.3033 12.2067 10.7861 11.7439 11.4952C11.4019 12.0191 11.2663 12.4924 11.2663 13.1625C11.2663 13.831 11.4022 14.3069 11.741 14.8248C12.6756 16.2536 14.5779 16.6641 15.9905 15.7419C17.4142 14.8125 17.8237 12.9061 16.9026 11.4952C16.4692 10.8312 15.8555 10.3928 15.0548 10.1751C14.7547 10.0935 14.093 10.0751 13.7654 10.1392ZM14.5541 12.1237V12.9317H15.362H16.17V13.1625V13.3933H15.362H14.5541V14.2013V15.0092H14.3233H14.0924V14.2013V13.3933H13.2845H12.4765V13.1625V12.9317H13.2845H14.0924V12.1237V11.3158H14.3233H14.5541V12.1237Z" fill="#084C3F"/>
</svg>
