<svg width="20" height="20" viewBox="0 0 20 20" fill="none" xmlns="http://www.w3.org/2000/svg">
<path d="M9.80474 3.75014L5.96698 7.60576C5.26261 8.30019 4.78613 9.11899 4.53753 10.0622C4.29929 10.9846 4.29929 11.9071 4.53753 12.8295C4.78613 13.7727 5.26002 14.5941 5.95921 15.2937C6.6584 15.9933 7.4793 16.4675 8.4219 16.7162C9.3438 16.9546 10.2657 16.9546 11.1876 16.7162C12.1302 16.4675 12.9511 15.9933 13.6503 15.2937C14.3495 14.5941 14.8234 13.7727 15.072 12.8295C15.3102 11.9071 15.3102 10.9846 15.072 10.0622C14.8234 9.11899 14.3469 8.30019 13.6425 7.60576L9.80474 3.75014ZM9.80474 1.55803L14.7457 6.50193C15.6468 7.39329 16.2528 8.45048 16.5636 9.6735C16.8743 10.8551 16.8743 12.0366 16.5636 13.2182C16.2528 14.4412 15.6494 15.501 14.7534 16.3975C13.8574 17.2941 12.7983 17.903 11.576 18.2243C10.3952 18.5249 9.21432 18.5249 8.03347 18.2243C6.81118 17.903 5.75204 17.2941 4.85605 16.3975C3.96005 15.501 3.35668 14.4412 3.04593 13.2182C2.73518 12.0366 2.73518 10.8551 3.04593 9.6735C3.35668 8.45048 3.96264 7.39329 4.86382 6.50193L9.80474 1.55803ZM10.5816 9.89115H12.5238L9.02787 14.9439V11.4458H7.08568L10.5816 6.39311V9.89115Z" fill="#2563EB"/>
</svg>
