<svg width="12" height="12" viewBox="0 0 12 12" fill="none" xmlns="http://www.w3.org/2000/svg">
<path d="M11.2481 0.75C11.4114 0.75 11.5494 0.806389 11.6621 0.919167C11.7748 1.03194 11.8312 1.17 11.8312 1.33333V10.6667C11.8312 10.83 11.7748 10.9681 11.6621 11.0808C11.5494 11.1936 11.4114 11.25 11.2481 11.25H0.751826C0.588551 11.25 0.450545 11.1936 0.337807 11.0808C0.22507 10.9681 0.168701 10.83 0.168701 10.6667V1.33333C0.168701 1.17 0.22507 1.03194 0.337807 0.919167C0.450545 0.806389 0.588551 0.75 0.751826 0.75H11.2481ZM5.41683 6.58333H1.33495V10.0833H5.41683V6.58333ZM10.665 6.58333H6.58308V10.0833H10.665V6.58333ZM5.41683 1.91667H1.33495V5.41667H5.41683V1.91667ZM10.665 1.91667H6.58308V5.41667H10.665V1.91667Z" fill="#6B7280"/>
</svg>
